<svg xmlns="http://www.w3.org/2000/svg" xmlns:xlink="http://www.w3.org/1999/xlink" xmlns:lucid="lucid" width="2641.14" height="2260.15"><g transform="translate(0 0)" lucid:page-tab-id="JcTtX6qArhzI"><path d="M0 0h2641.14v2260.15H0z" fill="#fff"/><path d="M2624 632h240v60h-240z" fill="none"/><path d="M765.15 48c0-4.42 3.58-8 8-8h1089.6c4.43 0 8 3.58 8 8v25.16c0 4.4-3.57 8-8 8H773.16c-4.42 0-8-3.6-8-8z" stroke="#000" stroke-opacity="0" stroke-width="2" fill="#fff" fill-opacity="0"/><use xlink:href="#a" transform="matrix(1,0,0,1,769.1465527853433,44) translate(380.11740740740737 25.782777777777778)"/><use xlink:href="#b" transform="matrix(1,0,0,1,769.1465527853433,44) translate(442.5408641975308 25.782777777777778)"/><use xlink:href="#c" transform="matrix(1,0,0,1,769.1465527853433,44) translate(508.0235802469135 25.782777777777778)"/><use xlink:href="#d" transform="matrix(1,0,0,1,769.1465527853433,44) translate(545.8272839506172 25.782777777777778)"/><use xlink:href="#e" transform="matrix(1,0,0,1,769.1465527853433,44) translate(579.2606172839505 25.782777777777778)"/><path d="M934.83 79.8h772.84M934.85 79.8h-1.02M1707.64 79.8h1.03" stroke="#a9afb8" stroke-width="2" fill="none"/><path d="M765.15 89.16c0-4.42 3.58-8 8-8H1864c4.42 0 8 3.58 8 8V92c0 4.42-3.58 8-8 8H773.15c-4.42 0-8-3.58-8-8z" stroke="#000" stroke-opacity="0" stroke-width="2" fill="#fff" fill-opacity="0"/><use xlink:href="#f" transform="matrix(1,0,0,1,769.1465527853439,85.15522395689881) translate(466.78957818930036 14.917037037037037)"/><use xlink:href="#g" transform="matrix(1,0,0,1,769.1465527853439,85.15522395689881) translate(520.2416358024691 14.917037037037037)"/><use xlink:href="#h" transform="matrix(1,0,0,1,769.1465527853439,85.15522395689881) translate(532.6911213991768 14.917037037037037)"/><use xlink:href="#i" transform="matrix(1,0,0,1,769.1465527853439,85.15522395689881) translate(579.3448251028806 14.917037037037037)"/><use xlink:href="#j" transform="matrix(1,0,0,1,769.1465527853439,85.15522395689881) translate(604.8386522633743 14.917037037037037)"/><path d="M80 328c0-4.42 3.58-8 8-8h124c4.42 0 8 3.58 8 8v4.93c0 3.9-2.24 9.3-5 12.07-2.76 2.76-8.17 5-12.07 5H88c-4.42 0-8-3.58-8-8z" fill="#fff"/><path d="M220 320v20l-10 10H80" stroke="#333" fill="none"/><path d="M80 328c0-4.42 3.58-8 8-8h2504c4.42 0 8 3.58 8 8v524c0 4.42-3.58 8-8 8H88c-4.42 0-8-3.58-8-8z" stroke="#333" fill="none"/><use xlink:href="#k" transform="matrix(1,0,0,1,88,320) translate(14.124999999999993 18.6)"/><use xlink:href="#l" transform="matrix(1,0,0,1,92,358) translate(20.549999999999997 14.4)"/><use xlink:href="#m" transform="matrix(1,0,0,1,92,358) translate(67.5 14.4)"/><use xlink:href="#n" transform="matrix(1,0,0,1,92,358) translate(116.5 14.4)"/><use xlink:href="#o" transform="matrix(1,0,0,1,92,358) translate(12.099999999999994 36)"/><use xlink:href="#p" transform="matrix(1,0,0,1,92,358) translate(40.05 36)"/><use xlink:href="#q" transform="matrix(1,0,0,1,92,358) translate(79 36)"/><use xlink:href="#r" transform="matrix(1,0,0,1,92,358) translate(109 36)"/><path d="M80 868c0-4.42 3.58-8 8-8h124c4.42 0 8 3.58 8 8v4.93c0 3.9-2.24 9.3-5 12.07-2.76 2.76-8.17 5-12.07 5H88c-4.42 0-8-3.58-8-8z" fill="#fff"/><path d="M220 860v20l-10 10H80" stroke="#333" fill="none"/><path d="M80 868c0-4.42 3.58-8 8-8h2504c4.42 0 8 3.58 8 8v1184c0 4.42-3.58 8-8 8H88c-4.42 0-8-3.58-8-8z" stroke="#333" fill="none"/><use xlink:href="#s" transform="matrix(1,0,0,1,88,859.9999999999999) translate(21.525 18.6)"/><use xlink:href="#t" transform="matrix(1,0,0,1,92,897.9999999999999) translate(8.724999999999994 14.4)"/><use xlink:href="#u" transform="matrix(1,0,0,1,92,897.9999999999999) translate(24.724999999999994 14.4)"/><use xlink:href="#v" transform="matrix(1,0,0,1,92,897.9999999999999) translate(81.475 14.4)"/><use xlink:href="#w" transform="matrix(1,0,0,1,92,897.9999999999999) translate(7.099999999999994 36)"/><use xlink:href="#x" transform="matrix(1,0,0,1,92,897.9999999999999) translate(47.05 36)"/><use xlink:href="#y" transform="matrix(1,0,0,1,92,897.9999999999999) translate(91.05 36)"/><use xlink:href="#z" transform="matrix(1,0,0,1,92,897.9999999999999) translate(129.95 36)"/><use xlink:href="#A" transform="matrix(1,0,0,1,92,897.9999999999999) translate(32.724999999999994 57.6)"/><use xlink:href="#B" transform="matrix(1,0,0,1,92,897.9999999999999) translate(63.675 57.6)"/><use xlink:href="#C" transform="matrix(1,0,0,1,92,897.9999999999999) translate(78.675 57.6)"/><path d="M1640 1255c0-2.76 2.24-5 5-5h230c2.76 0 5 2.24 5 5v20c0 2.76-2.24 5-5 5h-230c-2.76 0-5-2.24-5-5z" stroke="#000" stroke-opacity="0" stroke-width="2" fill-opacity="0"/><use xlink:href="#D" transform="matrix(1,0,0,1,1645,1255) translate(5.537037037037052 13.166666666666668)"/><use xlink:href="#E" transform="matrix(1,0,0,1,1645,1255) translate(58.87037037037039 13.166666666666668)"/><use xlink:href="#F" transform="matrix(1,0,0,1,1645,1255) translate(89.16666666666669 13.166666666666668)"/><use xlink:href="#G" transform="matrix(1,0,0,1,1645,1255) translate(134.27777777777777 13.166666666666668)"/><use xlink:href="#H" transform="matrix(1,0,0,1,1645,1255) translate(163.87037037037038 13.166666666666668)"/><a xlink:href="https://github.com/jmbarbier/" target="_blank" transform="matrix(1,0,0,1,1645,1255)"><path class="lucid-link lucid-hotspot lucid-overlay-hotspot" fill-opacity="0" d="M163.87 2.5h60.6v16h-60.6z"/></a><path d="M220 168c0-4.42 3.58-8 8-8h140c4.42 0 8 3.58 8 8v84c0 4.42-3.58 8-8 8H228c-4.42 0-8-3.58-8-8z" stroke="#333" fill="#fff"/><use xlink:href="#I" transform="matrix(1,0,0,1,220,160) translate(55.08 55.025)"/><path d="M220 2088c0-4.42 3.58-8 8-8h140c4.42 0 8 3.58 8 8v84c0 4.42-3.58 8-8 8H228c-4.42 0-8-3.58-8-8z" stroke="#333" fill="#fff"/><use xlink:href="#I" transform="matrix(1,0,0,1,220,2080) translate(55.08 55.025)"/><path d="M298 261v5m0 5.02v10m0 5.02v10.02m0 5v10.02m0 5v10.03m0 5.02v10m0 5.02v10.02m0 5v10.02m0 5v10.03m0 5v10.03m0 5v10.03m0 5v10.02m0 5v10.03m0 5v10.03m0 5v10.03m0 5v10.02m0 5v10.02m0 5v10.03m0 5v10.02m0 5v10.03m0 5v10.02m0 5v10.03m0 5v10.02m0 5v10.03m0 5v10.02m0 5v10.03m0 5v10.02m0 5v10.03m0 5v10.02m0 5v10.03m0 5v10.02m0 5v10.03m0 5v10.02m0 5v10.03m0 5v10.02m0 5v10.03m0 5v10.02m0 5v10.03m0 5v10.02m0 5V852m0 5V867m0 5v10.02m0 5v10.03m0 5v10.02m0 5v10.03m0 5v10.02m0 5v10.03m0 5v10.02m0 5v10.03m0 5v10.02m0 5v10.03m0 5v10.02m0 5v10.03m0 5v10.02m0 5v10.03m0 5v10.02m0 5v10.03m0 5v10.02m0 5v10.03m0 5v10.02m0 5v10.03m0 5v10.02m0 5v10.03m0 5v10.02m0 5v10.03m0 5v10.02m0 5v10.02m0 5v10.03m0 5v10.02m0 5v10.02m0 5v10.02m0 5v10.03m0 5v10.02m0 5v10.02m0 5v10.02m0 5v10.03m0 5v10.02m0 5v10.02m0 5v10.02m0 5v10.03m0 5V1468m0 5v10.02m0 5v10.02m0 5v10.03m0 5v10.02m0 5v10.02m0 5v10.02m0 5v10.03m0 5v10.02m0 5v10m0 5.02v10.02m0 5v10.02m0 5v10.03m0 5v10m0 5.02v10.02m0 5v10.02m0 5v10.03m0 5v10m0 5.02v10.02m0 5v10.02m0 5v10.03m0 5v10m0 5.02v10.02m0 5v10.02m0 5v10.03m0 5v10m0 5.02v10.02m0 5v10.02m0 5v10.03m0 5v10m0 5.02v10.02m0 5v10.02m0 5v10.03m0 5v10m0 5.02v10m0 5.02v10.02m0 5v10.02m0 5v10.03m0 5.02v10m0 5.02v10.02m0 5V2069m0 5v5.02" stroke="#333" fill="none"/><path d="M298.5 261h-1v-.5h1zM298.5 2079.5h-1v-.5h1z" stroke="#333" stroke-width=".05" fill="#333"/><path d="M532 168c0-4.42 3.58-8 8-8h140c4.42 0 8 3.58 8 8v84c0 4.42-3.58 8-8 8H540c-4.42 0-8-3.58-8-8z" stroke="#333" fill="#fff"/><use xlink:href="#J" transform="matrix(1,0,0,1,532,160) translate(28.12999999999999 55.025)"/><use xlink:href="#K" transform="matrix(1,0,0,1,532,160) translate(71.03 55.025)"/><path d="M532 2088c0-4.42 3.58-8 8-8h140c4.42 0 8 3.58 8 8v84c0 4.42-3.58 8-8 8H540c-4.42 0-8-3.58-8-8z" stroke="#333" fill="#fff"/><use xlink:href="#J" transform="matrix(1,0,0,1,532,2080) translate(28.12999999999999 55.025)"/><use xlink:href="#K" transform="matrix(1,0,0,1,532,2080) translate(71.03 55.025)"/><path d="M610 261v5m0 5.02v10m0 5.02v10.02m0 5v10.02m0 5v10.03m0 5.02v10m0 5.02v10.02m0 5v10.02m0 5v10.03m0 5v10.03m0 5v10.03m0 5v10.02m0 5v10.03m0 5v10.03m0 5v10.03m0 5v10.02m0 5v10.02m0 5v10.03m0 5v10.02m0 5v10.03m0 5v10.02m0 5v10.03m0 5v10.02m0 5v10.03m0 5v10.02m0 5v10.03m0 5v10.02m0 5v10.03m0 5v10.02m0 5v10.03m0 5v10.02m0 5v10.03m0 5v10.02m0 5v10.03m0 5v10.02m0 5v10.03m0 5v10.02m0 5v10.03m0 5v10.02m0 5V852m0 5V867m0 5v10.02m0 5v10.03m0 5v10.02m0 5v10.03m0 5v10.02m0 5v10.03m0 5v10.02m0 5v10.03m0 5v10.02m0 5v10.03m0 5v10.02m0 5v10.03m0 5v10.02m0 5v10.03m0 5v10.02m0 5v10.03m0 5v10.02m0 5v10.03m0 5v10.02m0 5v10.03m0 5v10.02m0 5v10.03m0 5v10.02m0 5v10.03m0 5v10.02m0 5v10.02m0 5v10.03m0 5v10.02m0 5v10.02m0 5v10.02m0 5v10.03m0 5v10.02m0 5v10.02m0 5v10.02m0 5v10.03m0 5v10.02m0 5v10.02m0 5v10.02m0 5v10.03m0 5V1468m0 5v10.02m0 5v10.02m0 5v10.03m0 5v10.02m0 5v10.02m0 5v10.02m0 5v10.03m0 5v10.02m0 5v10m0 5.02v10.02m0 5v10.02m0 5v10.03m0 5v10m0 5.02v10.02m0 5v10.02m0 5v10.03m0 5v10m0 5.02v10.02m0 5v10.02m0 5v10.03m0 5v10m0 5.02v10.02m0 5v10.02m0 5v10.03m0 5v10m0 5.02v10.02m0 5v10.02m0 5v10.03m0 5v10m0 5.02v10.02m0 5v10.02m0 5v10.03m0 5v10m0 5.02v10m0 5.02v10.02m0 5v10.02m0 5v10.03m0 5.02v10m0 5.02v10.02m0 5V2069m0 5v5.02" stroke="#333" fill="none"/><path d="M610.5 261h-1v-.5h1zM610.5 2079.5h-1v-.5h1z" stroke="#333" stroke-width=".05" fill="#333"/><path d="M844 168c0-4.42 3.58-8 8-8h140c4.42 0 8 3.58 8 8v84c0 4.42-3.58 8-8 8H852c-4.42 0-8-3.58-8-8z" stroke="#333" fill="#fff"/><use xlink:href="#L" transform="matrix(1,0,0,1,844,160) translate(16.12999999999999 42.525)"/><use xlink:href="#M" transform="matrix(1,0,0,1,844,160) translate(29.12999999999999 64.125)"/><path d="M844 2088c0-4.42 3.58-8 8-8h140c4.42 0 8 3.58 8 8v84c0 4.42-3.58 8-8 8H852c-4.42 0-8-3.58-8-8z" stroke="#333" fill="#fff"/><use xlink:href="#L" transform="matrix(1,0,0,1,844,2080) translate(16.12999999999999 42.525)"/><use xlink:href="#M" transform="matrix(1,0,0,1,844,2080) translate(29.12999999999999 64.125)"/><path d="M922 261v5m0 5.02v10m0 5.02v10.02m0 5v10.02m0 5v10.03m0 5.02v10m0 5.02v10.02m0 5v10.02m0 5v10.03m0 5v10.03m0 5v10.03m0 5v10.02m0 5v10.03m0 5v10.03m0 5v10.03m0 5v10.02m0 5v10.02m0 5v10.03m0 5v10.02m0 5v10.03m0 5v10.02m0 5v10.03m0 5v10.02m0 5v10.03m0 5v10.02m0 5v10.03m0 5v10.02m0 5v10.03m0 5v10.02m0 5v10.03m0 5v10.02m0 5v10.03m0 5v10.02m0 5v10.03m0 5v10.02m0 5v10.03m0 5v10.02m0 5v10.03m0 5v10.02m0 5V852m0 5V867m0 5v10.02m0 5v10.03m0 5v10.02m0 5v10.03m0 5v10.02m0 5v10.03m0 5v10.02m0 5v10.03m0 5v10.02m0 5v10.03m0 5v10.02m0 5v10.03m0 5v10.02m0 5v10.03m0 5v10.02m0 5v10.03m0 5v10.02m0 5v10.03m0 5v10.02m0 5v10.03m0 5v10.02m0 5v10.03m0 5v10.02m0 5v10.03m0 5v10.02m0 5v10.02m0 5v10.03m0 5v10.02m0 5v10.02m0 5v10.02m0 5v10.03m0 5v10.02m0 5v10.02m0 5v10.02m0 5v10.03m0 5v10.02m0 5v10.02m0 5v10.02m0 5v10.03m0 5V1468m0 5v10.02m0 5v10.02m0 5v10.03m0 5v10.02m0 5v10.02m0 5v10.02m0 5v10.03m0 5v10.02m0 5v10m0 5.02v10.02m0 5v10.02m0 5v10.03m0 5v10m0 5.02v10.02m0 5v10.02m0 5v10.03m0 5v10m0 5.02v10.02m0 5v10.02m0 5v10.03m0 5v10m0 5.02v10.02m0 5v10.02m0 5v10.03m0 5v10m0 5.02v10.02m0 5v10.02m0 5v10.03m0 5v10m0 5.02v10.02m0 5v10.02m0 5v10.03m0 5v10m0 5.02v10m0 5.02v10.02m0 5v10.02m0 5v10.03m0 5.02v10m0 5.02v10.02m0 5V2069m0 5v5.02" stroke="#333" fill="none"/><path d="M922.5 261h-1v-.5h1zM922.5 2079.5h-1v-.5h1z" stroke="#333" stroke-width=".05" fill="#333"/><path d="M1156 168c0-4.42 3.58-8 8-8h140c4.42 0 8 3.58 8 8v84c0 4.42-3.58 8-8 8h-140c-4.42 0-8-3.58-8-8z" stroke="#333" fill="#fff"/><use xlink:href="#N" transform="matrix(1,0,0,1,1156,160) translate(5.480000000000013 42.525)"/><use xlink:href="#O" transform="matrix(1,0,0,1,1156,160) translate(23.50499999999999 64.125)"/><path d="M1156 2088c0-4.42 3.58-8 8-8h140c4.42 0 8 3.58 8 8v84c0 4.42-3.58 8-8 8h-140c-4.42 0-8-3.58-8-8z" stroke="#333" fill="#fff"/><use xlink:href="#N" transform="matrix(1,0,0,1,1156,2080) translate(5.480000000000013 42.525)"/><use xlink:href="#O" transform="matrix(1,0,0,1,1156,2080) translate(23.50499999999999 64.125)"/><path d="M1234 261v5m0 5.02v10m0 5.02v10.02m0 5v10.02m0 5v10.03m0 5.02v10m0 5.02v10.02m0 5v10.02m0 5v10.03m0 5v10.03m0 5v10.03m0 5v10.02m0 5v10.03m0 5v10.03m0 5v10.03m0 5v10.02m0 5v10.02m0 5v10.03m0 5v10.02m0 5v10.03m0 5v10.02m0 5v10.03m0 5v10.02m0 5v10.03m0 5v10.02m0 5v10.03m0 5v10.02m0 5v10.03m0 5v10.02m0 5v10.03m0 5v10.02m0 5v10.03m0 5v10.02m0 5v10.03m0 5v10.02m0 5v10.03m0 5v10.02m0 5v10.03m0 5v10.02m0 5V852m0 5V867m0 5v10.02m0 5v10.03m0 5v10.02m0 5v10.03m0 5v10.02m0 5v10.03m0 5v10.02m0 5v10.03m0 5v10.02m0 5v10.03m0 5v10.02m0 5v10.03m0 5v10.02m0 5v10.03m0 5v10.02m0 5v10.03m0 5v10.02m0 5v10.03m0 5v10.02m0 5v10.03m0 5v10.02m0 5v10.03m0 5v10.02m0 5v10.03m0 5v10.02m0 5v10.02m0 5v10.03m0 5v10.02m0 5v10.02m0 5v10.02m0 5v10.03m0 5v10.02m0 5v10.02m0 5v10.02m0 5v10.03m0 5v10.02m0 5v10.02m0 5v10.02m0 5v10.03m0 5V1468m0 5v10.02m0 5v10.02m0 5v10.03m0 5v10.02m0 5v10.02m0 5v10.02m0 5v10.03m0 5v10.02m0 5v10m0 5.02v10.02m0 5v10.02m0 5v10.03m0 5v10m0 5.02v10.02m0 5v10.02m0 5v10.03m0 5v10m0 5.02v10.02m0 5v10.02m0 5v10.03m0 5v10m0 5.02v10.02m0 5v10.02m0 5v10.03m0 5v10m0 5.02v10.02m0 5v10.02m0 5v10.03m0 5v10m0 5.02v10.02m0 5v10.02m0 5v10.03m0 5v10m0 5.02v10m0 5.02v10.02m0 5v10.02m0 5v10.03m0 5.02v10m0 5.02v10.02m0 5V2069m0 5v5.02" stroke="#333" fill="none"/><path d="M1234.5 261h-1v-.5h1zM1234.5 2079.5h-1v-.5h1z" stroke="#333" stroke-width=".05" fill="#333"/><path d="M1468 168c0-4.42 3.58-8 8-8h140c4.42 0 8 3.58 8 8v84c0 4.42-3.58 8-8 8h-140c-4.42 0-8-3.58-8-8z" stroke="#333" fill="#fff"/><use xlink:href="#P" transform="matrix(1,0,0,1,1468,160) translate(50.029999999999994 55.025)"/><path d="M1468 2088c0-4.42 3.58-8 8-8h140c4.42 0 8 3.58 8 8v84c0 4.42-3.58 8-8 8h-140c-4.42 0-8-3.58-8-8z" stroke="#333" fill="#fff"/><use xlink:href="#P" transform="matrix(1,0,0,1,1468,2080) translate(50.029999999999994 55.025)"/><path d="M1546 261v5m0 5.02v10m0 5.02v10.02m0 5v10.02m0 5v10.03m0 5.02v10m0 5.02v10.02m0 5v10.02m0 5v10.03m0 5v10.03m0 5v10.03m0 5v10.02m0 5v10.03m0 5v10.03m0 5v10.03m0 5v10.02m0 5v10.02m0 5v10.03m0 5v10.02m0 5v10.03m0 5v10.02m0 5v10.03m0 5v10.02m0 5v10.03m0 5v10.02m0 5v10.03m0 5v10.02m0 5v10.03m0 5v10.02m0 5v10.03m0 5v10.02m0 5v10.03m0 5v10.02m0 5v10.03m0 5v10.02m0 5v10.03m0 5v10.02m0 5v10.03m0 5v10.02m0 5V852m0 5V867m0 5v10.02m0 5v10.03m0 5v10.02m0 5v10.03m0 5v10.02m0 5v10.03m0 5v10.02m0 5v10.03m0 5v10.02m0 5v10.03m0 5v10.02m0 5v10.03m0 5v10.02m0 5v10.03m0 5v10.02m0 5v10.03m0 5v10.02m0 5v10.03m0 5v10.02m0 5v10.03m0 5v10.02m0 5v10.03m0 5v10.02m0 5v10.03m0 5v10.02m0 5v10.02m0 5v10.03m0 5v10.02m0 5v10.02m0 5v10.02m0 5v10.03m0 5v10.02m0 5v10.02m0 5v10.02m0 5v10.03m0 5v10.02m0 5v10.02m0 5v10.02m0 5v10.03m0 5V1468m0 5v10.02m0 5v10.02m0 5v10.03m0 5v10.02m0 5v10.02m0 5v10.02m0 5v10.03m0 5v10.02m0 5v10m0 5.02v10.02m0 5v10.02m0 5v10.03m0 5v10m0 5.02v10.02m0 5v10.02m0 5v10.03m0 5v10m0 5.02v10.02m0 5v10.02m0 5v10.03m0 5v10m0 5.02v10.02m0 5v10.02m0 5v10.03m0 5v10m0 5.02v10.02m0 5v10.02m0 5v10.03m0 5v10m0 5.02v10.02m0 5v10.02m0 5v10.03m0 5v10m0 5.02v10m0 5.02v10.02m0 5v10.02m0 5v10.03m0 5.02v10m0 5.02v10.02m0 5V2069m0 5v5.02" stroke="#333" fill="none"/><path d="M1546.5 261h-1v-.5h1zM1546.5 2079.5h-1v-.5h1z" stroke="#333" stroke-width=".05" fill="#333"/><path d="M1780 168c0-4.42 3.58-8 8-8h140c4.42 0 8 3.58 8 8v84c0 4.42-3.58 8-8 8h-140c-4.42 0-8-3.58-8-8z" stroke="#333" fill="#fff"/><use xlink:href="#Q" transform="matrix(1,0,0,1,1780,160) translate(41.05499999999999 42.525)"/><use xlink:href="#R" transform="matrix(1,0,0,1,1780,160) translate(32.60499999999999 64.125)"/><path d="M1780 2088c0-4.42 3.58-8 8-8h140c4.42 0 8 3.58 8 8v84c0 4.42-3.58 8-8 8h-140c-4.42 0-8-3.58-8-8z" stroke="#333" fill="#fff"/><use xlink:href="#Q" transform="matrix(1,0,0,1,1780,2080) translate(41.05499999999999 42.525)"/><use xlink:href="#R" transform="matrix(1,0,0,1,1780,2080) translate(32.60499999999999 64.125)"/><path d="M1858 261v5m0 5.02v10m0 5.02v10.02m0 5v10.02m0 5v10.03m0 5.02v10m0 5.02v10.02m0 5v10.02m0 5v10.03m0 5v10.03m0 5v10.03m0 5v10.02m0 5v10.03m0 5v10.03m0 5v10.03m0 5v10.02m0 5v10.02m0 5v10.03m0 5v10.02m0 5v10.03m0 5v10.02m0 5v10.03m0 5v10.02m0 5v10.03m0 5v10.02m0 5v10.03m0 5v10.02m0 5v10.03m0 5v10.02m0 5v10.03m0 5v10.02m0 5v10.03m0 5v10.02m0 5v10.03m0 5v10.02m0 5v10.03m0 5v10.02m0 5v10.03m0 5v10.02m0 5V852m0 5V867m0 5v10.02m0 5v10.03m0 5v10.02m0 5v10.03m0 5v10.02m0 5v10.03m0 5v10.02m0 5v10.03m0 5v10.02m0 5v10.03m0 5v10.02m0 5v10.03m0 5v10.02m0 5v10.03m0 5v10.02m0 5v10.03m0 5v10.02m0 5v10.03m0 5v10.02m0 5v10.03m0 5v10.02m0 5v10.03m0 5v10.02m0 5v10.03m0 5v10.02m0 5v10.02m0 5v10.03m0 5v10.02m0 5v10.02m0 5v10.02m0 5v10.03m0 5v10.02m0 5v10.02m0 5v10.02m0 5v10.03m0 5v10.02m0 5v10.02m0 5v10.02m0 5v10.03m0 5V1468m0 5v10.02m0 5v10.02m0 5v10.03m0 5v10.02m0 5v10.02m0 5v10.02m0 5v10.03m0 5v10.02m0 5v10m0 5.02v10.02m0 5v10.02m0 5v10.03m0 5v10m0 5.02v10.02m0 5v10.02m0 5v10.03m0 5v10m0 5.02v10.02m0 5v10.02m0 5v10.03m0 5v10m0 5.02v10.02m0 5v10.02m0 5v10.03m0 5v10m0 5.02v10.02m0 5v10.02m0 5v10.03m0 5v10m0 5.02v10.02m0 5v10.02m0 5v10.03m0 5v10m0 5.02v10m0 5.02v10.02m0 5v10.02m0 5v10.03m0 5.02v10m0 5.02v10.02m0 5V2069m0 5v5.02" stroke="#333" fill="none"/><path d="M1858.5 261h-1v-.5h1zM1858.5 2079.5h-1v-.5h1z" stroke="#333" stroke-width=".05" fill="#333"/><path d="M2092 168c0-4.42 3.58-8 8-8h140c4.42 0 8 3.58 8 8v84c0 4.42-3.58 8-8 8h-140c-4.42 0-8-3.58-8-8z" stroke="#333" fill="#fff"/><use xlink:href="#S" transform="matrix(1,0,0,1,2092,160) translate(10.25499999999999 55.025)"/><use xlink:href="#T" transform="matrix(1,0,0,1,2092,160) translate(55.05499999999999 55.025)"/><path d="M2092 2088c0-4.42 3.58-8 8-8h140c4.42 0 8 3.58 8 8v84c0 4.42-3.58 8-8 8h-140c-4.42 0-8-3.58-8-8z" stroke="#333" fill="#fff"/><use xlink:href="#S" transform="matrix(1,0,0,1,2092,2080) translate(10.25499999999999 55.025)"/><use xlink:href="#T" transform="matrix(1,0,0,1,2092,2080) translate(55.05499999999999 55.025)"/><path d="M2170 261v5m0 5.02v10m0 5.02v10.02m0 5v10.02m0 5v10.03m0 5.02v10m0 5.02v10.02m0 5v10.02m0 5v10.03m0 5v10.03m0 5v10.03m0 5v10.02m0 5v10.03m0 5v10.03m0 5v10.03m0 5v10.02m0 5v10.02m0 5v10.03m0 5v10.02m0 5v10.03m0 5v10.02m0 5v10.03m0 5v10.02m0 5v10.03m0 5v10.02m0 5v10.03m0 5v10.02m0 5v10.03m0 5v10.02m0 5v10.03m0 5v10.02m0 5v10.03m0 5v10.02m0 5v10.03m0 5v10.02m0 5v10.03m0 5v10.02m0 5v10.03m0 5v10.02m0 5V852m0 5V867m0 5v10.02m0 5v10.03m0 5v10.02m0 5v10.03m0 5v10.02m0 5v10.03m0 5v10.02m0 5v10.03m0 5v10.02m0 5v10.03m0 5v10.02m0 5v10.03m0 5v10.02m0 5v10.03m0 5v10.02m0 5v10.03m0 5v10.02m0 5v10.03m0 5v10.02m0 5v10.03m0 5v10.02m0 5v10.03m0 5v10.02m0 5v10.03m0 5v10.02m0 5v10.02m0 5v10.03m0 5v10.02m0 5v10.02m0 5v10.02m0 5v10.03m0 5v10.02m0 5v10.02m0 5v10.02m0 5v10.03m0 5v10.02m0 5v10.02m0 5v10.02m0 5v10.03m0 5V1468m0 5v10.02m0 5v10.02m0 5v10.03m0 5v10.02m0 5v10.02m0 5v10.02m0 5v10.03m0 5v10.02m0 5v10m0 5.02v10.02m0 5v10.02m0 5v10.03m0 5v10m0 5.02v10.02m0 5v10.02m0 5v10.03m0 5v10m0 5.02v10.02m0 5v10.02m0 5v10.03m0 5v10m0 5.02v10.02m0 5v10.02m0 5v10.03m0 5v10m0 5.02v10.02m0 5v10.02m0 5v10.03m0 5v10m0 5.02v10.02m0 5v10.02m0 5v10.03m0 5v10m0 5.02v10m0 5.02v10.02m0 5v10.02m0 5v10.03m0 5.02v10m0 5.02v10.02m0 5V2069m0 5v5.02" stroke="#333" fill="none"/><path d="M2170.5 261h-1v-.5h1zM2170.5 2079.5h-1v-.5h1z" stroke="#333" stroke-width=".05" fill="#333"/><path d="M2404 168c0-4.42 3.58-8 8-8h140c4.42 0 8 3.58 8 8v84c0 4.42-3.58 8-8 8h-140c-4.42 0-8-3.58-8-8z" stroke="#333" fill="#fff"/><use xlink:href="#U" transform="matrix(1,0,0,1,2404,160) translate(54.105 55.025)"/><path d="M2404 2088c0-4.42 3.58-8 8-8h140c4.42 0 8 3.58 8 8v84c0 4.42-3.58 8-8 8h-140c-4.42 0-8-3.58-8-8z" stroke="#333" fill="#fff"/><use xlink:href="#U" transform="matrix(1,0,0,1,2404,2080) translate(54.105 55.025)"/><path d="M2482 261v5m0 5.02v10m0 5.02v10.02m0 5v10.02m0 5v10.03m0 5.02v10m0 5.02v10.02m0 5v10.02m0 5v10.03m0 5v10.03m0 5v10.03m0 5v10.02m0 5v10.03m0 5v10.03m0 5v10.03m0 5v10.02m0 5v10.02m0 5v10.03m0 5v10.02m0 5v10.03m0 5v10.02m0 5v10.03m0 5v10.02m0 5v10.03m0 5v10.02m0 5v10.03m0 5v10.02m0 5v10.03m0 5v10.02m0 5v10.03m0 5v10.02m0 5v10.03m0 5v10.02m0 5v10.03m0 5v10.02m0 5v10.03m0 5v10.02m0 5v10.03m0 5v10.02m0 5V852m0 5V867m0 5v10.02m0 5v10.03m0 5v10.02m0 5v10.03m0 5v10.02m0 5v10.03m0 5v10.02m0 5v10.03m0 5v10.02m0 5v10.03m0 5v10.02m0 5v10.03m0 5v10.02m0 5v10.03m0 5v10.02m0 5v10.03m0 5v10.02m0 5v10.03m0 5v10.02m0 5v10.03m0 5v10.02m0 5v10.03m0 5v10.02m0 5v10.03m0 5v10.02m0 5v10.02m0 5v10.03m0 5v10.02m0 5v10.02m0 5v10.02m0 5v10.03m0 5v10.02m0 5v10.02m0 5v10.02m0 5v10.03m0 5v10.02m0 5v10.02m0 5v10.02m0 5v10.03m0 5V1468m0 5v10.02m0 5v10.02m0 5v10.03m0 5v10.02m0 5v10.02m0 5v10.02m0 5v10.03m0 5v10.02m0 5v10m0 5.02v10.02m0 5v10.02m0 5v10.03m0 5v10m0 5.02v10.02m0 5v10.02m0 5v10.03m0 5v10m0 5.02v10.02m0 5v10.02m0 5v10.03m0 5v10m0 5.02v10.02m0 5v10.02m0 5v10.03m0 5v10m0 5.02v10.02m0 5v10.02m0 5v10.03m0 5v10m0 5.02v10.02m0 5v10.02m0 5v10.03m0 5v10m0 5.02v10m0 5.02v10.02m0 5v10.02m0 5v10.03m0 5.02v10m0 5.02v10.02m0 5V2069m0 5v5.02" stroke="#333" fill="none"/><path d="M2482.5 261h-1v-.5h1zM2482.5 2079.5h-1v-.5h1z" stroke="#333" stroke-width=".05" fill="#333"/><path d="M272 308.48c0-4.42 3.58-8 8-8h24c4.42 0 8 3.58 8 8V2071.5c0 4.42-3.58 8-8 8h-24c-4.42 0-8-3.58-8-8zM584 308.48c0-4.42 3.58-8 8-8h24c4.42 0 8 3.58 8 8V2071.5c0 4.42-3.58 8-8 8h-24c-4.42 0-8-3.58-8-8zM896 308.48c0-4.42 3.58-8 8-8h24c4.42 0 8 3.58 8 8V2071.5c0 4.42-3.58 8-8 8h-24c-4.42 0-8-3.58-8-8zM1208 308.48c0-4.42 3.58-8 8-8h24c4.42 0 8 3.58 8 8V2071.5c0 4.42-3.58 8-8 8h-24c-4.42 0-8-3.58-8-8zM1520 308.48c0-4.42 3.58-8 8-8h24c4.42 0 8 3.58 8 8V2071.5c0 4.42-3.58 8-8 8h-24c-4.42 0-8-3.58-8-8zM1832 308.48c0-4.42 3.58-8 8-8h24c4.42 0 8 3.58 8 8V2071.5c0 4.42-3.58 8-8 8h-24c-4.42 0-8-3.58-8-8zM2144 308.48c0-4.42 3.58-8 8-8h24c4.42 0 8 3.58 8 8V2071.5c0 4.42-3.58 8-8 8h-24c-4.42 0-8-3.58-8-8zM2456 308.48c0-4.42 3.58-8 8-8h24c4.42 0 8 3.58 8 8V2071.5c0 4.42-3.58 8-8 8h-24c-4.42 0-8-3.58-8-8z" stroke="#333" fill="#fff"/><path d="M312.5 360.45h2127.12" stroke="#333" fill="none"/><path d="M312.5 360.95v-1z" stroke="#333" stroke-width=".05" fill="#333"/><path d="M2454.38 360.45l-14.26 4.63v-9.27z" stroke="#333" fill="#333"/><use xlink:href="#V" transform="matrix(1,0,0,1,1351.575,334.8450549450549) translate(0.005000000000002558 14.4)"/><path d="M2455.5 420.4h-5m-5 0h-9.97m-5 0h-9.98m-5 0h-9.98m-5 0h-9.98m-5 0h-10m-4.98 0h-10m-4.98 0h-10m-4.98 0h-10m-4.98 0h-10m-4.98 0h-10m-4.98 0h-10m-4.98 0h-10m-4.98 0h-10m-4.98 0h-10m-4.98 0h-10m-4.98 0h-10m-4.98 0h-10m-4.98 0h-10m-4.98 0h-10m-4.98 0h-10m-4.98 0h-10m-4.98 0h-10m-4.98 0h-10m-4.98 0h-10m-4.98 0h-10m-4.98 0h-10m-4.98 0h-9.98m-5 0h-9.98m-5 0h-9.98m-5 0h-9.98m-5 0h-9.98m-5 0h-9.98m-5 0h-9.98m-5 0h-9.98m-5 0h-9.98m-5 0h-9.98m-5 0h-9.98m-5 0h-9.98m-5 0h-9.98m-5 0h-9.98m-5 0h-9.98m-5 0h-9.98m-5 0h-9.98m-5 0h-9.98m-5 0h-9.98m-5 0h-9.98m-5 0h-9.98m-5 0h-9.98m-5 0h-9.98m-5 0h-9.98m-5 0h-9.98m-5 0h-9.98m-5 0h-9.98m-5 0h-9.98m-5 0h-9.98m-5 0h-9.98m-5 0h-9.98m-5 0h-9.98m-5 0h-9.97m-5 0h-9.97m-5 0h-9.98m-5 0h-9.98m-5 0h-9.98m-5 0h-10m-5 0h-9.97m-5 0h-9.98m-5 0h-9.98m-5 0h-9.98m-5 0h-10m-5 0h-9.97m-5 0h-9.98m-5 0h-9.98m-5 0H1357m-5 0h-10m-4.98 0h-10m-4.98 0h-10m-4.98 0h-10m-4.98 0h-10m-4.98 0h-10m-4.98 0h-10m-4.98 0h-10m-4.98 0h-10m-4.98 0h-10m-4.98 0h-10m-4.98 0h-10m-4.98 0h-10m-4.98 0h-10m-4.98 0h-10m-4.98 0h-10m-4.98 0h-10m-4.98 0h-10m-4.98 0h-9.98m-5 0h-9.98m-5 0h-9.98m-5 0h-9.98m-5 0h-9.98m-5 0h-9.98m-5 0h-9.98m-5 0h-9.98m-5 0h-9.98m-5 0h-9.98m-5 0h-9.98m-5 0h-9.98m-5 0h-9.98m-5 0h-9.98m-5 0h-9.98m-5 0h-9.98m-5 0h-9.98m-5 0h-9.98m-5 0h-9.98m-5 0h-9.98m-5 0h-9.98m-5 0h-9.98m-5 0h-9.98m-5 0h-9.98m-5 0h-9.98m-5 0h-9.98m-5 0h-9.98m-5 0h-9.98m-5 0h-9.98m-5 0h-9.98m-5 0H623m-5 0H608m-5 0h-9.97m-5 0h-9.98m-5 0h-9.98m-5 0h-9.98m-5 0h-10m-5 0h-9.97m-5 0h-9.98m-5 0h-9.98m-5 0h-9.98m-5 0h-10m-5 0h-9.97m-5 0h-9.98m-5 0h-9.98m-5 0h-9.98m-5 0h-10m-4.98 0h-10m-4.98 0h-10m-4.98 0h-10m-4.98 0h-5" stroke="#333" fill="none"/><path d="M2455.5 420.9v-1z" stroke="#333" stroke-width=".05" fill="#333"/><path d="M313.62 420.4l14.26-4.62v9.27z" stroke="#333" fill="#333"/><use xlink:href="#W" transform="matrix(1,0,0,1,1361.575,394.8120879120879) translate(0.004999999999999005 14.4)"/><path d="M312.5 480.38h1191.12" stroke="#333" fill="none"/><path d="M312.5 480.88v-1z" stroke="#333" stroke-width=".05" fill="#333"/><path d="M1518.38 480.38l-14.26 4.63v-9.26z" stroke="#333" fill="#333"/><use xlink:href="#X" transform="matrix(1,0,0,1,837.8249999999999,454.7791208791208) translate(0.0049999999999954525 14.4)"/><use xlink:href="#Y" transform="matrix(1,0,0,1,837.8249999999999,454.7791208791208) translate(105.55499999999999 14.4)"/><path d="M1519.5 540.35h-5.03m-5.02 0h-10.05m-5.03 0h-10.05m-5.03 0h-10.06m-5.02 0h-10.06m-5.02 0h-10.05m-5.04 0H1424m-5.02 0h-10.05m-5.02 0h-10.05m-5.02 0h-10.05m-5.03 0h-10.05m-5.03 0h-10.05m-5.02 0h-10.05m-5.03 0h-10.05m-5.03 0h-10.05m-5.04 0h-10.05m-5 0h-10.06m-5.03 0h-10.04m-5.03 0h-10.05m-5.03 0H1228m-5.02 0h-10.05m-5.03 0h-10.05m-5.03 0h-10.05m-5.02 0h-10.06m-5.03 0h-10.05m-5.03 0h-10.06m-5.03 0h-10.04m-5.02 0h-10.06m-5.02 0h-10.05m-5.02 0h-10.05m-5.03 0h-10.05m-5.02 0h-10.06m-5.02 0H1032m-5.03 0h-10.05m-5.03 0h-10.06m-5.02 0h-10.06m-5.02 0H971.7m-5.04 0H956.6m-5.02 0h-10.05m-5.02 0h-10.05m-5.02 0h-10.05m-5.03 0H896.3m-5.03 0h-10.05m-5.02 0h-10.05m-5.03 0h-10.05m-5.03 0H836m-5.04 0H820.9m-5 0h-10.06m-5.03 0h-10.04m-5.03 0h-10.05m-5.03 0H760.6m-5.02 0h-10.05m-5.03 0h-10.05m-5.03 0h-10.05m-5.02 0H700.3m-5.03 0h-10.05m-5.03 0h-10.06m-5.03 0h-10.04m-5.02 0h-10.06m-5.02 0H624.9m-5.02 0h-10.05m-5.03 0h-10.05m-5.02 0h-10.06m-5.02 0H564.6m-5.03 0h-10.05m-5.03 0h-10.06m-5.02 0h-10.06m-5.02 0H504.3m-5.04 0H489.2m-5.02 0h-10.05m-5.02 0h-10.05m-5.02 0h-10.05m-5.03 0H428.9m-5.03 0h-10.05m-5.02 0h-10.05m-5.03 0h-10.05m-5.03 0H368.6m-5.04 0H353.5m-5 0h-10.06m-5.03 0h-5.02" stroke="#333" fill="none"/><path d="M1519.5 540.85v-1z" stroke="#333" stroke-width=".05" fill="#333"/><path d="M313.62 540.35l14.26-4.64V545z" stroke="#333" fill="#333"/><use xlink:href="#Z" transform="matrix(1,0,0,1,889.025,514.7461538461539) translate(0.004999999999999005 14.4)"/><path d="M312.5 600.3h879.12" stroke="#333" fill="none"/><path d="M312.5 600.8v-1z" stroke="#333" stroke-width=".05" fill="#333"/><path d="M1206.38 600.3l-14.26 4.65v-9.27z" stroke="#333" fill="#333"/><use xlink:href="#aa" transform="matrix(1,0,0,1,718.625,574.7131868131869) translate(0.005000000000002558 14.4)"/><path d="M1207.5 660.28h-4.97m-4.96 0h-9.94m-4.96 0h-9.94m-4.96 0h-9.94m-4.96 0h-9.94m-4.96 0h-9.94m-4.96 0h-9.94m-4.97 0h-9.93m-4.97 0h-9.93m-4.97 0h-9.93m-4.97 0h-9.93m-4.97 0h-9.93m-4.97 0h-9.93m-4.97 0h-9.93m-4.97 0h-9.93m-4.97 0h-9.93m-4.97 0h-9.93m-4.97 0h-9.93m-4.97 0h-9.93m-4.97 0h-9.93m-4.97 0h-9.93m-4.97 0h-9.93m-4.97 0h-9.93m-4.97 0h-9.93m-4.97 0h-9.93m-4.97 0h-9.93m-4.97 0h-9.93m-4.97 0h-9.93m-4.97 0h-9.93m-4.97 0h-9.93m-4.97 0h-9.93m-4.97 0h-9.94m-4.96 0h-9.94m-4.96 0h-9.94m-4.96 0h-9.94m-4.96 0h-9.94m-4.96 0h-9.94m-4.96 0h-9.94m-4.96 0h-9.94m-4.96 0h-9.94m-4.96 0h-9.94m-4.96 0h-9.94m-4.96 0h-9.94m-4.96 0h-9.94m-4.97 0h-9.93m-4.97 0h-9.93m-4.97 0h-9.93m-4.97 0h-9.93m-4.97 0h-9.93m-4.97 0h-9.93m-4.97 0h-9.93m-4.97 0h-9.93m-4.97 0h-9.93m-4.97 0h-9.93m-4.97 0h-9.93m-4.97 0h-9.93m-4.97 0h-9.93m-4.97 0h-9.93m-4.97 0h-9.93m-4.97 0h-4.97" stroke="#333" fill="none"/><path d="M1207.5 660.78v-1z" stroke="#333" stroke-width=".05" fill="#333"/><path d="M313.62 660.28l14.26-4.64v9.28z" stroke="#333" fill="#333"/><use xlink:href="#ab" transform="matrix(1,0,0,1,714.1,634.6802197802198) translate(0.005000000000002558 14.4)"/><path d="M312.5 720.25h567.12" stroke="#333" fill="none"/><path d="M312.5 720.75v-1z" stroke="#333" stroke-width=".05" fill="#333"/><path d="M894.38 720.25l-14.26 4.63v-9.27z" stroke="#333" fill="#333"/><use xlink:href="#ac" transform="matrix(1,0,0,1,503.7,694.6472527472529) translate(0.0049999999999954525 14.4)"/><use xlink:href="#ad" transform="matrix(1,0,0,1,503.7,694.6472527472529) translate(102.855 14.4)"/><path d="M895.5 780.2h-4.97m-4.98 0h-9.95m-4.97 0h-9.95m-4.98 0h-9.95m-4.97 0h-9.95m-4.98 0h-9.95m-4.97 0h-9.95m-4.97 0h-9.94m-4.98 0h-9.95m-4.97 0h-9.95m-4.97 0h-9.95m-4.97 0h-9.94m-4.97 0h-9.96m-4.98 0h-9.95m-4.96 0h-9.95m-5 0h-9.94m-4.97 0h-9.96m-4.98 0h-9.94m-4.98 0h-9.95m-4.98 0h-9.95m-4.98 0h-9.96m-4.97 0h-9.95m-4.98 0h-9.95m-4.98 0h-9.95m-4.97 0h-9.95m-4.98 0h-9.95m-4.97 0h-9.95m-4.98 0h-9.95m-4.97 0h-9.95m-4.97 0h-9.95m-4.98 0h-9.95m-4.97 0h-9.95m-4.98 0h-9.95m-4.97 0h-9.95m-4.97 0h-9.95m-4.97 0h-9.95m-4.97 0h-9.94m-4.98 0h-9.95m-4.97 0h-4.98" stroke="#333" fill="none"/><path d="M895.5 780.7v-1z" stroke="#333" stroke-width=".05" fill="#333"/><path d="M313.62 780.2l14.26-4.62v9.27z" stroke="#333" fill="#333"/><use xlink:href="#ae" transform="matrix(1,0,0,1,564.575,754.6142857142858) translate(0.005000000000002558 14.4)"/><path d="M312.5 840.18h567.12" stroke="#333" fill="none"/><path d="M312.5 840.68v-1z" stroke="#333" stroke-width=".05" fill="#333"/><path d="M894.38 840.18l-14.26 4.64v-9.27z" stroke="#333" fill="#333"/><use xlink:href="#af" transform="matrix(1,0,0,1,510.85,814.5813186813186) translate(0.0049999999999954525 14.4)"/><path d="M936.5 900.15h567.12" stroke="#333" fill="none"/><path d="M936.5 900.65v-1z" stroke="#333" stroke-width=".05" fill="#333"/><path d="M1518.38 900.15l-14.26 4.63v-9.27z" stroke="#333" fill="#333"/><use xlink:href="#ag" transform="matrix(1,0,0,1,1163.075,874.5483516483517) translate(0.0049999999999954525 14.4)"/><path d="M1560.5 960.12h255.12" stroke="#333" fill="none"/><path d="M1560.5 960.62v-1z" stroke="#333" stroke-width=".05" fill="#333"/><path d="M1830.38 960.12l-14.26 4.63v-9.27z" stroke="#333" fill="#333"/><use xlink:href="#ah" transform="matrix(1,0,0,1,1645.25,934.5153846153847) translate(0.005000000000002558 14.4)"/><path d="M1831.5 1020.08h-5m-5 0h-10m-5 0h-10.02m-5 0h-10m-5 0h-10m-5 0h-10.02m-5 0h-10m-5 0h-10m-5 0h-10.02m-5 0h-10m-5 0h-10m-5 0h-10.02m-5 0h-10m-5 0h-10m-5 0h-10.02m-5 0h-10m-5 0h-10m-5 0h-5.02" stroke="#333" fill="none"/><path d="M1831.5 1020.58v-1z" stroke="#333" stroke-width=".05" fill="#333"/><path d="M1561.62 1020.08l14.26-4.63v9.27z" stroke="#333" fill="#333"/><use xlink:href="#ai" transform="matrix(1,0,0,1,1660.55,994.4824175824177) translate(0.005000000000002558 14.4)"/><path d="M1519.5 1080.05h-4.97m-4.98 0h-9.95m-4.97 0h-9.95m-4.98 0h-9.95m-4.97 0h-9.95m-4.98 0h-9.95m-4.97 0h-9.95m-4.97 0h-9.94m-4.98 0h-9.95m-4.97 0h-9.95m-4.97 0h-9.95m-4.97 0h-9.94m-4.97 0h-9.96m-4.98 0h-9.95m-4.96 0h-9.95m-5 0h-9.94m-4.97 0h-9.96m-4.98 0h-9.94m-4.98 0h-9.95m-4.98 0h-9.95m-4.98 0h-9.96m-4.97 0h-9.95m-4.98 0h-9.95m-4.98 0h-9.95m-4.97 0h-9.95m-4.98 0h-9.95m-4.97 0h-9.95m-4.98 0h-9.95m-4.97 0h-9.95m-4.97 0h-9.95m-4.98 0h-9.95m-4.97 0h-9.95m-4.98 0h-9.95m-4.97 0h-9.95m-4.97 0h-9.95m-4.97 0h-9.95m-4.97 0h-9.94m-4.98 0h-9.95m-4.97 0h-4.98" stroke="#333" fill="none"/><path d="M1519.5 1080.55v-1z" stroke="#333" stroke-width=".05" fill="#333"/><path d="M937.62 1080.05l14.26-4.64v9.28z" stroke="#333" fill="#333"/><use xlink:href="#Z" transform="matrix(1,0,0,1,1201.025,1054.4494505494504) translate(0.004999999999999005 14.4)"/><path d="M936.5 1140.02h567.12" stroke="#333" fill="none"/><path d="M936.5 1140.52v-1z" stroke="#333" stroke-width=".05" fill="#333"/><path d="M1518.38 1140.02l-14.26 4.63v-9.27z" stroke="#333" fill="#333"/><use xlink:href="#aj" transform="matrix(1,0,0,1,1140.15,1114.4164835164834) translate(0.0049999999999954525 14.4)"/><use xlink:href="#ak" transform="matrix(1,0,0,1,1140.15,1114.4164835164834) translate(124.805 14.4)"/><use xlink:href="#al" transform="matrix(1,0,0,1,1140.15,1114.4164835164834) translate(148.755 14.4)"/><use xlink:href="#am" transform="matrix(1,0,0,1,1140.15,1114.4164835164834) translate(163.755 14.4)"/><path d="M1561 1200.23h254.12" stroke="#333" fill="none"/><path d="M1561 1200.73h-.5v-1h.5z" stroke="#333" stroke-width=".05" fill="#333"/><path d="M1829.88 1200.23l-14.26 4.64v-9.27z" stroke="#333" fill="#333"/><use xlink:href="#an" transform="matrix(1,0,0,1,1599.675,1174.6333791208795) translate(0.0049999999999954525 14.4)"/><use xlink:href="#ak" transform="matrix(1,0,0,1,1599.675,1174.6333791208795) translate(141.755 14.4)"/><use xlink:href="#al" transform="matrix(1,0,0,1,1599.675,1174.6333791208795) translate(165.70499999999998 14.4)"/><use xlink:href="#am" transform="matrix(1,0,0,1,1599.675,1174.6333791208795) translate(180.70499999999998 14.4)"/><path d="M1872.5 1259.95h255.12" stroke="#333" fill="none"/><path d="M1872.5 1260.45v-1z" stroke="#333" stroke-width=".05" fill="#333"/><path d="M2142.38 1259.95l-14.26 4.64v-9.28z" stroke="#333" fill="#333"/><use xlink:href="#ao" transform="matrix(1,0,0,1,1933.15,1234.3505494505498) translate(0.0049999999999954525 14.4)"/><use xlink:href="#ak" transform="matrix(1,0,0,1,1933.15,1234.3505494505498) translate(98.805 14.4)"/><use xlink:href="#al" transform="matrix(1,0,0,1,1933.15,1234.3505494505498) translate(122.75500000000001 14.4)"/><use xlink:href="#am" transform="matrix(1,0,0,1,1933.15,1234.3505494505498) translate(137.755 14.4)"/><path d="M2143.5 1319.92h-5m-5 0h-10m-5 0h-10.02m-5 0h-10m-5 0h-10m-5 0h-10.02m-5 0h-10m-5 0h-10m-5 0h-10.02m-5 0h-10m-5 0h-10m-5 0h-10.02m-5 0h-10m-5 0h-10m-5 0h-10.02m-5 0h-10m-5 0h-10m-5 0h-5.02" stroke="#333" fill="none"/><path d="M2143.5 1320.42v-1z" stroke="#333" stroke-width=".05" fill="#333"/><path d="M1873.62 1319.92l14.26-4.64v9.27z" stroke="#333" fill="#333"/><use xlink:href="#ai" transform="matrix(1,0,0,1,1972.55,1294.3175824175826) translate(0.005000000000002558 14.4)"/><path d="M1831.5 1379.88h-5m-5 0h-10m-5 0h-10.02m-5 0h-10m-5 0h-10m-5 0h-10.02m-5 0h-10m-5 0h-10m-5 0h-10.02m-5 0h-10m-5 0h-10m-5 0h-10.02m-5 0h-10m-5 0h-10m-5 0h-10.02m-5 0h-10m-5 0h-10m-5 0h-5.02" stroke="#333" fill="none"/><path d="M1831.5 1380.38v-1z" stroke="#333" stroke-width=".05" fill="#333"/><path d="M1561.62 1379.88l14.26-4.63v9.27z" stroke="#333" fill="#333"/><g><use xlink:href="#ai" transform="matrix(1,0,0,1,1660.55,1354.2846153846153) translate(0.005000000000002558 14.4)"/></g><path d="M1519.5 1439.85h-4.97m-4.98 0h-9.95m-4.97 0h-9.95m-4.98 0h-9.95m-4.97 0h-9.95m-4.98 0h-9.95m-4.97 0h-9.95m-4.97 0h-9.94m-4.98 0h-9.95m-4.97 0h-9.95m-4.97 0h-9.95m-4.97 0h-9.94m-4.97 0h-9.96m-4.98 0h-9.95m-4.96 0h-9.95m-5 0h-9.94m-4.97 0h-9.96m-4.98 0h-9.94m-4.98 0h-9.95m-4.98 0h-9.95m-4.98 0h-9.96m-4.97 0h-9.95m-4.98 0h-9.95m-4.98 0h-9.95m-4.97 0h-9.95m-4.98 0h-9.95m-4.97 0h-9.95m-4.98 0h-9.95m-4.97 0h-9.95m-4.97 0h-9.95m-4.98 0h-9.95m-4.97 0h-9.95m-4.98 0h-9.95m-4.97 0h-9.95m-4.97 0h-9.95m-4.97 0h-9.95m-4.97 0h-9.94m-4.98 0h-9.95m-4.97 0h-4.98" stroke="#333" fill="none"/><path d="M1519.5 1440.35v-1z" stroke="#333" stroke-width=".05" fill="#333"/><path d="M937.62 1439.85l14.26-4.63v9.27z" stroke="#333" fill="#333"/><g><use xlink:href="#Z" transform="matrix(1,0,0,1,1201.025,1414.2516483516483) translate(0.004999999999999005 14.4)"/></g><path d="M936.5 1499.82h567.12" stroke="#333" fill="none"/><path d="M936.5 1500.32v-1z" stroke="#333" stroke-width=".05" fill="#333"/><path d="M1518.38 1499.82l-14.26 4.63v-9.27z" stroke="#333" fill="#333"/><g><use xlink:href="#ap" transform="matrix(1,0,0,1,1167.6,1474.218681318681) translate(0.005000000000002558 14.4)"/></g><path d="M1560.5 1559.8h879.12" stroke="#333" fill="none"/><path d="M1560.5 1560.3v-1z" stroke="#333" stroke-width=".05" fill="#333"/><path d="M2454.38 1559.8l-14.26 4.62v-9.27z" stroke="#333" fill="#333"/><g><use xlink:href="#aq" transform="matrix(1,0,0,1,1929.2,1534.1857142857143) translate(0.0049999999999954525 14.4)"/></g><path d="M2455.5 1619.75h-4.97m-4.96 0h-9.94m-4.96 0h-9.94m-4.96 0h-9.94m-4.96 0h-9.94m-4.96 0h-9.94m-4.96 0h-9.94m-4.97 0h-9.93m-4.97 0h-9.93m-4.97 0h-9.93m-4.97 0h-9.93m-4.97 0h-9.93m-4.97 0h-9.93m-4.97 0h-9.93m-4.97 0h-9.93m-4.97 0h-9.93m-4.97 0h-9.93m-4.97 0h-9.93m-4.97 0h-9.93m-4.97 0h-9.93m-4.97 0h-9.93m-4.97 0h-9.93m-4.97 0h-9.93m-4.97 0h-9.93m-4.97 0h-9.93m-4.97 0h-9.93m-4.97 0h-9.93m-4.97 0h-9.93m-4.97 0h-9.93m-4.97 0h-9.93m-4.97 0h-9.93m-4.97 0h-9.94m-4.96 0h-9.94m-4.96 0h-9.94m-4.96 0h-9.94m-4.96 0h-9.94m-4.96 0h-9.94m-4.96 0h-9.94m-4.96 0h-9.94m-4.96 0h-9.94m-4.96 0h-9.94m-4.96 0h-9.94m-4.96 0h-9.94m-4.96 0h-9.94m-4.97 0h-9.93m-4.97 0h-9.93m-4.97 0h-9.93m-4.97 0h-9.93m-4.97 0h-9.93m-4.97 0h-9.93m-4.97 0h-9.93m-4.97 0h-9.93m-4.97 0h-9.93m-4.97 0h-9.93m-4.97 0h-9.93m-4.97 0h-9.93m-4.97 0h-9.93m-4.97 0h-9.93m-4.97 0h-9.93m-4.97 0h-4.97" stroke="#333" fill="none"/><path d="M2455.5 1620.25v-1z" stroke="#333" stroke-width=".05" fill="#333"/><path d="M1561.62 1619.75l14.26-4.63v9.27z" stroke="#333" fill="#333"/><g><use xlink:href="#ar" transform="matrix(1,0,0,1,1980.025,1594.1527472527473) translate(0.004999999999999005 14.4)"/><use xlink:href="#ak" transform="matrix(1,0,0,1,1980.025,1594.1527472527473) translate(11.004999999999999 14.4)"/><use xlink:href="#al" transform="matrix(1,0,0,1,1980.025,1594.1527472527473) translate(34.955 14.4)"/><use xlink:href="#as" transform="matrix(1,0,0,1,1980.025,1594.1527472527473) translate(49.955 14.4)"/></g><path d="M1519.5 1679.72h-4.97m-4.98 0h-9.95m-4.97 0h-9.95m-4.98 0h-9.95m-4.97 0h-9.95m-4.98 0h-9.95m-4.97 0h-9.95m-4.97 0h-9.94m-4.98 0h-9.95m-4.97 0h-9.95m-4.97 0h-9.95m-4.97 0h-9.94m-4.97 0h-9.96m-4.98 0h-9.95m-4.96 0h-9.95m-5 0h-9.94m-4.97 0h-9.96m-4.98 0h-9.94m-4.98 0h-9.95m-4.98 0h-9.95m-4.98 0h-9.96m-4.97 0h-9.95m-4.98 0h-9.95m-4.98 0h-9.95m-4.97 0h-9.95m-4.98 0h-9.95m-4.97 0h-9.95m-4.98 0h-9.95m-4.97 0h-9.95m-4.97 0h-9.95m-4.98 0h-9.95m-4.97 0h-9.95m-4.98 0h-9.95m-4.97 0h-9.95m-4.97 0h-9.95m-4.97 0h-9.95m-4.97 0h-9.94m-4.98 0h-9.95m-4.97 0h-4.98" stroke="#333" fill="none"/><path d="M1519.5 1680.22v-1z" stroke="#333" stroke-width=".05" fill="#333"/><path d="M937.62 1679.72l14.26-4.64v9.28z" stroke="#333" fill="#333"/><g><use xlink:href="#ar" transform="matrix(1,0,0,1,1200.025,1654.1197802197803) translate(0.004999999999999005 14.4)"/><use xlink:href="#ak" transform="matrix(1,0,0,1,1200.025,1654.1197802197803) translate(11.004999999999999 14.4)"/><use xlink:href="#al" transform="matrix(1,0,0,1,1200.025,1654.1197802197803) translate(34.955 14.4)"/><use xlink:href="#as" transform="matrix(1,0,0,1,1200.025,1654.1197802197803) translate(49.955 14.4)"/></g><path d="M936.5 1739.7h255.12" stroke="#333" fill="none"/><path d="M936.5 1740.2v-1z" stroke="#333" stroke-width=".05" fill="#333"/><path d="M1206.38 1739.7l-14.26 4.62v-9.27z" stroke="#333" fill="#333"/><g><use xlink:href="#at" transform="matrix(1,0,0,1,975.175,1714.0868131868133) translate(0.0049999999999954525 14.4)"/><use xlink:href="#ak" transform="matrix(1,0,0,1,975.175,1714.0868131868133) translate(142.755 14.4)"/><use xlink:href="#al" transform="matrix(1,0,0,1,975.175,1714.0868131868133) translate(166.70499999999998 14.4)"/><use xlink:href="#am" transform="matrix(1,0,0,1,975.175,1714.0868131868133) translate(181.70499999999998 14.4)"/></g><path d="M1207.5 1799.65H640.38" stroke="#333" fill="none"/><path d="M1207.5 1800.15v-1z" stroke="#333" stroke-width=".05" fill="#333"/><path d="M625.62 1799.65l14.26-4.63v9.27z" stroke="#333" fill="#333"/><g><use xlink:href="#au" transform="matrix(1,0,0,1,899.525,1774.053846153846) translate(0.004999999999999005 14.4)"/></g><path d="M624.5 1859.62h4.97m4.98 0h9.95m4.97 0h9.95m4.98 0h9.95m4.97 0h9.95m4.98 0h9.95m4.97 0h9.95m4.97 0h9.94m4.98 0h9.95m4.97 0h9.95m4.97 0h9.95m4.97 0h9.94m4.97 0h9.96m4.98 0h9.95m4.96 0h9.95m5 0h9.94m4.97 0h9.96m4.98 0h9.94m4.98 0h9.95m4.98 0h9.95m4.98 0h9.96m4.97 0h9.95m4.98 0h9.95m4.98 0h9.95m4.97 0h9.95m4.98 0h9.95m4.97 0h9.95m4.98 0h9.95m4.97 0h9.95m4.97 0h9.95m4.98 0h9.95m4.97 0h9.95m4.98 0h9.95m4.97 0h9.95m4.97 0h9.95m4.97 0h9.95m4.97 0h9.94m4.98 0h9.95m4.97 0h4.98" stroke="#333" fill="none"/><path d="M624.5 1860.12v-1z" stroke="#333" stroke-width=".05" fill="#333"/><path d="M1206.38 1859.62l-14.26 4.64V1855z" stroke="#333" fill="#333"/><g><use xlink:href="#av" transform="matrix(1,0,0,1,898.525,1834.0208791208793) translate(0.004999999999999005 14.4)"/></g><path d="M1207.5 1919.6H640.38" stroke="#333" fill="none"/><path d="M1207.5 1920.1v-1z" stroke="#333" stroke-width=".05" fill="#333"/><path d="M625.62 1919.6l14.26-4.65v9.27z" stroke="#333" fill="#333"/><g><use xlink:href="#aw" transform="matrix(1,0,0,1,873.35,1893.9879120879116) translate(0.005000000000002558 14.4)"/></g><path d="M1207.5 1979.55h-5m-5 0h-10m-5 0h-10.02m-5 0h-10m-5 0h-10m-5 0h-10.02m-5 0h-10m-5 0h-10m-5 0h-10.02m-5 0h-10m-5 0h-10m-5 0h-10.02m-5 0h-10m-5 0h-10m-5 0H992.4m-5 0h-10m-5 0h-10m-5 0h-5.02" stroke="#333" fill="none"/><path d="M1207.5 1980.05v-1z" stroke="#333" stroke-width=".05" fill="#333"/><path d="M937.62 1979.55l14.26-4.63v9.27z" stroke="#333" fill="#333"/><g><use xlink:href="#ax" transform="matrix(1,0,0,1,1012.85,1953.9549450549448) translate(0.005000000000002558 14.4)"/><use xlink:href="#ay" transform="matrix(1,0,0,1,1012.85,1953.9549450549448) translate(59.25500000000001 14.4)"/></g><path d="M895.5 2039.52h-4.97m-4.98 0h-9.95m-4.97 0h-9.95m-4.98 0h-9.95m-4.97 0h-9.95m-4.98 0h-9.95m-4.97 0h-9.95m-4.97 0h-9.94m-4.98 0h-9.95m-4.97 0h-9.95m-4.97 0h-9.95m-4.97 0h-9.94m-4.97 0h-9.96m-4.98 0h-9.95m-4.96 0h-9.95m-5 0h-9.94m-4.97 0h-9.96m-4.98 0h-9.94m-4.98 0h-9.95m-4.98 0h-9.95m-4.98 0h-9.96m-4.97 0h-9.95m-4.98 0h-9.95m-4.98 0h-9.95m-4.97 0h-9.95m-4.98 0h-9.95m-4.97 0h-9.95m-4.98 0h-9.95m-4.97 0h-9.95m-4.97 0h-9.95m-4.98 0h-9.95m-4.97 0h-9.95m-4.98 0h-9.95m-4.97 0h-9.95m-4.97 0h-9.95m-4.97 0h-9.95m-4.97 0h-9.94m-4.98 0h-9.95m-4.97 0h-4.98" stroke="#333" fill="none"/><path d="M895.5 2040.02v-1z" stroke="#333" stroke-width=".05" fill="#333"/><path d="M313.62 2039.52l14.26-4.63v9.26z" stroke="#333" fill="#333"/><g><use xlink:href="#ax" transform="matrix(1,0,0,1,544.85,2013.9219780219776) translate(0.005000000000002558 14.4)"/><use xlink:href="#ay" transform="matrix(1,0,0,1,544.85,2013.9219780219776) translate(59.25500000000001 14.4)"/></g><defs><path fill="#a9afb8" d="M76-208v77h127v40H76V0H24v-248h183v40H76" id="az"/><path fill="#a9afb8" d="M25-224v-37h50v37H25zM25 0v-190h50V0H25" id="aA"/><path fill="#a9afb8" d="M135-194c87-1 58 113 63 194h-50c-7-57 23-157-34-157-59 0-34 97-39 157H25l-1-190h47c2 12-1 28 3 38 12-26 28-41 61-42" id="aB"/><path fill="#a9afb8" d="M88-194c31-1 46 15 58 34l-1-101h50l1 261h-48c-2-10 0-23-3-31C134-8 116 4 84 4 32 4 16-41 15-95c0-56 19-97 73-99zm17 164c33 0 40-30 41-66 1-37-9-64-41-64s-38 30-39 65c0 43 13 65 39 65" id="aC"/><g id="a"><use transform="matrix(0.0728395061728395,0,0,0.0728395061728395,0,0)" xlink:href="#az"/><use transform="matrix(0.0728395061728395,0,0,0.0728395061728395,15.95185185185185,0)" xlink:href="#aA"/><use transform="matrix(0.0728395061728395,0,0,0.0728395061728395,23.235802469135802,0)" xlink:href="#aB"/><use transform="matrix(0.0728395061728395,0,0,0.0728395061728395,39.187654320987654,0)" xlink:href="#aC"/></g><path fill="#a9afb8" d="M238-95c0 69-44 99-111 99C63 4 22-25 22-93v-155h51v151c-1 38 19 59 55 60 90 1 49-130 58-211h52v153" id="aD"/><path fill="#a9afb8" d="M137-138c1-29-70-34-71-4 15 46 118 7 119 86 1 83-164 76-172 9l43-7c4 19 20 25 44 25 33 8 57-30 24-41C81-84 22-81 20-136c-2-80 154-74 161-7" id="aE"/><path fill="#a9afb8" d="M185-48c-13 30-37 53-82 52C43 2 14-33 14-96s30-98 90-98c62 0 83 45 84 108H66c0 31 8 55 39 56 18 0 30-7 34-22zm-45-69c5-46-57-63-70-21-2 6-4 13-4 21h74" id="aF"/><path fill="#a9afb8" d="M135-150c-39-12-60 13-60 57V0H25l-1-190h47c2 13-1 29 3 40 6-28 27-53 61-41v41" id="aG"/><g id="b"><use transform="matrix(0.0728395061728395,0,0,0.0728395061728395,0,0)" xlink:href="#aD"/><use transform="matrix(0.0728395061728395,0,0,0.0728395061728395,18.86543209876543,0)" xlink:href="#aE"/><use transform="matrix(0.0728395061728395,0,0,0.0728395061728395,33.43333333333333,0)" xlink:href="#aF"/><use transform="matrix(0.0728395061728395,0,0,0.0728395061728395,48.00123456790123,0)" xlink:href="#aG"/></g><path fill="#a9afb8" d="M135-194c52 0 70 43 70 98 0 56-19 99-73 100-30 1-46-15-58-35L72 0H24l1-261h50v104c11-23 29-37 60-37zM114-30c31 0 40-27 40-66 0-37-7-63-39-63s-41 28-41 65c0 36 8 64 40 64" id="aH"/><path fill="#a9afb8" d="M123 10C108 53 80 86 19 72V37c35 8 53-11 59-39L3-190h52l48 148c12-52 28-100 44-148h51" id="aI"/><g id="c"><use transform="matrix(0.0728395061728395,0,0,0.0728395061728395,0,0)" xlink:href="#aH"/><use transform="matrix(0.0728395061728395,0,0,0.0728395061728395,15.95185185185185,0)" xlink:href="#aI"/></g><path fill="#a9afb8" d="M24 0v-248h52V0H24" id="aJ"/><path fill="#a9afb8" d="M24-248c120-7 223 5 221 122C244-46 201 0 124 0H24v-248zM76-40c74 7 117-18 117-86 0-67-45-88-117-82v168" id="aK"/><g id="d"><use transform="matrix(0.0728395061728395,0,0,0.0728395061728395,0,0)" xlink:href="#aJ"/><use transform="matrix(0.0728395061728395,0,0,0.0728395061728395,7.28395061728395,0)" xlink:href="#aK"/></g><path fill="#a9afb8" d="M199 0l-22-63H83L61 0H9l90-248h61L250 0h-51zm-33-102l-36-108c-10 38-24 72-36 108h72" id="aL"/><path fill="#a9afb8" d="M115-3C79 11 28 4 28-45v-112H4v-33h27l15-45h31v45h36v33H77v99c-1 23 16 31 38 25v30" id="aM"/><path fill="#a9afb8" d="M133-34C117-15 103 5 69 4 32 3 11-16 11-54c-1-60 55-63 116-61 1-26-3-47-28-47-18 1-26 9-28 27l-52-2c7-38 36-58 82-57s74 22 75 68l1 82c-1 14 12 18 25 15v27c-30 8-71 5-69-32zm-48 3c29 0 43-24 42-57-32 0-66-3-65 30 0 17 8 27 23 27" id="aN"/><path fill="#a9afb8" d="M190-63c-7 42-38 67-86 67-59 0-84-38-90-98-12-110 154-137 174-36l-49 2c-2-19-15-32-35-32-30 0-35 28-38 64-6 74 65 87 74 30" id="aO"/><path fill="#a9afb8" d="M110-194c64 0 96 36 96 99 0 64-35 99-97 99-61 0-95-36-95-99 0-62 34-99 96-99zm-1 164c35 0 45-28 45-65 0-40-10-65-43-65-34 0-45 26-45 65 0 36 10 65 43 65" id="aP"/><g id="e"><use transform="matrix(0.0728395061728395,0,0,0.0728395061728395,0,0)" xlink:href="#aL"/><use transform="matrix(0.0728395061728395,0,0,0.0728395061728395,18.86543209876543,0)" xlink:href="#aH"/><use transform="matrix(0.0728395061728395,0,0,0.0728395061728395,34.81728395061728,0)" xlink:href="#aE"/><use transform="matrix(0.0728395061728395,0,0,0.0728395061728395,49.38518518518518,0)" xlink:href="#aM"/><use transform="matrix(0.0728395061728395,0,0,0.0728395061728395,58.05308641975308,0)" xlink:href="#aG"/><use transform="matrix(0.0728395061728395,0,0,0.0728395061728395,68.2506172839506,0)" xlink:href="#aN"/><use transform="matrix(0.0728395061728395,0,0,0.0728395061728395,82.8185185185185,0)" xlink:href="#aO"/><use transform="matrix(0.0728395061728395,0,0,0.0728395061728395,97.3864197530864,0)" xlink:href="#aM"/><use transform="matrix(0.0728395061728395,0,0,0.0728395061728395,106.05432098765431,0)" xlink:href="#aA"/><use transform="matrix(0.0728395061728395,0,0,0.0728395061728395,113.33827160493826,0)" xlink:href="#aP"/><use transform="matrix(0.0728395061728395,0,0,0.0728395061728395,129.2901234567901,0)" xlink:href="#aB"/></g><path fill="#a9afb8" d="M153-248C145-148 188 4 80 4 36 3 13-21 6-62l32-5c4 25 16 42 43 43 27 0 39-20 39-49v-147H72v-28h81" id="aQ"/><path fill="#a9afb8" d="M141-36C126-15 110 5 73 4 37 3 15-17 15-53c-1-64 63-63 125-63 3-35-9-54-41-54-24 1-41 7-42 31l-33-3c5-37 33-52 76-52 45 0 72 20 72 64v82c-1 20 7 32 28 27v20c-31 9-61-2-59-35zM48-53c0 20 12 33 32 33 41-3 63-29 60-74-43 2-92-5-92 41" id="aR"/><path fill="#a9afb8" d="M24-231v-30h32v30H24zM24 0v-190h32V0H24" id="aS"/><path fill="#a9afb8" d="M210-169c-67 3-38 105-44 169h-31v-121c0-29-5-50-35-48C34-165 62-65 56 0H25l-1-190h30c1 10-1 24 2 32 10-44 99-50 107 0 11-21 27-35 58-36 85-2 47 119 55 194h-31v-121c0-29-5-49-35-48" id="aT"/><path fill="#a9afb8" d="M100-194c63 0 86 42 84 106H49c0 40 14 67 53 68 26 1 43-12 49-29l28 8c-11 28-37 45-77 45C44 4 14-33 15-96c1-61 26-98 85-98zm52 81c6-60-76-77-97-28-3 7-6 17-6 28h103" id="aU"/><g id="f"><use transform="matrix(0.04248971193415638,0,0,0.04248971193415638,0,0)" xlink:href="#aQ"/><use transform="matrix(0.04248971193415638,0,0,0.04248971193415638,7.648148148148148,0)" xlink:href="#aR"/><use transform="matrix(0.04248971193415638,0,0,0.04248971193415638,16.14609053497942,0)" xlink:href="#aS"/><use transform="matrix(0.04248971193415638,0,0,0.04248971193415638,19.502777777777776,0)" xlink:href="#aT"/><use transform="matrix(0.04248971193415638,0,0,0.04248971193415638,32.20720164609053,0)" xlink:href="#aU"/></g><path fill="#a9afb8" d="M32 76v-337h29V76H32" id="aV"/><use transform="matrix(0.04248971193415638,0,0,0.04248971193415638,0,0)" xlink:href="#aV" id="g"/><path fill="#a9afb8" d="M240 0l2-218c-23 76-54 145-80 218h-23L58-218 59 0H30v-248h44l77 211c21-75 51-140 76-211h43V0h-30" id="aW"/><path fill="#a9afb8" d="M114-163C36-179 61-72 57 0H25l-1-190h30c1 12-1 29 2 39 6-27 23-49 58-41v29" id="aX"/><path fill="#a9afb8" d="M96-169c-40 0-48 33-48 73s9 75 48 75c24 0 41-14 43-38l32 2c-6 37-31 61-74 61-59 0-76-41-82-99-10-93 101-131 147-64 4 7 5 14 7 22l-32 3c-4-21-16-35-41-35" id="aY"/><path fill="#a9afb8" d="M106-169C34-169 62-67 57 0H25v-261h32l-1 103c12-21 28-36 61-36 89 0 53 116 60 194h-32v-121c2-32-8-49-39-48" id="aZ"/><g id="h"><use transform="matrix(0.04248971193415638,0,0,0.04248971193415638,0,0)" xlink:href="#aW"/><use transform="matrix(0.04248971193415638,0,0,0.04248971193415638,12.704423868312757,0)" xlink:href="#aR"/><use transform="matrix(0.04248971193415638,0,0,0.04248971193415638,21.20236625514403,0)" xlink:href="#aX"/><use transform="matrix(0.04248971193415638,0,0,0.04248971193415638,26.25864197530864,0)" xlink:href="#aY"/><use transform="matrix(0.04248971193415638,0,0,0.04248971193415638,33.90679012345679,0)" xlink:href="#aZ"/></g><path fill="#a9afb8" d="M27 0v-27h64v-190l-56 39v-29l58-41h29v221h61V0H27" id="ba"/><path fill="#a9afb8" d="M101-251c68 0 85 55 85 127S166 4 100 4C33 4 14-52 14-124c0-73 17-127 87-127zm-1 229c47 0 54-49 54-102s-4-102-53-102c-51 0-55 48-55 102 0 53 5 102 54 102" id="bb"/><path fill="#a9afb8" d="M68-38c1 34 0 65-14 84H32c9-13 17-26 17-46H33v-38h35" id="bc"/><g id="i"><use transform="matrix(0.04248971193415638,0,0,0.04248971193415638,0,0)" xlink:href="#ba"/><use transform="matrix(0.04248971193415638,0,0,0.04248971193415638,8.497942386831275,0)" xlink:href="#bb"/><use transform="matrix(0.04248971193415638,0,0,0.04248971193415638,16.99588477366255,0)" xlink:href="#bc"/></g><path fill="#a9afb8" d="M101-251c82-7 93 87 43 132L82-64C71-53 59-42 53-27h129V0H18c2-99 128-94 128-182 0-28-16-43-45-43s-46 15-49 41l-32-3c6-41 34-60 81-64" id="bd"/><g id="j"><use transform="matrix(0.04248971193415638,0,0,0.04248971193415638,0,0)" xlink:href="#bd"/><use transform="matrix(0.04248971193415638,0,0,0.04248971193415638,8.497942386831275,0)" xlink:href="#bb"/><use transform="matrix(0.04248971193415638,0,0,0.04248971193415638,16.99588477366255,0)" xlink:href="#bd"/><use transform="matrix(0.04248971193415638,0,0,0.04248971193415638,25.493827160493822,0)" xlink:href="#bd"/></g><path fill="#333" d="M33 0v-248h34V0H33" id="be"/><path fill="#333" d="M117-194c89-4 53 116 60 194h-32v-121c0-31-8-49-39-48C34-167 62-67 57 0H25l-1-190h30c1 10-1 24 2 32 11-22 29-35 61-36" id="bf"/><path fill="#333" d="M24-231v-30h32v30H24zM24 0v-190h32V0H24" id="bg"/><path fill="#333" d="M59-47c-2 24 18 29 38 22v24C64 9 27 4 27-40v-127H5v-23h24l9-43h21v43h35v23H59v120" id="bh"/><path fill="#333" d="M141-36C126-15 110 5 73 4 37 3 15-17 15-53c-1-64 63-63 125-63 3-35-9-54-41-54-24 1-41 7-42 31l-33-3c5-37 33-52 76-52 45 0 72 20 72 64v82c-1 20 7 32 28 27v20c-31 9-61-2-59-35zM48-53c0 20 12 33 32 33 41-3 63-29 60-74-43 2-92-5-92 41" id="bi"/><path fill="#333" d="M24 0v-261h32V0H24" id="bj"/><path fill="#333" d="M9 0v-24l116-142H16v-24h144v24L44-24h123V0H9" id="bk"/><path fill="#333" d="M100-194c62-1 85 37 85 99 1 63-27 99-86 99S16-35 15-95c0-66 28-99 85-99zM99-20c44 1 53-31 53-75 0-43-8-75-51-75s-53 32-53 75 10 74 51 75" id="bl"/><g id="k"><use transform="matrix(0.05,0,0,0.05,0,0)" xlink:href="#be"/><use transform="matrix(0.05,0,0,0.05,5,0)" xlink:href="#bf"/><use transform="matrix(0.05,0,0,0.05,15,0)" xlink:href="#bg"/><use transform="matrix(0.05,0,0,0.05,18.95,0)" xlink:href="#bh"/><use transform="matrix(0.05,0,0,0.05,23.95,0)" xlink:href="#bg"/><use transform="matrix(0.05,0,0,0.05,27.899999999999995,0)" xlink:href="#bi"/><use transform="matrix(0.05,0,0,0.05,37.9,0)" xlink:href="#bj"/><use transform="matrix(0.05,0,0,0.05,41.85,0)" xlink:href="#bg"/><use transform="matrix(0.05,0,0,0.05,45.800000000000004,0)" xlink:href="#bk"/><use transform="matrix(0.05,0,0,0.05,54.800000000000004,0)" xlink:href="#bi"/><use transform="matrix(0.05,0,0,0.05,64.80000000000001,0)" xlink:href="#bh"/><use transform="matrix(0.05,0,0,0.05,69.80000000000001,0)" xlink:href="#bg"/><use transform="matrix(0.05,0,0,0.05,73.75000000000001,0)" xlink:href="#bl"/><use transform="matrix(0.05,0,0,0.05,83.75000000000001,0)" xlink:href="#bf"/></g><path fill="#333" d="M233-177c-1 41-23 64-60 70L243 0h-38l-65-103H63V0H30v-248c88 3 205-21 203 71zM63-129c60-2 137 13 137-47 0-61-80-42-137-45v92" id="bm"/><path fill="#333" d="M84 4C-5 8 30-112 23-190h32v120c0 31 7 50 39 49 72-2 45-101 50-169h31l1 190h-30c-1-10 1-25-2-33-11 22-28 36-60 37" id="bn"/><path fill="#333" d="M135-143c-3-34-86-38-87 0 15 53 115 12 119 90S17 21 10-45l28-5c4 36 97 45 98 0-10-56-113-15-118-90-4-57 82-63 122-42 12 7 21 19 24 35" id="bo"/><g id="l"><use transform="matrix(0.05,0,0,0.05,0,0)" xlink:href="#bm"/><use transform="matrix(0.05,0,0,0.05,12.950000000000001,0)" xlink:href="#bn"/><use transform="matrix(0.05,0,0,0.05,22.950000000000003,0)" xlink:href="#bf"/><use transform="matrix(0.05,0,0,0.05,32.95,0)" xlink:href="#bo"/></g><path fill="#333" d="M96-169c-40 0-48 33-48 73s9 75 48 75c24 0 41-14 43-38l32 2c-6 37-31 61-74 61-59 0-76-41-82-99-10-93 101-131 147-64 4 7 5 14 7 22l-32 3c-4-21-16-35-41-35" id="bp"/><path fill="#333" d="M100-194c63 0 86 42 84 106H49c0 40 14 67 53 68 26 1 43-12 49-29l28 8c-11 28-37 45-77 45C44 4 14-33 15-96c1-61 26-98 85-98zm52 81c6-60-76-77-97-28-3 7-6 17-6 28h103" id="bq"/><path fill="#333" d="M68-38c1 34 0 65-14 84H32c9-13 17-26 17-46H33v-38h35" id="br"/><g id="m"><use transform="matrix(0.05,0,0,0.05,0,0)" xlink:href="#bl"/><use transform="matrix(0.05,0,0,0.05,10,0)" xlink:href="#bf"/><use transform="matrix(0.05,0,0,0.05,20,0)" xlink:href="#bp"/><use transform="matrix(0.05,0,0,0.05,29,0)" xlink:href="#bq"/><use transform="matrix(0.05,0,0,0.05,39,0)" xlink:href="#br"/></g><path fill="#333" d="M206 0h-36l-40-164L89 0H53L-1-190h32L70-26l43-164h34l41 164 42-164h31" id="bs"/><path fill="#333" d="M106-169C34-169 62-67 57 0H25v-261h32l-1 103c12-21 28-36 61-36 89 0 53 116 60 194h-32v-121c2-32-8-49-39-48" id="bt"/><g id="n"><use transform="matrix(0.05,0,0,0.05,0,0)" xlink:href="#bs"/><use transform="matrix(0.05,0,0,0.05,12.950000000000001,0)" xlink:href="#bt"/><use transform="matrix(0.05,0,0,0.05,22.950000000000003,0)" xlink:href="#bq"/><use transform="matrix(0.05,0,0,0.05,32.95,0)" xlink:href="#bf"/></g><g id="o"><use transform="matrix(0.05,0,0,0.05,0,0)" xlink:href="#bs"/><use transform="matrix(0.05,0,0,0.05,12.950000000000001,0)" xlink:href="#bq"/></g><path fill="#333" d="M85-194c31 0 48 13 60 33l-1-100h32l1 261h-30c-2-10 0-23-3-31C134-8 116 4 85 4 32 4 16-35 15-94c0-66 23-100 70-100zm9 24c-40 0-46 34-46 75 0 40 6 74 45 74 42 0 51-32 51-76 0-42-9-74-50-73" id="bu"/><g id="p"><use transform="matrix(0.05,0,0,0.05,0,0)" xlink:href="#bj"/><use transform="matrix(0.05,0,0,0.05,3.95,0)" xlink:href="#bl"/><use transform="matrix(0.05,0,0,0.05,13.949999999999998,0)" xlink:href="#bi"/><use transform="matrix(0.05,0,0,0.05,23.95,0)" xlink:href="#bu"/></g><g id="q"><use transform="matrix(0.05,0,0,0.05,0,0)" xlink:href="#bh"/><use transform="matrix(0.05,0,0,0.05,5,0)" xlink:href="#bt"/><use transform="matrix(0.05,0,0,0.05,15,0)" xlink:href="#bq"/></g><path fill="#333" d="M115-194c55 1 70 41 70 98S169 2 115 4C84 4 66-9 55-30l1 105H24l-1-265h31l2 30c10-21 28-34 59-34zm-8 174c40 0 45-34 45-75s-6-73-45-74c-42 0-51 32-51 76 0 43 10 73 51 73" id="bv"/><path fill="#333" d="M114-163C36-179 61-72 57 0H25l-1-190h30c1 12-1 29 2 39 6-27 23-49 58-41v29" id="bw"/><path fill="#333" d="M24-231v-30h32v30H24zM-9 49c24 4 33-6 33-30v-209h32V24c2 40-23 58-65 49V49" id="bx"/><path fill="#333" d="M33 0v-38h34V0H33" id="by"/><g id="r"><use transform="matrix(0.05,0,0,0.05,0,0)" xlink:href="#bv"/><use transform="matrix(0.05,0,0,0.05,10,0)" xlink:href="#bw"/><use transform="matrix(0.05,0,0,0.05,15.949999999999998,0)" xlink:href="#bl"/><use transform="matrix(0.05,0,0,0.05,25.950000000000003,0)" xlink:href="#bx"/><use transform="matrix(0.05,0,0,0.05,29.899999999999995,0)" xlink:href="#bq"/><use transform="matrix(0.05,0,0,0.05,39.9,0)" xlink:href="#bp"/><use transform="matrix(0.05,0,0,0.05,48.9,0)" xlink:href="#bh"/><use transform="matrix(0.05,0,0,0.05,53.900000000000006,0)" xlink:href="#by"/></g><path fill="#333" d="M30 0v-248h187v28H63v79h144v27H63v87h162V0H30" id="bz"/><path fill="#333" d="M141 0L90-78 38 0H4l68-98-65-92h35l48 74 47-74h35l-64 92 68 98h-35" id="bA"/><g id="s"><use transform="matrix(0.05,0,0,0.05,0,0)" xlink:href="#bz"/><use transform="matrix(0.05,0,0,0.05,12,0)" xlink:href="#bA"/><use transform="matrix(0.05,0,0,0.05,21,0)" xlink:href="#bq"/><use transform="matrix(0.05,0,0,0.05,31,0)" xlink:href="#bp"/><use transform="matrix(0.05,0,0,0.05,40,0)" xlink:href="#bn"/><use transform="matrix(0.05,0,0,0.05,50,0)" xlink:href="#bh"/><use transform="matrix(0.05,0,0,0.05,55,0)" xlink:href="#bg"/><use transform="matrix(0.05,0,0,0.05,58.95,0)" xlink:href="#bl"/><use transform="matrix(0.05,0,0,0.05,68.95,0)" xlink:href="#bf"/></g><path fill="#333" d="M205 0l-28-72H64L36 0H1l101-248h38L239 0h-34zm-38-99l-47-123c-12 45-31 82-46 123h93" id="bB"/><use transform="matrix(0.05,0,0,0.05,0,0)" xlink:href="#bB" id="t"/><path fill="#333" d="M210-169c-67 3-38 105-44 169h-31v-121c0-29-5-50-35-48C34-165 62-65 56 0H25l-1-190h30c1 10-1 24 2 32 10-44 99-50 107 0 11-21 27-35 58-36 85-2 47 119 55 194h-31v-121c0-29-5-49-35-48" id="bC"/><g id="u"><use transform="matrix(0.05,0,0,0.05,0,0)" xlink:href="#bo"/><use transform="matrix(0.05,0,0,0.05,9,0)" xlink:href="#bg"/><use transform="matrix(0.05,0,0,0.05,12.949999999999998,0)" xlink:href="#bC"/><use transform="matrix(0.05,0,0,0.05,27.899999999999995,0)" xlink:href="#bg"/><use transform="matrix(0.05,0,0,0.05,31.849999999999994,0)" xlink:href="#bj"/><use transform="matrix(0.05,0,0,0.05,35.8,0)" xlink:href="#bi"/><use transform="matrix(0.05,0,0,0.05,45.8,0)" xlink:href="#bw"/></g><path fill="#333" d="M143 0L79-87 56-68V0H24v-261h32v163l83-92h37l-77 82L181 0h-38" id="bD"/><path fill="#333" d="M101-234c-31-9-42 10-38 44h38v23H63V0H32v-167H5v-23h27c-7-52 17-82 69-68v24" id="bE"/><g id="v"><use transform="matrix(0.05,0,0,0.05,0,0)" xlink:href="#bs"/><use transform="matrix(0.05,0,0,0.05,12.950000000000001,0)" xlink:href="#bl"/><use transform="matrix(0.05,0,0,0.05,22.950000000000003,0)" xlink:href="#bw"/><use transform="matrix(0.05,0,0,0.05,28.900000000000002,0)" xlink:href="#bD"/><use transform="matrix(0.05,0,0,0.05,37.900000000000006,0)" xlink:href="#bE"/><use transform="matrix(0.05,0,0,0.05,42.900000000000006,0)" xlink:href="#bj"/><use transform="matrix(0.05,0,0,0.05,46.85000000000001,0)" xlink:href="#bl"/><use transform="matrix(0.05,0,0,0.05,56.85,0)" xlink:href="#bs"/></g><g id="w"><use transform="matrix(0.05,0,0,0.05,0,0)" xlink:href="#bw"/><use transform="matrix(0.05,0,0,0.05,5.95,0)" xlink:href="#bn"/><use transform="matrix(0.05,0,0,0.05,15.949999999999998,0)" xlink:href="#bf"/><use transform="matrix(0.05,0,0,0.05,25.950000000000003,0)" xlink:href="#bo"/></g><g id="x"><use transform="matrix(0.05,0,0,0.05,0,0)" xlink:href="#bq"/><use transform="matrix(0.05,0,0,0.05,10,0)" xlink:href="#bi"/><use transform="matrix(0.05,0,0,0.05,20,0)" xlink:href="#bp"/><use transform="matrix(0.05,0,0,0.05,29,0)" xlink:href="#bt"/></g><g id="y"><use transform="matrix(0.05,0,0,0.05,0,0)" xlink:href="#bh"/><use transform="matrix(0.05,0,0,0.05,5,0)" xlink:href="#bg"/><use transform="matrix(0.05,0,0,0.05,8.95,0)" xlink:href="#bC"/><use transform="matrix(0.05,0,0,0.05,23.9,0)" xlink:href="#bq"/></g><g id="z"><use transform="matrix(0.05,0,0,0.05,0,0)" xlink:href="#bs"/><use transform="matrix(0.05,0,0,0.05,12.950000000000001,0)" xlink:href="#bq"/></g><g id="A"><use transform="matrix(0.05,0,0,0.05,0,0)" xlink:href="#bw"/><use transform="matrix(0.05,0,0,0.05,5.95,0)" xlink:href="#bn"/><use transform="matrix(0.05,0,0,0.05,15.949999999999998,0)" xlink:href="#bf"/></g><use transform="matrix(0.05,0,0,0.05,0,0)" xlink:href="#bi" id="B"/><path fill="#333" d="M145-31C134-9 116 4 85 4 32 4 16-35 15-94c0-59 17-99 70-100 32-1 48 14 60 33 0-11-1-24 2-32h30l-1 268h-32zM93-21c41 0 51-33 51-76s-8-73-50-73c-40 0-46 35-46 75s5 74 45 74" id="bF"/><path fill="#333" d="M179-190L93 31C79 59 56 82 12 73V49c39 6 53-20 64-50L1-190h34L92-34l54-156h33" id="bG"/><g id="C"><use transform="matrix(0.05,0,0,0.05,0,0)" xlink:href="#bF"/><use transform="matrix(0.05,0,0,0.05,10,0)" xlink:href="#bn"/><use transform="matrix(0.05,0,0,0.05,20,0)" xlink:href="#bq"/><use transform="matrix(0.05,0,0,0.05,30,0)" xlink:href="#bw"/><use transform="matrix(0.05,0,0,0.05,35.95,0)" xlink:href="#bG"/><use transform="matrix(0.05,0,0,0.05,43.6,0)" xlink:href="#by"/></g><g id="D"><use transform="matrix(0.03703703703703704,0,0,0.03703703703703704,0,0)" xlink:href="#bB"/><use transform="matrix(0.03703703703703704,0,0,0.03703703703703704,8.88888888888889,0)" xlink:href="#bu"/><use transform="matrix(0.03703703703703704,0,0,0.03703703703703704,16.296296296296298,0)" xlink:href="#bi"/><use transform="matrix(0.03703703703703704,0,0,0.03703703703703704,23.703703703703706,0)" xlink:href="#bv"/><use transform="matrix(0.03703703703703704,0,0,0.03703703703703704,31.111111111111114,0)" xlink:href="#bh"/><use transform="matrix(0.03703703703703704,0,0,0.03703703703703704,34.81481481481482,0)" xlink:href="#bq"/><use transform="matrix(0.03703703703703704,0,0,0.03703703703703704,42.22222222222223,0)" xlink:href="#bu"/></g><g id="E"><use transform="matrix(0.03703703703703704,0,0,0.03703703703703704,0,0)" xlink:href="#bE"/><use transform="matrix(0.03703703703703704,0,0,0.03703703703703704,3.703703703703704,0)" xlink:href="#bw"/><use transform="matrix(0.03703703703703704,0,0,0.03703703703703704,8.111111111111112,0)" xlink:href="#bl"/><use transform="matrix(0.03703703703703704,0,0,0.03703703703703704,15.51851851851852,0)" xlink:href="#bC"/></g><path fill="#333" d="M143 4C61 4 22-44 18-125c-5-107 100-154 193-111 17 8 29 25 37 43l-32 9c-13-25-37-40-76-40-61 0-88 39-88 99 0 61 29 100 91 101 35 0 62-11 79-27v-45h-74v-28h105v86C228-13 192 4 143 4" id="bH"/><path fill="#333" d="M197 0v-115H63V0H30v-248h33v105h134v-105h34V0h-34" id="bI"/><path fill="#333" d="M115-194c53 0 69 39 70 98 0 66-23 100-70 100C84 3 66-7 56-30L54 0H23l1-261h32v101c10-23 28-34 59-34zm-8 174c40 0 45-34 45-75 0-40-5-75-45-74-42 0-51 32-51 76 0 43 10 73 51 73" id="bJ"/><g id="F"><use transform="matrix(0.03703703703703704,0,0,0.03703703703703704,0,0)" xlink:href="#bH"/><use transform="matrix(0.03703703703703704,0,0,0.03703703703703704,10.370370370370372,0)" xlink:href="#bg"/><use transform="matrix(0.03703703703703704,0,0,0.03703703703703704,13.296296296296298,0)" xlink:href="#bh"/><use transform="matrix(0.03703703703703704,0,0,0.03703703703703704,17,0)" xlink:href="#bI"/><use transform="matrix(0.03703703703703704,0,0,0.03703703703703704,26.592592592592595,0)" xlink:href="#bn"/><use transform="matrix(0.03703703703703704,0,0,0.03703703703703704,34,0)" xlink:href="#bJ"/></g><g id="G"><use transform="matrix(0.03703703703703704,0,0,0.03703703703703704,0,0)" xlink:href="#bn"/><use transform="matrix(0.03703703703703704,0,0,0.03703703703703704,7.407407407407408,0)" xlink:href="#bo"/><use transform="matrix(0.03703703703703704,0,0,0.03703703703703704,14.074074074074076,0)" xlink:href="#bq"/><use transform="matrix(0.03703703703703704,0,0,0.03703703703703704,21.481481481481485,0)" xlink:href="#bw"/></g><path fill="#333" d="M153-248C145-148 188 4 80 4 36 3 13-21 6-62l32-5c4 25 16 42 43 43 27 0 39-20 39-49v-147H72v-28h81" id="bK"/><path fill="#333" d="M240 0l2-218c-23 76-54 145-80 218h-23L58-218 59 0H30v-248h44l77 211c21-75 51-140 76-211h43V0h-30" id="bL"/><path fill="#333" d="M160-131c35 5 61 23 61 61C221 17 115-2 30 0v-248c76 3 177-17 177 60 0 33-19 50-47 57zm-97-11c50-1 110 9 110-42 0-47-63-36-110-37v79zm0 115c55-2 124 14 124-45 0-56-70-42-124-44v89" id="bM"/><g id="H"><use transform="matrix(0.03703703703703704,0,0,0.03703703703703704,0,0)" xlink:href="#bK"/><use transform="matrix(0.03703703703703704,0,0,0.03703703703703704,6.666666666666668,0)" xlink:href="#bL"/><use transform="matrix(0.03703703703703704,0,0,0.03703703703703704,17.740740740740744,0)" xlink:href="#bM"/><use transform="matrix(0.03703703703703704,0,0,0.03703703703703704,26.629629629629633,0)" xlink:href="#bi"/><use transform="matrix(0.03703703703703704,0,0,0.03703703703703704,34.03703703703704,0)" xlink:href="#bw"/><use transform="matrix(0.03703703703703704,0,0,0.03703703703703704,38.44444444444444,0)" xlink:href="#bJ"/><use transform="matrix(0.03703703703703704,0,0,0.03703703703703704,45.85185185185185,0)" xlink:href="#bg"/><use transform="matrix(0.03703703703703704,0,0,0.03703703703703704,48.777777777777764,0)" xlink:href="#bq"/><use transform="matrix(0.03703703703703704,0,0,0.03703703703703704,56.185185185185176,0)" xlink:href="#bw"/><path fill="#8080ff" d="M-.67.92h61.93v.98H-.67z"/></g><path fill="#333" d="M212-179c-10-28-35-45-73-45-59 0-87 40-87 99 0 60 29 101 89 101 43 0 62-24 78-52l27 14C228-24 195 4 139 4 59 4 22-46 18-125c-6-104 99-153 187-111 19 9 31 26 39 46" id="bN"/><g id="I"><use transform="matrix(0.05,0,0,0.05,0,0)" xlink:href="#bN"/><use transform="matrix(0.05,0,0,0.05,12.950000000000001,0)" xlink:href="#bj"/><use transform="matrix(0.05,0,0,0.05,16.900000000000002,0)" xlink:href="#bg"/><use transform="matrix(0.05,0,0,0.05,20.85,0)" xlink:href="#bq"/><use transform="matrix(0.05,0,0,0.05,30.85,0)" xlink:href="#bf"/><use transform="matrix(0.05,0,0,0.05,40.85,0)" xlink:href="#bh"/></g><path fill="#333" d="M232-93c-1 65-40 97-104 97C67 4 28-28 28-90v-158h33c8 89-33 224 67 224 102 0 64-133 71-224h33v155" id="bO"/><g id="J"><use transform="matrix(0.05,0,0,0.05,0,0)" xlink:href="#bO"/><use transform="matrix(0.05,0,0,0.05,12.950000000000001,0)" xlink:href="#bo"/><use transform="matrix(0.05,0,0,0.05,21.950000000000003,0)" xlink:href="#bq"/><use transform="matrix(0.05,0,0,0.05,31.950000000000003,0)" xlink:href="#bw"/></g><path fill="#333" d="M87 75C49 33 22-17 22-94c0-76 28-126 65-167h31c-38 41-64 92-64 168S80 34 118 75H87" id="bP"/><path fill="#333" d="M33-261c38 41 65 92 65 168S71 34 33 75H2C39 34 66-17 66-93S39-220 2-261h31" id="bQ"/><g id="K"><use transform="matrix(0.05,0,0,0.05,0,0)" xlink:href="#bP"/><use transform="matrix(0.05,0,0,0.05,5.95,0)" xlink:href="#bz"/><use transform="matrix(0.05,0,0,0.05,17.95,0)" xlink:href="#bf"/><use transform="matrix(0.05,0,0,0.05,27.950000000000003,0)" xlink:href="#bh"/><use transform="matrix(0.05,0,0,0.05,32.95,0)" xlink:href="#bg"/><use transform="matrix(0.05,0,0,0.05,36.900000000000006,0)" xlink:href="#bh"/><use transform="matrix(0.05,0,0,0.05,41.900000000000006,0)" xlink:href="#bG"/><use transform="matrix(0.05,0,0,0.05,50.900000000000006,0)" xlink:href="#bQ"/></g><g id="L"><use transform="matrix(0.05,0,0,0.05,0,0)" xlink:href="#bO"/><use transform="matrix(0.05,0,0,0.05,12.950000000000001,0)" xlink:href="#bo"/><use transform="matrix(0.05,0,0,0.05,21.950000000000003,0)" xlink:href="#bq"/><use transform="matrix(0.05,0,0,0.05,31.950000000000003,0)" xlink:href="#bw"/><use transform="matrix(0.05,0,0,0.05,37.900000000000006,0)" xlink:href="#bm"/><use transform="matrix(0.05,0,0,0.05,50.85000000000001,0)" xlink:href="#bq"/><use transform="matrix(0.05,0,0,0.05,60.85,0)" xlink:href="#bv"/><use transform="matrix(0.05,0,0,0.05,70.85000000000001,0)" xlink:href="#bl"/><use transform="matrix(0.05,0,0,0.05,80.85000000000001,0)" xlink:href="#bo"/><use transform="matrix(0.05,0,0,0.05,89.85000000000001,0)" xlink:href="#bg"/><use transform="matrix(0.05,0,0,0.05,93.80000000000001,0)" xlink:href="#bh"/><use transform="matrix(0.05,0,0,0.05,98.80000000000001,0)" xlink:href="#bl"/><use transform="matrix(0.05,0,0,0.05,108.80000000000001,0)" xlink:href="#bw"/><use transform="matrix(0.05,0,0,0.05,114.75,0)" xlink:href="#bG"/></g><g id="M"><use transform="matrix(0.05,0,0,0.05,0,0)" xlink:href="#bP"/><use transform="matrix(0.05,0,0,0.05,5.95,0)" xlink:href="#bm"/><use transform="matrix(0.05,0,0,0.05,18.900000000000002,0)" xlink:href="#bq"/><use transform="matrix(0.05,0,0,0.05,28.900000000000002,0)" xlink:href="#bv"/><use transform="matrix(0.05,0,0,0.05,38.900000000000006,0)" xlink:href="#bl"/><use transform="matrix(0.05,0,0,0.05,48.900000000000006,0)" xlink:href="#bo"/><use transform="matrix(0.05,0,0,0.05,57.900000000000006,0)" xlink:href="#bg"/><use transform="matrix(0.05,0,0,0.05,61.85,0)" xlink:href="#bh"/><use transform="matrix(0.05,0,0,0.05,66.85000000000001,0)" xlink:href="#bl"/><use transform="matrix(0.05,0,0,0.05,76.85000000000001,0)" xlink:href="#bw"/><use transform="matrix(0.05,0,0,0.05,82.80000000000001,0)" xlink:href="#bG"/><use transform="matrix(0.05,0,0,0.05,91.80000000000001,0)" xlink:href="#bQ"/></g><path fill="#333" d="M185-189c-5-48-123-54-124 2 14 75 158 14 163 119 3 78-121 87-175 55-17-10-28-26-33-46l33-7c5 56 141 63 141-1 0-78-155-14-162-118-5-82 145-84 179-34 5 7 8 16 11 25" id="bR"/><path fill="#333" d="M127-220V0H93v-220H8v-28h204v28h-85" id="bS"/><g id="N"><use transform="matrix(0.05,0,0,0.05,0,0)" xlink:href="#bR"/><use transform="matrix(0.05,0,0,0.05,12,0)" xlink:href="#bq"/><use transform="matrix(0.05,0,0,0.05,22,0)" xlink:href="#bh"/><use transform="matrix(0.05,0,0,0.05,27,0)" xlink:href="#bh"/><use transform="matrix(0.05,0,0,0.05,32,0)" xlink:href="#bq"/><use transform="matrix(0.05,0,0,0.05,42,0)" xlink:href="#bw"/><use transform="matrix(0.05,0,0,0.05,47.95,0)" xlink:href="#bS"/><use transform="matrix(0.05,0,0,0.05,58.25,0)" xlink:href="#bw"/><use transform="matrix(0.05,0,0,0.05,64.2,0)" xlink:href="#bi"/><use transform="matrix(0.05,0,0,0.05,74.2,0)" xlink:href="#bf"/><use transform="matrix(0.05,0,0,0.05,84.2,0)" xlink:href="#bo"/><use transform="matrix(0.05,0,0,0.05,93.2,0)" xlink:href="#bE"/><use transform="matrix(0.05,0,0,0.05,98.2,0)" xlink:href="#bl"/><use transform="matrix(0.05,0,0,0.05,108.2,0)" xlink:href="#bw"/><use transform="matrix(0.05,0,0,0.05,114.15,0)" xlink:href="#bC"/><use transform="matrix(0.05,0,0,0.05,129.1,0)" xlink:href="#bq"/><use transform="matrix(0.05,0,0,0.05,139.1,0)" xlink:href="#bw"/></g><g id="O"><use transform="matrix(0.05,0,0,0.05,0,0)" xlink:href="#bP"/><use transform="matrix(0.05,0,0,0.05,5.95,0)" xlink:href="#bS"/><use transform="matrix(0.05,0,0,0.05,16.25,0)" xlink:href="#bw"/><use transform="matrix(0.05,0,0,0.05,22.2,0)" xlink:href="#bi"/><use transform="matrix(0.05,0,0,0.05,32.2,0)" xlink:href="#bf"/><use transform="matrix(0.05,0,0,0.05,42.2,0)" xlink:href="#bo"/><use transform="matrix(0.05,0,0,0.05,51.2,0)" xlink:href="#bE"/><use transform="matrix(0.05,0,0,0.05,56.2,0)" xlink:href="#bl"/><use transform="matrix(0.05,0,0,0.05,66.2,0)" xlink:href="#bw"/><use transform="matrix(0.05,0,0,0.05,72.15,0)" xlink:href="#bC"/><use transform="matrix(0.05,0,0,0.05,87.10000000000001,0)" xlink:href="#bq"/><use transform="matrix(0.05,0,0,0.05,97.10000000000001,0)" xlink:href="#bw"/><use transform="matrix(0.05,0,0,0.05,103.05000000000001,0)" xlink:href="#bQ"/></g><path fill="#333" d="M177-190C167-65 218 103 67 71c-23-6-38-20-44-43l32-5c15 47 100 32 89-28v-30C133-14 115 1 83 1 29 1 15-40 15-95c0-56 16-97 71-98 29-1 48 16 59 35 1-10 0-23 2-32h30zM94-22c36 0 50-32 50-73 0-42-14-75-50-75-39 0-46 34-46 75s6 73 46 73" id="bT"/><g id="P"><use transform="matrix(0.05,0,0,0.05,0,0)" xlink:href="#bz"/><use transform="matrix(0.05,0,0,0.05,12,0)" xlink:href="#bf"/><use transform="matrix(0.05,0,0,0.05,22,0)" xlink:href="#bT"/><use transform="matrix(0.05,0,0,0.05,32,0)" xlink:href="#bg"/><use transform="matrix(0.05,0,0,0.05,35.95,0)" xlink:href="#bf"/><use transform="matrix(0.05,0,0,0.05,45.95,0)" xlink:href="#bq"/></g><g id="Q"><use transform="matrix(0.05,0,0,0.05,0,0)" xlink:href="#bR"/><use transform="matrix(0.05,0,0,0.05,12,0)" xlink:href="#bq"/><use transform="matrix(0.05,0,0,0.05,22,0)" xlink:href="#bj"/><use transform="matrix(0.05,0,0,0.05,25.950000000000003,0)" xlink:href="#bq"/><use transform="matrix(0.05,0,0,0.05,35.95,0)" xlink:href="#bp"/><use transform="matrix(0.05,0,0,0.05,44.95,0)" xlink:href="#bh"/><use transform="matrix(0.05,0,0,0.05,49.95,0)" xlink:href="#bg"/><use transform="matrix(0.05,0,0,0.05,53.900000000000006,0)" xlink:href="#bl"/><use transform="matrix(0.05,0,0,0.05,63.900000000000006,0)" xlink:href="#bf"/></g><path fill="#333" d="M140-251c81 0 123 46 123 126C263-46 219 4 140 4 59 4 17-45 17-125s42-126 123-126zm0 227c63 0 89-41 89-101s-29-99-89-99c-61 0-89 39-89 99S79-25 140-24" id="bU"/><g id="R"><use transform="matrix(0.05,0,0,0.05,0,0)" xlink:href="#bP"/><use transform="matrix(0.05,0,0,0.05,5.95,0)" xlink:href="#bU"/><use transform="matrix(0.05,0,0,0.05,19.95,0)" xlink:href="#bv"/><use transform="matrix(0.05,0,0,0.05,29.950000000000003,0)" xlink:href="#bq"/><use transform="matrix(0.05,0,0,0.05,39.95,0)" xlink:href="#bw"/><use transform="matrix(0.05,0,0,0.05,45.900000000000006,0)" xlink:href="#bi"/><use transform="matrix(0.05,0,0,0.05,55.900000000000006,0)" xlink:href="#bh"/><use transform="matrix(0.05,0,0,0.05,60.900000000000006,0)" xlink:href="#bg"/><use transform="matrix(0.05,0,0,0.05,64.85000000000001,0)" xlink:href="#bl"/><use transform="matrix(0.05,0,0,0.05,74.85000000000001,0)" xlink:href="#bf"/><use transform="matrix(0.05,0,0,0.05,84.85000000000001,0)" xlink:href="#bQ"/></g><path fill="#333" d="M63-220v92h138v28H63V0H30v-248h175v28H63" id="bV"/><g id="S"><use transform="matrix(0.05,0,0,0.05,0,0)" xlink:href="#bV"/><use transform="matrix(0.05,0,0,0.05,10.950000000000001,0)" xlink:href="#bg"/><use transform="matrix(0.05,0,0,0.05,14.9,0)" xlink:href="#bj"/><use transform="matrix(0.05,0,0,0.05,18.85,0)" xlink:href="#bh"/><use transform="matrix(0.05,0,0,0.05,23.85,0)" xlink:href="#bq"/><use transform="matrix(0.05,0,0,0.05,33.85,0)" xlink:href="#bw"/></g><g id="T"><use transform="matrix(0.05,0,0,0.05,0,0)" xlink:href="#bP"/><use transform="matrix(0.05,0,0,0.05,5.95,0)" xlink:href="#bN"/><use transform="matrix(0.05,0,0,0.05,18.900000000000002,0)" xlink:href="#bi"/><use transform="matrix(0.05,0,0,0.05,28.900000000000002,0)" xlink:href="#bv"/><use transform="matrix(0.05,0,0,0.05,38.900000000000006,0)" xlink:href="#bi"/><use transform="matrix(0.05,0,0,0.05,48.900000000000006,0)" xlink:href="#bJ"/><use transform="matrix(0.05,0,0,0.05,58.900000000000006,0)" xlink:href="#bg"/><use transform="matrix(0.05,0,0,0.05,62.85,0)" xlink:href="#bj"/><use transform="matrix(0.05,0,0,0.05,66.80000000000001,0)" xlink:href="#bg"/><use transform="matrix(0.05,0,0,0.05,70.75000000000001,0)" xlink:href="#bh"/><use transform="matrix(0.05,0,0,0.05,75.75000000000001,0)" xlink:href="#bG"/><use transform="matrix(0.05,0,0,0.05,84.75000000000001,0)" xlink:href="#bQ"/></g><path fill="#333" d="M30-248c118-7 216 8 213 122C240-48 200 0 122 0H30v-248zM63-27c89 8 146-16 146-99s-60-101-146-95v194" id="bW"/><path fill="#333" d="M108 0H70L1-190h34L89-25l56-165h34" id="bX"/><g id="U"><use transform="matrix(0.05,0,0,0.05,0,0)" xlink:href="#bW"/><use transform="matrix(0.05,0,0,0.05,12.950000000000001,0)" xlink:href="#bw"/><use transform="matrix(0.05,0,0,0.05,18.900000000000002,0)" xlink:href="#bg"/><use transform="matrix(0.05,0,0,0.05,22.85,0)" xlink:href="#bX"/><use transform="matrix(0.05,0,0,0.05,31.85,0)" xlink:href="#bq"/><use transform="matrix(0.05,0,0,0.05,41.85,0)" xlink:href="#bw"/></g><g id="V"><use transform="matrix(0.05,0,0,0.05,0,0)" xlink:href="#bf"/><use transform="matrix(0.05,0,0,0.05,10,0)" xlink:href="#bq"/><use transform="matrix(0.05,0,0,0.05,20,0)" xlink:href="#bs"/><use transform="matrix(0.05,0,0,0.05,32.95,0)" xlink:href="#bP"/><use transform="matrix(0.05,0,0,0.05,38.900000000000006,0)" xlink:href="#bu"/><use transform="matrix(0.05,0,0,0.05,48.900000000000006,0)" xlink:href="#bJ"/><use transform="matrix(0.05,0,0,0.05,58.900000000000006,0)" xlink:href="#bQ"/></g><g id="W"><use transform="matrix(0.05,0,0,0.05,0,0)" xlink:href="#bu"/><use transform="matrix(0.05,0,0,0.05,10,0)" xlink:href="#bw"/><use transform="matrix(0.05,0,0,0.05,15.949999999999998,0)" xlink:href="#bg"/><use transform="matrix(0.05,0,0,0.05,19.9,0)" xlink:href="#bX"/><use transform="matrix(0.05,0,0,0.05,28.899999999999995,0)" xlink:href="#bq"/><use transform="matrix(0.05,0,0,0.05,38.9,0)" xlink:href="#bw"/></g><path fill="#333" d="M109-170H84l-4-78h32zm-65 0H19l-4-78h33" id="bY"/><g id="X"><use transform="matrix(0.05,0,0,0.05,0,0)" xlink:href="#bf"/><use transform="matrix(0.05,0,0,0.05,10,0)" xlink:href="#bq"/><use transform="matrix(0.05,0,0,0.05,20,0)" xlink:href="#bs"/><use transform="matrix(0.05,0,0,0.05,32.95,0)" xlink:href="#bP"/><use transform="matrix(0.05,0,0,0.05,38.900000000000006,0)" xlink:href="#bY"/><use transform="matrix(0.05,0,0,0.05,45.25000000000001,0)" xlink:href="#bn"/><use transform="matrix(0.05,0,0,0.05,55.25,0)" xlink:href="#bo"/><use transform="matrix(0.05,0,0,0.05,64.25,0)" xlink:href="#bq"/><use transform="matrix(0.05,0,0,0.05,74.25,0)" xlink:href="#bw"/><use transform="matrix(0.05,0,0,0.05,80.2,0)" xlink:href="#bo"/><use transform="matrix(0.05,0,0,0.05,89.2,0)" xlink:href="#bY"/><use transform="matrix(0.05,0,0,0.05,95.55,0)" xlink:href="#br"/></g><g id="Y"><use transform="matrix(0.05,0,0,0.05,0,0)" xlink:href="#bu"/><use transform="matrix(0.05,0,0,0.05,10,0)" xlink:href="#bw"/><use transform="matrix(0.05,0,0,0.05,15.949999999999998,0)" xlink:href="#bg"/><use transform="matrix(0.05,0,0,0.05,19.9,0)" xlink:href="#bX"/><use transform="matrix(0.05,0,0,0.05,28.899999999999995,0)" xlink:href="#bq"/><use transform="matrix(0.05,0,0,0.05,38.9,0)" xlink:href="#bw"/><use transform="matrix(0.05,0,0,0.05,44.85,0)" xlink:href="#bQ"/></g><g id="Z"><use transform="matrix(0.05,0,0,0.05,0,0)" xlink:href="#bq"/><use transform="matrix(0.05,0,0,0.05,10,0)" xlink:href="#bf"/><use transform="matrix(0.05,0,0,0.05,20,0)" xlink:href="#bT"/><use transform="matrix(0.05,0,0,0.05,30,0)" xlink:href="#bg"/><use transform="matrix(0.05,0,0,0.05,33.95,0)" xlink:href="#bf"/><use transform="matrix(0.05,0,0,0.05,43.95,0)" xlink:href="#bq"/></g><g id="aa"><use transform="matrix(0.05,0,0,0.05,0,0)" xlink:href="#bf"/><use transform="matrix(0.05,0,0,0.05,10,0)" xlink:href="#bq"/><use transform="matrix(0.05,0,0,0.05,20,0)" xlink:href="#bs"/><use transform="matrix(0.05,0,0,0.05,32.95,0)" xlink:href="#bP"/><use transform="matrix(0.05,0,0,0.05,38.900000000000006,0)" xlink:href="#bO"/><use transform="matrix(0.05,0,0,0.05,51.85,0)" xlink:href="#bo"/><use transform="matrix(0.05,0,0,0.05,60.85,0)" xlink:href="#bq"/><use transform="matrix(0.05,0,0,0.05,70.85000000000001,0)" xlink:href="#bw"/><use transform="matrix(0.05,0,0,0.05,76.80000000000001,0)" xlink:href="#bQ"/></g><g id="ab"><use transform="matrix(0.05,0,0,0.05,0,0)" xlink:href="#bh"/><use transform="matrix(0.05,0,0,0.05,5,0)" xlink:href="#bw"/><use transform="matrix(0.05,0,0,0.05,10.95,0)" xlink:href="#bi"/><use transform="matrix(0.05,0,0,0.05,20.95,0)" xlink:href="#bf"/><use transform="matrix(0.05,0,0,0.05,30.950000000000003,0)" xlink:href="#bo"/><use transform="matrix(0.05,0,0,0.05,39.95,0)" xlink:href="#bE"/><use transform="matrix(0.05,0,0,0.05,44.95,0)" xlink:href="#bl"/><use transform="matrix(0.05,0,0,0.05,54.95,0)" xlink:href="#bw"/><use transform="matrix(0.05,0,0,0.05,60.900000000000006,0)" xlink:href="#bC"/><use transform="matrix(0.05,0,0,0.05,75.85000000000001,0)" xlink:href="#bq"/><use transform="matrix(0.05,0,0,0.05,85.85000000000001,0)" xlink:href="#bw"/></g><g id="ac"><use transform="matrix(0.05,0,0,0.05,0,0)" xlink:href="#bf"/><use transform="matrix(0.05,0,0,0.05,10,0)" xlink:href="#bq"/><use transform="matrix(0.05,0,0,0.05,20,0)" xlink:href="#bs"/><use transform="matrix(0.05,0,0,0.05,32.95,0)" xlink:href="#bP"/><use transform="matrix(0.05,0,0,0.05,38.900000000000006,0)" xlink:href="#bq"/><use transform="matrix(0.05,0,0,0.05,48.900000000000006,0)" xlink:href="#bf"/><use transform="matrix(0.05,0,0,0.05,58.900000000000006,0)" xlink:href="#bT"/><use transform="matrix(0.05,0,0,0.05,68.9,0)" xlink:href="#bg"/><use transform="matrix(0.05,0,0,0.05,72.85000000000001,0)" xlink:href="#bf"/><use transform="matrix(0.05,0,0,0.05,82.85000000000001,0)" xlink:href="#bq"/><use transform="matrix(0.05,0,0,0.05,92.85000000000001,0)" xlink:href="#br"/></g><g id="ad"><use transform="matrix(0.05,0,0,0.05,0,0)" xlink:href="#bh"/><use transform="matrix(0.05,0,0,0.05,5,0)" xlink:href="#bw"/><use transform="matrix(0.05,0,0,0.05,10.95,0)" xlink:href="#bi"/><use transform="matrix(0.05,0,0,0.05,20.95,0)" xlink:href="#bf"/><use transform="matrix(0.05,0,0,0.05,30.950000000000003,0)" xlink:href="#bo"/><use transform="matrix(0.05,0,0,0.05,39.95,0)" xlink:href="#bE"/><use transform="matrix(0.05,0,0,0.05,44.95,0)" xlink:href="#bl"/><use transform="matrix(0.05,0,0,0.05,54.95,0)" xlink:href="#bw"/><use transform="matrix(0.05,0,0,0.05,60.900000000000006,0)" xlink:href="#bC"/><use transform="matrix(0.05,0,0,0.05,75.85000000000001,0)" xlink:href="#bq"/><use transform="matrix(0.05,0,0,0.05,85.85000000000001,0)" xlink:href="#bw"/><use transform="matrix(0.05,0,0,0.05,91.80000000000001,0)" xlink:href="#bQ"/></g><g id="ae"><use transform="matrix(0.05,0,0,0.05,0,0)" xlink:href="#bw"/><use transform="matrix(0.05,0,0,0.05,5.95,0)" xlink:href="#bq"/><use transform="matrix(0.05,0,0,0.05,15.949999999999998,0)" xlink:href="#bv"/><use transform="matrix(0.05,0,0,0.05,25.950000000000003,0)" xlink:href="#bl"/><use transform="matrix(0.05,0,0,0.05,35.95,0)" xlink:href="#bo"/><use transform="matrix(0.05,0,0,0.05,44.95,0)" xlink:href="#bg"/><use transform="matrix(0.05,0,0,0.05,48.900000000000006,0)" xlink:href="#bh"/><use transform="matrix(0.05,0,0,0.05,53.900000000000006,0)" xlink:href="#bl"/><use transform="matrix(0.05,0,0,0.05,63.900000000000006,0)" xlink:href="#bw"/><use transform="matrix(0.05,0,0,0.05,69.85000000000001,0)" xlink:href="#bG"/></g><path fill="#333" d="M-5 72V49h209v23H-5" id="bZ"/><path fill="#333" d="M27 0v-27h64v-190l-56 39v-29l58-41h29v221h61V0H27" id="ca"/><g id="af"><use transform="matrix(0.05,0,0,0.05,0,0)" xlink:href="#bw"/><use transform="matrix(0.05,0,0,0.05,5.95,0)" xlink:href="#bq"/><use transform="matrix(0.05,0,0,0.05,15.949999999999998,0)" xlink:href="#bv"/><use transform="matrix(0.05,0,0,0.05,25.950000000000003,0)" xlink:href="#bl"/><use transform="matrix(0.05,0,0,0.05,35.95,0)" xlink:href="#bo"/><use transform="matrix(0.05,0,0,0.05,44.95,0)" xlink:href="#bg"/><use transform="matrix(0.05,0,0,0.05,48.900000000000006,0)" xlink:href="#bh"/><use transform="matrix(0.05,0,0,0.05,53.900000000000006,0)" xlink:href="#bl"/><use transform="matrix(0.05,0,0,0.05,63.900000000000006,0)" xlink:href="#bw"/><use transform="matrix(0.05,0,0,0.05,69.85000000000001,0)" xlink:href="#bG"/><use transform="matrix(0.05,0,0,0.05,77.50000000000001,0)" xlink:href="#by"/><use transform="matrix(0.05,0,0,0.05,82.50000000000001,0)" xlink:href="#bE"/><use transform="matrix(0.05,0,0,0.05,87.50000000000001,0)" xlink:href="#bg"/><use transform="matrix(0.05,0,0,0.05,91.45000000000002,0)" xlink:href="#bf"/><use transform="matrix(0.05,0,0,0.05,101.45000000000002,0)" xlink:href="#bu"/><use transform="matrix(0.05,0,0,0.05,111.45,0)" xlink:href="#bZ"/><use transform="matrix(0.05,0,0,0.05,121.45,0)" xlink:href="#bJ"/><use transform="matrix(0.05,0,0,0.05,131.45000000000002,0)" xlink:href="#bG"/><use transform="matrix(0.05,0,0,0.05,140.45000000000002,0)" xlink:href="#bZ"/><use transform="matrix(0.05,0,0,0.05,150.45000000000002,0)" xlink:href="#bg"/><use transform="matrix(0.05,0,0,0.05,154.4,0)" xlink:href="#bu"/><use transform="matrix(0.05,0,0,0.05,164.4,0)" xlink:href="#bP"/><use transform="matrix(0.05,0,0,0.05,170.35,0)" xlink:href="#ca"/><use transform="matrix(0.05,0,0,0.05,180.35,0)" xlink:href="#bQ"/></g><g id="ag"><use transform="matrix(0.05,0,0,0.05,0,0)" xlink:href="#bq"/><use transform="matrix(0.05,0,0,0.05,10,0)" xlink:href="#bf"/><use transform="matrix(0.05,0,0,0.05,20,0)" xlink:href="#bT"/><use transform="matrix(0.05,0,0,0.05,30,0)" xlink:href="#bg"/><use transform="matrix(0.05,0,0,0.05,33.95,0)" xlink:href="#bf"/><use transform="matrix(0.05,0,0,0.05,43.95,0)" xlink:href="#bq"/><use transform="matrix(0.05,0,0,0.05,53.95,0)" xlink:href="#by"/><use transform="matrix(0.05,0,0,0.05,58.95,0)" xlink:href="#bo"/><use transform="matrix(0.05,0,0,0.05,67.95,0)" xlink:href="#bq"/><use transform="matrix(0.05,0,0,0.05,77.95,0)" xlink:href="#bj"/><use transform="matrix(0.05,0,0,0.05,81.9,0)" xlink:href="#bq"/><use transform="matrix(0.05,0,0,0.05,91.9,0)" xlink:href="#bp"/><use transform="matrix(0.05,0,0,0.05,100.9,0)" xlink:href="#bh"/><use transform="matrix(0.05,0,0,0.05,105.9,0)" xlink:href="#bg"/><use transform="matrix(0.05,0,0,0.05,109.85000000000001,0)" xlink:href="#bl"/><use transform="matrix(0.05,0,0,0.05,119.85000000000001,0)" xlink:href="#bf"/></g><g id="ah"><use transform="matrix(0.05,0,0,0.05,0,0)" xlink:href="#bf"/><use transform="matrix(0.05,0,0,0.05,10,0)" xlink:href="#bq"/><use transform="matrix(0.05,0,0,0.05,20,0)" xlink:href="#bs"/><use transform="matrix(0.05,0,0,0.05,32.95,0)" xlink:href="#bP"/><use transform="matrix(0.05,0,0,0.05,38.900000000000006,0)" xlink:href="#bY"/><use transform="matrix(0.05,0,0,0.05,45.25000000000001,0)" xlink:href="#bn"/><use transform="matrix(0.05,0,0,0.05,55.25,0)" xlink:href="#bo"/><use transform="matrix(0.05,0,0,0.05,64.25,0)" xlink:href="#bq"/><use transform="matrix(0.05,0,0,0.05,74.25,0)" xlink:href="#bw"/><use transform="matrix(0.05,0,0,0.05,80.2,0)" xlink:href="#bo"/><use transform="matrix(0.05,0,0,0.05,89.2,0)" xlink:href="#bY"/><use transform="matrix(0.05,0,0,0.05,95.55,0)" xlink:href="#bQ"/></g><g id="ai"><use transform="matrix(0.05,0,0,0.05,0,0)" xlink:href="#bo"/><use transform="matrix(0.05,0,0,0.05,9,0)" xlink:href="#bq"/><use transform="matrix(0.05,0,0,0.05,19,0)" xlink:href="#bj"/><use transform="matrix(0.05,0,0,0.05,22.95,0)" xlink:href="#bq"/><use transform="matrix(0.05,0,0,0.05,32.95,0)" xlink:href="#bp"/><use transform="matrix(0.05,0,0,0.05,41.95,0)" xlink:href="#bh"/><use transform="matrix(0.05,0,0,0.05,46.95,0)" xlink:href="#bg"/><use transform="matrix(0.05,0,0,0.05,50.900000000000006,0)" xlink:href="#bl"/><use transform="matrix(0.05,0,0,0.05,60.900000000000006,0)" xlink:href="#bf"/></g><path fill="#333" d="M39-94c74 12-11 154 75 146v23c-44 4-70-10-70-52C44-23 55-84 6-82v-22c81 4-7-162 84-157h24v23c-82-15-2 131-75 144" id="cb"/><g id="aj"><use transform="matrix(0.05,0,0,0.05,0,0)" xlink:href="#bq"/><use transform="matrix(0.05,0,0,0.05,10,0)" xlink:href="#bf"/><use transform="matrix(0.05,0,0,0.05,20,0)" xlink:href="#bT"/><use transform="matrix(0.05,0,0,0.05,30,0)" xlink:href="#bg"/><use transform="matrix(0.05,0,0,0.05,33.95,0)" xlink:href="#bf"/><use transform="matrix(0.05,0,0,0.05,43.95,0)" xlink:href="#bq"/><use transform="matrix(0.05,0,0,0.05,53.95,0)" xlink:href="#by"/><use transform="matrix(0.05,0,0,0.05,58.95,0)" xlink:href="#bs"/><use transform="matrix(0.05,0,0,0.05,71.9,0)" xlink:href="#bt"/><use transform="matrix(0.05,0,0,0.05,81.9,0)" xlink:href="#bq"/><use transform="matrix(0.05,0,0,0.05,91.9,0)" xlink:href="#bw"/><use transform="matrix(0.05,0,0,0.05,97.85000000000001,0)" xlink:href="#bq"/><use transform="matrix(0.05,0,0,0.05,107.85000000000001,0)" xlink:href="#bP"/><use transform="matrix(0.05,0,0,0.05,113.80000000000001,0)" xlink:href="#cb"/></g><path fill="#333" d="M33-154v-36h34v36H33zM33 0v-36h34V0H33" id="cc"/><g id="ak"><use transform="matrix(0.05,0,0,0.05,0,0)" xlink:href="#bg"/><use transform="matrix(0.05,0,0,0.05,3.95,0)" xlink:href="#bu"/><use transform="matrix(0.05,0,0,0.05,13.949999999999998,0)" xlink:href="#cc"/></g><use transform="matrix(0.05,0,0,0.05,0,0)" xlink:href="#ca" id="al"/><path fill="#333" d="M76-40C78 24 84 88 6 75V52C86 64 9-79 80-94c-40-6-34-59-34-106 1-29-11-41-40-38v-23c44-4 70 10 70 52 0 47-12 108 38 105v22c-26 1-39 14-38 42" id="cd"/><g id="am"><use transform="matrix(0.05,0,0,0.05,0,0)" xlink:href="#cd"/><use transform="matrix(0.05,0,0,0.05,6,0)" xlink:href="#bQ"/></g><g id="an"><use transform="matrix(0.05,0,0,0.05,0,0)" xlink:href="#bo"/><use transform="matrix(0.05,0,0,0.05,9,0)" xlink:href="#bq"/><use transform="matrix(0.05,0,0,0.05,19,0)" xlink:href="#bj"/><use transform="matrix(0.05,0,0,0.05,22.95,0)" xlink:href="#bq"/><use transform="matrix(0.05,0,0,0.05,32.95,0)" xlink:href="#bp"/><use transform="matrix(0.05,0,0,0.05,41.95,0)" xlink:href="#bh"/><use transform="matrix(0.05,0,0,0.05,46.95,0)" xlink:href="#bg"/><use transform="matrix(0.05,0,0,0.05,50.900000000000006,0)" xlink:href="#bl"/><use transform="matrix(0.05,0,0,0.05,60.900000000000006,0)" xlink:href="#bf"/><use transform="matrix(0.05,0,0,0.05,70.9,0)" xlink:href="#by"/><use transform="matrix(0.05,0,0,0.05,75.9,0)" xlink:href="#bs"/><use transform="matrix(0.05,0,0,0.05,88.85000000000001,0)" xlink:href="#bt"/><use transform="matrix(0.05,0,0,0.05,98.85000000000001,0)" xlink:href="#bq"/><use transform="matrix(0.05,0,0,0.05,108.85000000000001,0)" xlink:href="#bw"/><use transform="matrix(0.05,0,0,0.05,114.80000000000001,0)" xlink:href="#bq"/><use transform="matrix(0.05,0,0,0.05,124.80000000000001,0)" xlink:href="#bP"/><use transform="matrix(0.05,0,0,0.05,130.75,0)" xlink:href="#cb"/></g><g id="ao"><use transform="matrix(0.05,0,0,0.05,0,0)" xlink:href="#bo"/><use transform="matrix(0.05,0,0,0.05,9,0)" xlink:href="#bq"/><use transform="matrix(0.05,0,0,0.05,19,0)" xlink:href="#bj"/><use transform="matrix(0.05,0,0,0.05,22.95,0)" xlink:href="#bE"/><use transform="matrix(0.05,0,0,0.05,27.950000000000003,0)" xlink:href="#by"/><use transform="matrix(0.05,0,0,0.05,32.95,0)" xlink:href="#bs"/><use transform="matrix(0.05,0,0,0.05,45.900000000000006,0)" xlink:href="#bt"/><use transform="matrix(0.05,0,0,0.05,55.900000000000006,0)" xlink:href="#bq"/><use transform="matrix(0.05,0,0,0.05,65.9,0)" xlink:href="#bw"/><use transform="matrix(0.05,0,0,0.05,71.85000000000001,0)" xlink:href="#bq"/><use transform="matrix(0.05,0,0,0.05,81.85000000000001,0)" xlink:href="#bP"/><use transform="matrix(0.05,0,0,0.05,87.80000000000001,0)" xlink:href="#cb"/></g><g id="ap"><use transform="matrix(0.05,0,0,0.05,0,0)" xlink:href="#bq"/><use transform="matrix(0.05,0,0,0.05,10,0)" xlink:href="#bf"/><use transform="matrix(0.05,0,0,0.05,20,0)" xlink:href="#bT"/><use transform="matrix(0.05,0,0,0.05,30,0)" xlink:href="#bg"/><use transform="matrix(0.05,0,0,0.05,33.95,0)" xlink:href="#bf"/><use transform="matrix(0.05,0,0,0.05,43.95,0)" xlink:href="#bq"/><use transform="matrix(0.05,0,0,0.05,53.95,0)" xlink:href="#by"/><use transform="matrix(0.05,0,0,0.05,58.95,0)" xlink:href="#bv"/><use transform="matrix(0.05,0,0,0.05,68.95,0)" xlink:href="#bq"/><use transform="matrix(0.05,0,0,0.05,78.95,0)" xlink:href="#bw"/><use transform="matrix(0.05,0,0,0.05,84.9,0)" xlink:href="#bE"/><use transform="matrix(0.05,0,0,0.05,89.9,0)" xlink:href="#bl"/><use transform="matrix(0.05,0,0,0.05,99.9,0)" xlink:href="#bw"/><use transform="matrix(0.05,0,0,0.05,105.85000000000001,0)" xlink:href="#bC"/></g><g id="aq"><use transform="matrix(0.05,0,0,0.05,0,0)" xlink:href="#bu"/><use transform="matrix(0.05,0,0,0.05,10,0)" xlink:href="#bw"/><use transform="matrix(0.05,0,0,0.05,15.949999999999998,0)" xlink:href="#bg"/><use transform="matrix(0.05,0,0,0.05,19.9,0)" xlink:href="#bX"/><use transform="matrix(0.05,0,0,0.05,28.899999999999995,0)" xlink:href="#bq"/><use transform="matrix(0.05,0,0,0.05,38.9,0)" xlink:href="#bw"/><use transform="matrix(0.05,0,0,0.05,43.85,0)" xlink:href="#by"/><use transform="matrix(0.05,0,0,0.05,48.85,0)" xlink:href="#bw"/><use transform="matrix(0.05,0,0,0.05,54.800000000000004,0)" xlink:href="#bn"/><use transform="matrix(0.05,0,0,0.05,64.80000000000001,0)" xlink:href="#bf"/><use transform="matrix(0.05,0,0,0.05,74.80000000000001,0)" xlink:href="#bP"/><use transform="matrix(0.05,0,0,0.05,80.75000000000001,0)" xlink:href="#bo"/><use transform="matrix(0.05,0,0,0.05,89.75000000000001,0)" xlink:href="#bq"/><use transform="matrix(0.05,0,0,0.05,99.75000000000001,0)" xlink:href="#bj"/><use transform="matrix(0.05,0,0,0.05,103.7,0)" xlink:href="#bq"/><use transform="matrix(0.05,0,0,0.05,113.7,0)" xlink:href="#bp"/><use transform="matrix(0.05,0,0,0.05,122.7,0)" xlink:href="#bh"/><use transform="matrix(0.05,0,0,0.05,127.7,0)" xlink:href="#bg"/><use transform="matrix(0.05,0,0,0.05,131.65,0)" xlink:href="#bl"/><use transform="matrix(0.05,0,0,0.05,141.65,0)" xlink:href="#bf"/><use transform="matrix(0.05,0,0,0.05,151.65,0)" xlink:href="#bQ"/></g><use transform="matrix(0.05,0,0,0.05,0,0)" xlink:href="#cb" id="ar"/><use transform="matrix(0.05,0,0,0.05,0,0)" xlink:href="#cd" id="as"/><g id="at"><use transform="matrix(0.05,0,0,0.05,0,0)" xlink:href="#bh"/><use transform="matrix(0.05,0,0,0.05,5,0)" xlink:href="#bw"/><use transform="matrix(0.05,0,0,0.05,10.95,0)" xlink:href="#bi"/><use transform="matrix(0.05,0,0,0.05,20.95,0)" xlink:href="#bf"/><use transform="matrix(0.05,0,0,0.05,30.950000000000003,0)" xlink:href="#bo"/><use transform="matrix(0.05,0,0,0.05,39.95,0)" xlink:href="#bE"/><use transform="matrix(0.05,0,0,0.05,44.95,0)" xlink:href="#bl"/><use transform="matrix(0.05,0,0,0.05,54.95,0)" xlink:href="#bw"/><use transform="matrix(0.05,0,0,0.05,60.900000000000006,0)" xlink:href="#bC"/><use transform="matrix(0.05,0,0,0.05,75.85000000000001,0)" xlink:href="#bq"/><use transform="matrix(0.05,0,0,0.05,85.85000000000001,0)" xlink:href="#bw"/><use transform="matrix(0.05,0,0,0.05,90.80000000000001,0)" xlink:href="#by"/><use transform="matrix(0.05,0,0,0.05,95.80000000000001,0)" xlink:href="#bl"/><use transform="matrix(0.05,0,0,0.05,105.80000000000001,0)" xlink:href="#bf"/><use transform="matrix(0.05,0,0,0.05,115.80000000000001,0)" xlink:href="#bq"/><use transform="matrix(0.05,0,0,0.05,125.80000000000001,0)" xlink:href="#bP"/><use transform="matrix(0.05,0,0,0.05,131.75,0)" xlink:href="#cb"/></g><g id="au"><use transform="matrix(0.05,0,0,0.05,0,0)" xlink:href="#bf"/><use transform="matrix(0.05,0,0,0.05,10,0)" xlink:href="#bq"/><use transform="matrix(0.05,0,0,0.05,20,0)" xlink:href="#bs"/></g><g id="av"><use transform="matrix(0.05,0,0,0.05,0,0)" xlink:href="#bn"/><use transform="matrix(0.05,0,0,0.05,10,0)" xlink:href="#bo"/><use transform="matrix(0.05,0,0,0.05,19,0)" xlink:href="#bq"/><use transform="matrix(0.05,0,0,0.05,29,0)" xlink:href="#bw"/></g><path fill="#333" d="M18-150v-26h174v26H18zm0 90v-26h174v26H18" id="ce"/><g id="aw"><use transform="matrix(0.05,0,0,0.05,0,0)" xlink:href="#bn"/><use transform="matrix(0.05,0,0,0.05,10,0)" xlink:href="#bo"/><use transform="matrix(0.05,0,0,0.05,19,0)" xlink:href="#bq"/><use transform="matrix(0.05,0,0,0.05,29,0)" xlink:href="#bw"/><use transform="matrix(0.05,0,0,0.05,33.95,0)" xlink:href="#by"/><use transform="matrix(0.05,0,0,0.05,38.95,0)" xlink:href="#bg"/><use transform="matrix(0.05,0,0,0.05,42.900000000000006,0)" xlink:href="#bu"/><use transform="matrix(0.05,0,0,0.05,52.900000000000006,0)" xlink:href="#ce"/><use transform="matrix(0.05,0,0,0.05,63.400000000000006,0)" xlink:href="#bP"/><use transform="matrix(0.05,0,0,0.05,69.35000000000001,0)" xlink:href="#ca"/><use transform="matrix(0.05,0,0,0.05,79.35000000000001,0)" xlink:href="#bQ"/></g><path fill="#333" d="M158-156l-14 65h45v19h-49L124 0h-19l15-72H56L41 0H22l15-72H2v-19h39l14-65H11v-19h48l15-71h20l-16 71h64l16-71h19l-16 71h37v19h-40zm-83 0L61-91h63l14-65H75" id="cf"/><g id="ax"><use transform="matrix(0.05,0,0,0.05,0,0)" xlink:href="#bY"/><use transform="matrix(0.05,0,0,0.05,6.3500000000000005,0)" xlink:href="#cf"/><use transform="matrix(0.05,0,0,0.05,16.35,0)" xlink:href="#bO"/><use transform="matrix(0.05,0,0,0.05,29.3,0)" xlink:href="#bo"/><use transform="matrix(0.05,0,0,0.05,38.300000000000004,0)" xlink:href="#bq"/><use transform="matrix(0.05,0,0,0.05,48.300000000000004,0)" xlink:href="#bw"/></g><path fill="#333" d="M198-261c85 0 136 45 136 128 0 61-22 111-78 115-29 2-39-18-37-44-12 23-32 44-66 44-41 0-58-28-58-68 0-60 30-105 88-108 29-1 43 15 54 32l7-28h28c-9 45-23 84-27 134-1 11 6 17 14 16 39-4 51-48 51-92 0-69-42-107-112-107-93 0-145 59-145 153C53-15 94 26 168 27c43 0 78-13 106-28l9 19c-30 18-67 32-115 32C79 50 28-1 28-86c0-107 62-175 170-175zM158-41c46 0 70-43 70-90 0-26-17-40-43-40-44 0-59 41-61 85-1 26 9 45 34 45" id="cg"/><g id="ay"><use transform="matrix(0.05,0,0,0.05,0,0)" xlink:href="#cg"/><use transform="matrix(0.05,0,0,0.05,18.25,0)" xlink:href="#bg"/><use transform="matrix(0.05,0,0,0.05,22.2,0)" xlink:href="#bu"/><use transform="matrix(0.05,0,0,0.05,32.2,0)" xlink:href="#ce"/><use transform="matrix(0.05,0,0,0.05,42.7,0)" xlink:href="#ca"/><use transform="matrix(0.05,0,0,0.05,52.7,0)" xlink:href="#bY"/></g></defs></g></svg>