<svg xmlns="http://www.w3.org/2000/svg" xmlns:xlink="http://www.w3.org/1999/xlink" xmlns:lucid="lucid" width="3060.14" height="1860.22"><g transform="translate(0 0)" lucid:page-tab-id="JcTtX6qArhzI"><path d="M0 0h3060.14v1860.22H0z" fill="#fff"/><path d="M1440 1255c0-2.76 2.24-5 5-5h230c2.76 0 5 2.24 5 5v20c0 2.76-2.24 5-5 5h-230c-2.76 0-5-2.24-5-5z" stroke="#000" stroke-opacity="0" stroke-width="2" fill-opacity="0"/><use xlink:href="#a" transform="matrix(1,0,0,1,1445,1255) translate(5.537037037037052 13.166666666666668)"/><use xlink:href="#b" transform="matrix(1,0,0,1,1445,1255) translate(58.87037037037039 13.166666666666668)"/><use xlink:href="#c" transform="matrix(1,0,0,1,1445,1255) translate(89.16666666666669 13.166666666666668)"/><use xlink:href="#d" transform="matrix(1,0,0,1,1445,1255) translate(134.27777777777777 13.166666666666668)"/><use xlink:href="#e" transform="matrix(1,0,0,1,1445,1255) translate(163.87037037037038 13.166666666666668)"/><a xlink:href="https://github.com/jmbarbier/" target="_blank" transform="matrix(1,0,0,1,1445,1255)"><path class="lucid-link lucid-hotspot lucid-overlay-hotspot" fill-opacity="0" d="M163.87 2.5h60.6v16h-60.6z"/></a><path d="M976.64 47.62c0-4.4 3.58-8 8-8h1089.6c4.43 0 8 3.6 8 8v25.16c0 4.42-3.57 8-8 8H984.65c-4.42 0-8-3.58-8-8z" stroke="#000" stroke-opacity="0" stroke-width="2" fill="#fff" fill-opacity="0"/><use xlink:href="#f" transform="matrix(1,0,0,1,980.6413579878412,43.62442473605138) translate(297.1896296296296 25.782777777777778)"/><use xlink:href="#g" transform="matrix(1,0,0,1,980.6413579878412,43.62442473605138) translate(359.6130864197531 25.782777777777778)"/><use xlink:href="#h" transform="matrix(1,0,0,1,980.6413579878412,43.62442473605138) translate(425.0958024691358 25.782777777777778)"/><use xlink:href="#i" transform="matrix(1,0,0,1,980.6413579878412,43.62442473605138) translate(462.8995061728395 25.782777777777778)"/><use xlink:href="#j" transform="matrix(1,0,0,1,980.6413579878412,43.62442473605138) translate(496.33283950617283 25.782777777777778)"/><use xlink:href="#k" transform="matrix(1,0,0,1,980.6413579878412,43.62442473605138) translate(678.1402469135802 25.782777777777778)"/><path d="M1146.32 79.44h772.84M1146.35 79.44h-1.03M1919.14 79.44h1.02" stroke="#a9afb8" stroke-width="2" fill="none"/><path d="M976.64 88.78c0-4.42 3.58-8 8-8H2075.5c4.4 0 8 3.58 8 8v2.84c0 4.42-3.6 8-8 8H984.63c-4.42 0-8-3.58-8-8z" stroke="#000" stroke-opacity="0" stroke-width="2" fill="#fff" fill-opacity="0"/><use xlink:href="#l" transform="matrix(1,0,0,1,980.6413579878416,84.7796486929502) translate(466.78957818930036 14.917037037037037)"/><use xlink:href="#m" transform="matrix(1,0,0,1,980.6413579878416,84.7796486929502) translate(520.2416358024691 14.917037037037037)"/><use xlink:href="#n" transform="matrix(1,0,0,1,980.6413579878416,84.7796486929502) translate(532.6911213991768 14.917037037037037)"/><use xlink:href="#o" transform="matrix(1,0,0,1,980.6413579878416,84.7796486929502) translate(579.3448251028806 14.917037037037037)"/><use xlink:href="#p" transform="matrix(1,0,0,1,980.6413579878416,84.7796486929502) translate(604.8386522633743 14.917037037037037)"/><path d="M20 168c0-4.42 3.58-8 8-8h136c4.4 0 8 3.58 8 8v84c0 4.42-3.6 8-8 8H28c-4.42 0-8-3.58-8-8z" stroke="#333" fill="#fff"/><use xlink:href="#q" transform="matrix(1,0,0,1,20,160) translate(48.029999999999994 55.025)"/><path d="M20 1748c0-4.42 3.58-8 8-8h136c4.4 0 8 3.58 8 8v84c0 4.42-3.6 8-8 8H28c-4.42 0-8-3.58-8-8z" stroke="#333" fill="#fff"/><use xlink:href="#q" transform="matrix(1,0,0,1,20,1740) translate(48.029999999999994 55.025)"/><path d="M96 261v4.98m0 4.97v9.96m0 4.98v9.96m0 4.97v9.96m0 4.98v9.95m0 4.97v9.95m0 4.98v9.95m0 4.98v9.95m0 4.98v9.95m0 5v9.94m0 4.98v9.95m0 4.98v9.95m0 4.98v9.95m0 4.97v9.96m0 4.97V475m0 4.96v9.96m0 4.97v9.95m0 4.97v9.95m0 4.98v9.95m0 4.98v9.95m0 4.98v9.96m0 4.98v9.95m0 4.97v9.95m0 4.98v9.95m0 4.98v9.95m0 4.98v9.95m0 5v9.94m0 4.97v9.97m0 4.97V684m0 4.97v9.96m0 4.97v9.96m0 4.97v9.95m0 4.98v9.95m0 5v9.94m0 4.98v9.95m0 4.98v9.95m0 4.98v9.95m0 4.98v9.96m0 4.98v9.95m0 4.97v9.95m0 4.98v9.95m0 4.97v9.96m0 4.97V893m0 4.98v9.96m0 4.97v9.97m0 4.97v9.95m0 4.97v9.95m0 4.98v9.95m0 4.98v9.95m0 4.98v9.95m0 5v9.94m0 4.98v9.95m0 4.98v9.95m0 4.98v9.95m0 4.98v9.96m0 4.97v9.96m0 4.96v9.96m0 4.97v9.95m0 4.97v9.96m0 4.97v9.95m0 4.98v9.95m0 4.98v9.96m0 4.98v9.95m0 4.97v9.95m0 4.98v9.95m0 4.98v9.95m0 4.98v9.95m0 5v9.94m0 4.98v9.95m0 4.97v9.96m0 4.97v9.96m0 4.97v9.96m0 4.97v9.96m0 4.96v9.95m0 5v9.94m0 4.98v9.95m0 4.98v9.95m0 4.98v9.95m0 4.98v9.96m0 4.98v9.95m0 4.97v9.95m0 4.98v9.95m0 4.98v9.95m0 4.97v9.96m0 4.98v9.96m0 4.97v9.97m0 4.97v9.96m0 4.97v9.95m0 4.98v9.95m0 4.98v9.95m0 4.98v9.95m0 5v9.94m0 4.98v9.95m0 4.98v9.95m0 4.98v9.95m0 4.98v9.96m0 4.98v9.95m0 4.96v9.96m0 4.97v9.95m0 4.97v4.98" stroke="#333" fill="none"/><path d="M96.5 261h-1v-.5h1zM96.5 1739.5h-1v-.5h1z" stroke="#333" stroke-width=".05" fill="#333"/><path d="M323.98 168c0-4.42 3.58-8 8-8h136c4.4 0 8 3.58 8 8v84c0 4.42-3.6 8-8 8h-136c-4.42 0-8-3.58-8-8z" stroke="#333" fill="#fff"/><use xlink:href="#r" transform="matrix(1,0,0,1,323.98221737580474,160) translate(39.05499999999999 42.525)"/><use xlink:href="#s" transform="matrix(1,0,0,1,323.98221737580474,160) translate(30.60499999999999 64.125)"/><path d="M323.98 1748c0-4.42 3.58-8 8-8h136c4.4 0 8 3.58 8 8v84c0 4.42-3.6 8-8 8h-136c-4.42 0-8-3.58-8-8z" stroke="#333" fill="#fff"/><use xlink:href="#r" transform="matrix(1,0,0,1,323.98221737580474,1740) translate(39.05499999999999 42.525)"/><use xlink:href="#s" transform="matrix(1,0,0,1,323.98221737580474,1740) translate(30.60499999999999 64.125)"/><path d="M399.98 261v4.98m0 4.97v9.96m0 4.98v9.96m0 4.97v9.96m0 4.98v9.95m0 4.97v9.95m0 4.98v9.95m0 4.98v9.95m0 4.98v9.95m0 5v9.94m0 4.98v9.95m0 4.98v9.95m0 4.98v9.95m0 4.97v9.96m0 4.97V475m0 4.96v9.96m0 4.97v9.95m0 4.97v9.95m0 4.98v9.95m0 4.98v9.95m0 4.98v9.96m0 4.98v9.95m0 4.97v9.95m0 4.98v9.95m0 4.98v9.95m0 4.98v9.95m0 5v9.94m0 4.97v9.97m0 4.97V684m0 4.97v9.96m0 4.97v9.96m0 4.97v9.95m0 4.98v9.95m0 5v9.94m0 4.98v9.95m0 4.98v9.95m0 4.98v9.95m0 4.98v9.96m0 4.98v9.95m0 4.97v9.95m0 4.98v9.95m0 4.97v9.96m0 4.97V893m0 4.98v9.96m0 4.97v9.97m0 4.97v9.95m0 4.97v9.95m0 4.98v9.95m0 4.98v9.95m0 4.98v9.95m0 5v9.94m0 4.98v9.95m0 4.98v9.95m0 4.98v9.95m0 4.98v9.96m0 4.97v9.96m0 4.96v9.96m0 4.97v9.95m0 4.97v9.96m0 4.97v9.95m0 4.98v9.95m0 4.98v9.96m0 4.98v9.95m0 4.97v9.95m0 4.98v9.95m0 4.98v9.95m0 4.98v9.95m0 5v9.94m0 4.98v9.95m0 4.97v9.96m0 4.97v9.96m0 4.97v9.96m0 4.97v9.96m0 4.96v9.95m0 5v9.94m0 4.98v9.95m0 4.98v9.95m0 4.98v9.95m0 4.98v9.96m0 4.98v9.95m0 4.97v9.95m0 4.98v9.95m0 4.98v9.95m0 4.97v9.96m0 4.98v9.96m0 4.97v9.97m0 4.97v9.96m0 4.97v9.95m0 4.98v9.95m0 4.98v9.95m0 4.98v9.95m0 5v9.94m0 4.98v9.95m0 4.98v9.95m0 4.98v9.95m0 4.98v9.96m0 4.98v9.95m0 4.96v9.96m0 4.97v9.95m0 4.97v4.98" stroke="#333" fill="none"/><path d="M400.48 261h-1v-.5h1zM400.48 1739.5h-1v-.5h1z" stroke="#333" stroke-width=".05" fill="#333"/><path d="M627.96 168c0-4.42 3.6-8 8-8h136c4.4 0 8 3.58 8 8v84c0 4.42-3.6 8-8 8h-136c-4.4 0-8-3.58-8-8z" stroke="#333" fill="#fff"/><use xlink:href="#t" transform="matrix(1,0,0,1,627.9644347516095,160) translate(8.179999999999987 55.025)"/><use xlink:href="#u" transform="matrix(1,0,0,1,627.9644347516095,160) translate(84.13 55.025)"/><path d="M627.96 1748c0-4.42 3.6-8 8-8h136c4.4 0 8 3.58 8 8v84c0 4.42-3.6 8-8 8h-136c-4.4 0-8-3.58-8-8z" stroke="#333" fill="#fff"/><use xlink:href="#t" transform="matrix(1,0,0,1,627.9644347516095,1740) translate(8.179999999999987 55.025)"/><use xlink:href="#u" transform="matrix(1,0,0,1,627.9644347516095,1740) translate(84.13 55.025)"/><path d="M703.96 261v4.98m0 4.97v9.96m0 4.98v9.96m0 4.97v9.96m0 4.98v9.95m0 4.97v9.95m0 4.98v9.95m0 4.98v9.95m0 4.98v9.95m0 5v9.94m0 4.98v9.95m0 4.98v9.95m0 4.98v9.95m0 4.97v9.96m0 4.97V475m0 4.96v9.96m0 4.97v9.95m0 4.97v9.95m0 4.98v9.95m0 4.98v9.95m0 4.98v9.96m0 4.98v9.95m0 4.97v9.95m0 4.98v9.95m0 4.98v9.95m0 4.98v9.95m0 5v9.94m0 4.97v9.97m0 4.97V684m0 4.97v9.96m0 4.97v9.96m0 4.97v9.95m0 4.98v9.95m0 5v9.94m0 4.98v9.95m0 4.98v9.95m0 4.98v9.95m0 4.98v9.96m0 4.98v9.95m0 4.97v9.95m0 4.98v9.95m0 4.97v9.96m0 4.97V893m0 4.98v9.96m0 4.97v9.97m0 4.97v9.95m0 4.97v9.95m0 4.98v9.95m0 4.98v9.95m0 4.98v9.95m0 5v9.94m0 4.98v9.95m0 4.98v9.95m0 4.98v9.95m0 4.98v9.96m0 4.97v9.96m0 4.96v9.96m0 4.97v9.95m0 4.97v9.96m0 4.97v9.95m0 4.98v9.95m0 4.98v9.96m0 4.98v9.95m0 4.97v9.95m0 4.98v9.95m0 4.98v9.95m0 4.98v9.95m0 5v9.94m0 4.98v9.95m0 4.97v9.96m0 4.97v9.96m0 4.97v9.96m0 4.97v9.96m0 4.96v9.95m0 5v9.94m0 4.98v9.95m0 4.98v9.95m0 4.98v9.95m0 4.98v9.96m0 4.98v9.95m0 4.97v9.95m0 4.98v9.95m0 4.98v9.95m0 4.97v9.96m0 4.98v9.96m0 4.97v9.97m0 4.97v9.96m0 4.97v9.95m0 4.98v9.95m0 4.98v9.95m0 4.98v9.95m0 5v9.94m0 4.98v9.95m0 4.98v9.95m0 4.98v9.95m0 4.98v9.96m0 4.98v9.95m0 4.96v9.96m0 4.97v9.95m0 4.97v4.98" stroke="#333" fill="none"/><path d="M704.46 261h-1v-.5h1zM704.46 1739.5h-1v-.5h1z" stroke="#333" stroke-width=".05" fill="#333"/><path d="M1465 168c0-4.42 3.57-8 8-8h135.98c4.42 0 8 3.58 8 8v84c0 4.42-3.58 8-8 8h-136c-4.4 0-8-3.58-8-8z" stroke="#333" fill="#fff"/><use xlink:href="#v" transform="matrix(1,0,0,1,1464.9921362216116,160) translate(7.104999999999999 55.025)"/><path d="M1465 1748c0-4.42 3.57-8 8-8h135.98c4.42 0 8 3.58 8 8v84c0 4.42-3.58 8-8 8h-136c-4.4 0-8-3.58-8-8z" stroke="#333" fill="#fff"/><use xlink:href="#v" transform="matrix(1,0,0,1,1464.9921362216116,1740) translate(7.104999999999999 55.025)"/><path d="M1541 261v4.98m0 4.97v9.96m0 4.98v9.96m0 4.97v9.96m0 4.98v9.95m0 4.97v9.95m0 4.98v9.95m0 4.98v9.95m0 4.98v9.95m0 5v9.94m0 4.98v9.95m0 4.98v9.95m0 4.98v9.95m0 4.97v9.96m0 4.97V475m0 4.96v9.96m0 4.97v9.95m0 4.97v9.95m0 4.98v9.95m0 4.98v9.95m0 4.98v9.96m0 4.98v9.95m0 4.97v9.95m0 4.98v9.95m0 4.98v9.95m0 4.98v9.95m0 5v9.94m0 4.97v9.97m0 4.97V684m0 4.97v9.96m0 4.97v9.96m0 4.97v9.95m0 4.98v9.95m0 5v9.94m0 4.98v9.95m0 4.98v9.95m0 4.98v9.95m0 4.98v9.96m0 4.98v9.95m0 4.97v9.95m0 4.98v9.95m0 4.97v9.96m0 4.97V893m0 4.98v9.96m0 4.97v9.97m0 4.97v9.95m0 4.97v9.95m0 4.98v9.95m0 4.98v9.95m0 4.98v9.95m0 5v9.94m0 4.98v9.95m0 4.98v9.95m0 4.98v9.95m0 4.98v9.96m0 4.97v9.96m0 4.96v9.96m0 4.97v9.95m0 4.97v9.96m0 4.97v9.95m0 4.98v9.95m0 4.98v9.96m0 4.98v9.95m0 4.97v9.95m0 4.98v9.95m0 4.98v9.95m0 4.98v9.95m0 5v9.94m0 4.98v9.95m0 4.97v9.96m0 4.97v9.96m0 4.97v9.96m0 4.97v9.96m0 4.96v9.95m0 5v9.94m0 4.98v9.95m0 4.98v9.95m0 4.98v9.95m0 4.98v9.96m0 4.98v9.95m0 4.97v9.95m0 4.98v9.95m0 4.98v9.95m0 4.97v9.96m0 4.98v9.96m0 4.97v9.97m0 4.97v9.96m0 4.97v9.95m0 4.98v9.95m0 4.98v9.95m0 4.98v9.95m0 5v9.94m0 4.98v9.95m0 4.98v9.95m0 4.98v9.95m0 4.98v9.96m0 4.98v9.95m0 4.96v9.96m0 4.97v9.95m0 4.97v4.98" stroke="#333" fill="none"/><path d="M1541.5 261h-1v-.5h1zM1541.5 1739.5h-1v-.5h1z" stroke="#333" stroke-width=".05" fill="#333"/><path d="M1976.06 168c0-4.42 3.58-8 8-8h136c4.4 0 8 3.58 8 8v84c0 4.42-3.6 8-8 8h-136c-4.42 0-8-3.58-8-8z" stroke="#333" fill="#fff"/><use xlink:href="#w" transform="matrix(1,0,0,1,1976.0622391846834,160) translate(14.630000000000004 55.025)"/><use xlink:href="#x" transform="matrix(1,0,0,1,1976.0622391846834,160) translate(69.58000000000001 55.025)"/><path d="M1976.06 1748c0-4.42 3.58-8 8-8h136c4.4 0 8 3.58 8 8v84c0 4.42-3.6 8-8 8h-136c-4.42 0-8-3.58-8-8z" stroke="#333" fill="#fff"/><use xlink:href="#w" transform="matrix(1,0,0,1,1976.0622391846834,1740) translate(14.630000000000004 55.025)"/><use xlink:href="#x" transform="matrix(1,0,0,1,1976.0622391846834,1740) translate(69.58000000000001 55.025)"/><path d="M2052.06 261v4.98m0 4.97v9.96m0 4.98v9.96m0 4.97v9.96m0 4.98v9.95m0 4.97v9.95m0 4.98v9.95m0 4.98v9.95m0 4.98v9.95m0 5v9.94m0 4.98v9.95m0 4.98v9.95m0 4.98v9.95m0 4.97v9.96m0 4.97V475m0 4.96v9.96m0 4.97v9.95m0 4.97v9.95m0 4.98v9.95m0 4.98v9.95m0 4.98v9.96m0 4.98v9.95m0 4.97v9.95m0 4.98v9.95m0 4.98v9.95m0 4.98v9.95m0 5v9.94m0 4.97v9.97m0 4.97V684m0 4.97v9.96m0 4.97v9.96m0 4.97v9.95m0 4.98v9.95m0 5v9.94m0 4.98v9.95m0 4.98v9.95m0 4.98v9.95m0 4.98v9.96m0 4.98v9.95m0 4.97v9.95m0 4.98v9.95m0 4.97v9.96m0 4.97V893m0 4.98v9.96m0 4.97v9.97m0 4.97v9.95m0 4.97v9.95m0 4.98v9.95m0 4.98v9.95m0 4.98v9.95m0 5v9.94m0 4.98v9.95m0 4.98v9.95m0 4.98v9.95m0 4.98v9.96m0 4.97v9.96m0 4.96v9.96m0 4.97v9.95m0 4.97v9.96m0 4.97v9.95m0 4.98v9.95m0 4.98v9.96m0 4.98v9.95m0 4.97v9.95m0 4.98v9.95m0 4.98v9.95m0 4.98v9.95m0 5v9.94m0 4.98v9.95m0 4.97v9.96m0 4.97v9.96m0 4.97v9.96m0 4.97v9.96m0 4.96v9.95m0 5v9.94m0 4.98v9.95m0 4.98v9.95m0 4.98v9.95m0 4.98v9.96m0 4.98v9.95m0 4.97v9.95m0 4.98v9.95m0 4.98v9.95m0 4.97v9.96m0 4.98v9.96m0 4.97v9.97m0 4.97v9.96m0 4.97v9.95m0 4.98v9.95m0 4.98v9.95m0 4.98v9.95m0 5v9.94m0 4.98v9.95m0 4.98v9.95m0 4.98v9.95m0 4.98v9.96m0 4.98v9.95m0 4.96v9.96m0 4.97v9.95m0 4.97v4.98" stroke="#333" fill="none"/><path d="M2052.56 261h-1v-.5h1zM2052.56 1739.5h-1v-.5h1z" stroke="#333" stroke-width=".05" fill="#333"/><path d="M2280.04 168c0-4.42 3.6-8 8-8h136c4.4 0 8 3.58 8 8v84c0 4.42-3.6 8-8 8h-136c-4.4 0-8-3.58-8-8z" stroke="#333" fill="#fff"/><use xlink:href="#y" transform="matrix(1,0,0,1,2280.0444565604885,160) translate(18.68 55.025)"/><use xlink:href="#x" transform="matrix(1,0,0,1,2280.0444565604885,160) translate(65.53 55.025)"/><path d="M2280.04 1748c0-4.42 3.6-8 8-8h136c4.4 0 8 3.58 8 8v84c0 4.42-3.6 8-8 8h-136c-4.4 0-8-3.58-8-8z" stroke="#333" fill="#fff"/><use xlink:href="#y" transform="matrix(1,0,0,1,2280.0444565604885,1740) translate(18.68 55.025)"/><use xlink:href="#x" transform="matrix(1,0,0,1,2280.0444565604885,1740) translate(65.53 55.025)"/><path d="M2356.04 261v4.98m0 4.97v9.96m0 4.98v9.96m0 4.97v9.96m0 4.98v9.95m0 4.97v9.95m0 4.98v9.95m0 4.98v9.95m0 4.98v9.95m0 5v9.94m0 4.98v9.95m0 4.98v9.95m0 4.98v9.95m0 4.97v9.96m0 4.97V475m0 4.96v9.96m0 4.97v9.95m0 4.97v9.95m0 4.98v9.95m0 4.98v9.95m0 4.98v9.96m0 4.98v9.95m0 4.97v9.95m0 4.98v9.95m0 4.98v9.95m0 4.98v9.95m0 5v9.94m0 4.97v9.97m0 4.97V684m0 4.97v9.96m0 4.97v9.96m0 4.97v9.95m0 4.98v9.95m0 5v9.94m0 4.98v9.95m0 4.98v9.95m0 4.98v9.95m0 4.98v9.96m0 4.98v9.95m0 4.97v9.95m0 4.98v9.95m0 4.97v9.96m0 4.97V893m0 4.98v9.96m0 4.97v9.97m0 4.97v9.95m0 4.97v9.95m0 4.98v9.95m0 4.98v9.95m0 4.98v9.95m0 5v9.94m0 4.98v9.95m0 4.98v9.95m0 4.98v9.95m0 4.98v9.96m0 4.97v9.96m0 4.96v9.96m0 4.97v9.95m0 4.97v9.96m0 4.97v9.95m0 4.98v9.95m0 4.98v9.96m0 4.98v9.95m0 4.97v9.95m0 4.98v9.95m0 4.98v9.95m0 4.98v9.95m0 5v9.94m0 4.98v9.95m0 4.97v9.96m0 4.97v9.96m0 4.97v9.96m0 4.97v9.96m0 4.96v9.95m0 5v9.94m0 4.98v9.95m0 4.98v9.95m0 4.98v9.95m0 4.98v9.96m0 4.98v9.95m0 4.97v9.95m0 4.98v9.95m0 4.98v9.95m0 4.97v9.96m0 4.98v9.96m0 4.97v9.97m0 4.97v9.96m0 4.97v9.95m0 4.98v9.95m0 4.98v9.95m0 4.98v9.95m0 5v9.94m0 4.98v9.95m0 4.98v9.95m0 4.98v9.95m0 4.98v9.96m0 4.98v9.95m0 4.96v9.96m0 4.97v9.95m0 4.97v4.98" stroke="#333" fill="none"/><path d="M2356.54 261h-1v-.5h1zM2356.54 1739.5h-1v-.5h1z" stroke="#333" stroke-width=".05" fill="#333"/><path d="M2584.03 168c0-4.42 3.58-8 8-8h136c4.4 0 8 3.58 8 8v84c0 4.42-3.6 8-8 8h-136c-4.42 0-8-3.58-8-8z" stroke="#333" fill="#fff"/><use xlink:href="#z" transform="matrix(1,0,0,1,2584.026673936293,160) translate(13.154999999999996 55.025)"/><use xlink:href="#x" transform="matrix(1,0,0,1,2584.026673936293,160) translate(71.055 55.025)"/><path d="M2584.03 1748c0-4.42 3.58-8 8-8h136c4.4 0 8 3.58 8 8v84c0 4.42-3.6 8-8 8h-136c-4.42 0-8-3.58-8-8z" stroke="#333" fill="#fff"/><use xlink:href="#z" transform="matrix(1,0,0,1,2584.026673936293,1740) translate(13.154999999999996 55.025)"/><use xlink:href="#x" transform="matrix(1,0,0,1,2584.026673936293,1740) translate(71.055 55.025)"/><path d="M2660.02 261v4.98m0 4.97v9.96m0 4.98v9.96m0 4.97v9.96m0 4.98v9.95m0 4.97v9.95m0 4.98v9.95m0 4.98v9.95m0 4.98v9.95m0 5v9.94m0 4.98v9.95m0 4.98v9.95m0 4.98v9.95m0 4.97v9.96m0 4.97V475m0 4.96v9.96m0 4.97v9.95m0 4.97v9.95m0 4.98v9.95m0 4.98v9.95m0 4.98v9.96m0 4.98v9.95m0 4.97v9.95m0 4.98v9.95m0 4.98v9.95m0 4.98v9.95m0 5v9.94m0 4.97v9.97m0 4.97V684m0 4.97v9.96m0 4.97v9.96m0 4.97v9.95m0 4.98v9.95m0 5v9.94m0 4.98v9.95m0 4.98v9.95m0 4.98v9.95m0 4.98v9.96m0 4.98v9.95m0 4.97v9.95m0 4.98v9.95m0 4.97v9.96m0 4.97V893m0 4.98v9.96m0 4.97v9.97m0 4.97v9.95m0 4.97v9.95m0 4.98v9.95m0 4.98v9.95m0 4.98v9.95m0 5v9.94m0 4.98v9.95m0 4.98v9.95m0 4.98v9.95m0 4.98v9.96m0 4.97v9.96m0 4.96v9.96m0 4.97v9.95m0 4.97v9.96m0 4.97v9.95m0 4.98v9.95m0 4.98v9.96m0 4.98v9.95m0 4.97v9.95m0 4.98v9.95m0 4.98v9.95m0 4.98v9.95m0 5v9.94m0 4.98v9.95m0 4.97v9.96m0 4.97v9.96m0 4.97v9.96m0 4.97v9.96m0 4.96v9.95m0 5v9.94m0 4.98v9.95m0 4.98v9.95m0 4.98v9.95m0 4.98v9.96m0 4.98v9.95m0 4.97v9.95m0 4.98v9.95m0 4.98v9.95m0 4.97v9.96m0 4.98v9.96m0 4.97v9.97m0 4.97v9.96m0 4.97v9.95m0 4.98v9.95m0 4.98v9.95m0 4.98v9.95m0 5v9.94m0 4.98v9.95m0 4.98v9.95m0 4.98v9.95m0 4.98v9.96m0 4.98v9.95m0 4.96v9.96m0 4.97v9.95m0 4.97v4.98" stroke="#333" fill="none"/><path d="M2660.52 261h-1v-.5h1zM2660.52 1739.5h-1v-.5h1z" stroke="#333" stroke-width=".05" fill="#333"/><path d="M2888 168c0-4.42 3.6-8 8-8h136c4.42 0 8 3.58 8 8v84c0 4.42-3.58 8-8 8h-136c-4.4 0-8-3.58-8-8z" stroke="#333" fill="#fff"/><use xlink:href="#t" transform="matrix(1,0,0,1,2888.008891312098,160) translate(19.604999999999997 55.025)"/><use xlink:href="#A" transform="matrix(1,0,0,1,2888.008891312098,160) translate(95.555 55.025)"/><path d="M2888 1748c0-4.42 3.6-8 8-8h136c4.42 0 8 3.58 8 8v84c0 4.42-3.58 8-8 8h-136c-4.4 0-8-3.58-8-8z" stroke="#333" fill="#fff"/><use xlink:href="#t" transform="matrix(1,0,0,1,2888.008891312098,1740) translate(19.604999999999997 55.025)"/><use xlink:href="#A" transform="matrix(1,0,0,1,2888.008891312098,1740) translate(95.555 55.025)"/><path d="M2964 261v4.98m0 4.97v9.96m0 4.98v9.96m0 4.97v9.96m0 4.98v9.95m0 4.97v9.95m0 4.98v9.95m0 4.98v9.95m0 4.98v9.95m0 5v9.94m0 4.98v9.95m0 4.98v9.95m0 4.98v9.95m0 4.97v9.96m0 4.97V475m0 4.96v9.96m0 4.97v9.95m0 4.97v9.95m0 4.98v9.95m0 4.98v9.95m0 4.98v9.96m0 4.98v9.95m0 4.97v9.95m0 4.98v9.95m0 4.98v9.95m0 4.98v9.95m0 5v9.94m0 4.97v9.97m0 4.97V684m0 4.97v9.96m0 4.97v9.96m0 4.97v9.95m0 4.98v9.95m0 5v9.94m0 4.98v9.95m0 4.98v9.95m0 4.98v9.95m0 4.98v9.96m0 4.98v9.95m0 4.97v9.95m0 4.98v9.95m0 4.97v9.96m0 4.97V893m0 4.98v9.96m0 4.97v9.97m0 4.97v9.95m0 4.97v9.95m0 4.98v9.95m0 4.98v9.95m0 4.98v9.95m0 5v9.94m0 4.98v9.95m0 4.98v9.95m0 4.98v9.95m0 4.98v9.96m0 4.97v9.96m0 4.96v9.96m0 4.97v9.95m0 4.97v9.96m0 4.97v9.95m0 4.98v9.95m0 4.98v9.96m0 4.98v9.95m0 4.97v9.95m0 4.98v9.95m0 4.98v9.95m0 4.98v9.95m0 5v9.94m0 4.98v9.95m0 4.97v9.96m0 4.97v9.96m0 4.97v9.96m0 4.97v9.96m0 4.96v9.95m0 5v9.94m0 4.98v9.95m0 4.98v9.95m0 4.98v9.95m0 4.98v9.96m0 4.98v9.95m0 4.97v9.95m0 4.98v9.95m0 4.98v9.95m0 4.97v9.96m0 4.98v9.96m0 4.97v9.97m0 4.97v9.96m0 4.97v9.95m0 4.98v9.95m0 4.98v9.95m0 4.98v9.95m0 5v9.94m0 4.98v9.95m0 4.98v9.95m0 4.98v9.95m0 4.98v9.96m0 4.98v9.95m0 4.96v9.96m0 4.97v9.95m0 4.97v4.98" stroke="#333" fill="none"/><path d="M2964.5 261h-1v-.5h1zM2964.5 1739.5h-1v-.5h1z" stroke="#333" stroke-width=".05" fill="#333"/><path d="M70.66 308.47c0-4.42 3.6-8 8-8h24c4.42 0 8 3.58 8 8V1731.5c0 4.42-3.58 8-8 8h-24c-4.4 0-8-3.58-8-8zM374.65 308.47c0-4.42 3.58-8 8-8h24c4.4 0 8 3.58 8 8V1731.5c0 4.42-3.6 8-8 8h-24c-4.42 0-8-3.58-8-8zM678.63 308.47c0-4.42 3.58-8 8-8h24c4.42 0 8 3.58 8 8V1731.5c0 4.42-3.58 8-8 8h-24c-4.42 0-8-3.58-8-8zM1515.66 308.47c0-4.42 3.58-8 8-8h24c4.4 0 8 3.58 8 8V1731.5c0 4.42-3.6 8-8 8h-24c-4.42 0-8-3.58-8-8zM2026.73 308.47c0-4.42 3.58-8 8-8h24c4.4 0 8 3.58 8 8V1731.5c0 4.42-3.6 8-8 8h-24c-4.42 0-8-3.58-8-8zM2330.7 308.47c0-4.42 3.6-8 8-8h24c4.43 0 8 3.58 8 8V1731.5c0 4.42-3.57 8-8 8h-24c-4.4 0-8-3.58-8-8zM2634.7 308.47c0-4.42 3.57-8 8-8h24c4.4 0 8 3.58 8 8V1731.5c0 4.42-3.6 8-8 8h-24c-4.43 0-8-3.58-8-8zM2938.67 308.47c0-4.42 3.58-8 8-8h24c4.42 0 8 3.58 8 8V1731.5c0 4.42-3.58 8-8 8h-24c-4.42 0-8-3.58-8-8z" stroke="#333" fill="#fff"/><path d="M111.16 360.43h551.08" stroke="#333" fill="none"/><path d="M111.18 360.93h-.02v-1h.02z" stroke="#333" stroke-width=".05" fill="#333"/><path d="M677 360.43l-14.26 4.64v-9.27z" stroke="#333" fill="#333"/><use xlink:href="#B" transform="matrix(1,0,0,1,315.8459202717722,334.83243243243237) translate(0.0049999999999954525 14.4)"/><path d="M719.13 400.4h124.82c6.63 0 12 5.38 12 12v15.98c0 6.63-5.37 12-12 12H735" stroke="#333" fill="none"/><path d="M719.14 400.9v-1z" stroke="#333" stroke-width=".05" fill="#333"/><path d="M720.25 440.38l14.26-4.64V445z" stroke="#333" fill="#333"/><use xlink:href="#C" transform="matrix(1,0,0,1,863.951097783463,409.5918918918918) translate(0.0049999999999954525 14.4)"/><path d="M719.13 500.34h780.14" stroke="#333" fill="none"/><path d="M719.14 500.84v-1z" stroke="#333" stroke-width=".05" fill="#333"/><path d="M1514.04 500.34l-14.27 4.63v-9.27z" stroke="#333" fill="#333"/><use xlink:href="#D" transform="matrix(1,0,0,1,966.9169883825779,474.7378378378378) translate(0.0049999999999954525 14.4)"/><use xlink:href="#E" transform="matrix(1,0,0,1,966.9169883825779,474.7378378378378) translate(119.805 14.4)"/><use xlink:href="#F" transform="matrix(1,0,0,1,966.9169883825779,474.7378378378378) translate(184.755 14.4)"/><use xlink:href="#G" transform="matrix(1,0,0,1,966.9169883825779,474.7378378378378) translate(236.605 14.4)"/><path d="M1515.16 560.3h-5m-5 0h-10m-5 0h-10m-5 0h-10m-5 0h-10.02m-5 0h-10m-5 0h-10m-5 0h-10m-5 0h-10m-5 0h-10m-5 0h-10m-5 0h-10.02m-5 0h-10m-5 0h-10m-5 0h-10m-5 0h-10m-5 0h-10m-5 0h-10m-5 0h-10m-5.02 0h-10m-5 0h-10m-5 0h-10m-5 0h-10m-5 0h-10m-5 0h-10m-5 0h-10m-5.02 0h-10m-5 0h-10m-5 0h-10m-5 0h-10m-5 0h-10m-5 0h-10m-5 0h-10m-5 0h-10.02m-5 0h-10m-5 0h-10m-5 0h-10m-5 0h-10m-5 0h-10m-5 0h-10m-5 0h-10.02m-5 0h-10m-5 0h-10m-5 0h-10m-5 0h-10m-5 0h-10m-5 0h-10m-5 0H805m-5 0h-10m-5 0h-10m-5 0h-10m-5 0h-10m-5 0h-5" stroke="#333" fill="none"/><path d="M1515.16 560.8h-.02v-1h.02z" stroke="#333" stroke-width=".05" fill="#333"/><path d="M720.25 560.3l14.26-4.64v9.27z" stroke="#333" fill="#333"/><use xlink:href="#H" transform="matrix(1,0,0,1,1090.216988382578,534.6972972972974) translate(0.004999999999999005 14.4)"/><path d="M719.13 620.26h780.14" stroke="#333" fill="none"/><path d="M719.14 620.76v-1z" stroke="#333" stroke-width=".05" fill="#333"/><path d="M1514.04 620.26l-14.27 4.63v-9.28z" stroke="#333" fill="#333"/><use xlink:href="#I" transform="matrix(1,0,0,1,1069.266988382578,594.6567567567567) translate(0.005000000000002558 14.4)"/><path d="M1556.16 680.22h454.18" stroke="#333" fill="none"/><path d="M1556.17 680.72v-1z" stroke="#333" stroke-width=".05" fill="#333"/><path d="M2025.1 680.22l-14.26 4.63v-9.27z" stroke="#333" fill="#333"/><use xlink:href="#D" transform="matrix(1,0,0,1,1722.315890599115,654.6162162162162) translate(0.0049999999999954525 14.4)"/><use xlink:href="#J" transform="matrix(1,0,0,1,1722.315890599115,654.6162162162162) translate(119.805 14.4)"/><path d="M2026.23 740.18h-5.05m-5.05 0h-10.1m-5.04 0h-10.1m-5.05 0h-10.1m-5.04 0h-10.08m-5.05 0h-10.1m-5.03 0h-10.1m-5.04 0h-10.1m-5.04 0h-10.1m-5.04 0h-10.1m-5.04 0h-10.1m-5.04 0h-10.1m-5.04 0h-10.1m-5.04 0h-10.1m-5.04 0h-10.1m-5.04 0h-10.1m-5.04 0h-10.1m-5.04 0h-10.1m-5.04 0h-10.1m-5.04 0h-10.1m-5.04 0h-10.1m-5.04 0h-10.1m-5.04 0h-10.1m-5.04 0h-10.1m-5.04 0h-10.1m-5.04 0h-10.1m-5.04 0h-10.1m-5.04 0h-10.1m-5.03 0h-10.1m-5.04 0h-10.1m-5.04 0h-5.06" stroke="#333" fill="none"/><path d="M2026.23 740.68h-.02v-1h.03z" stroke="#333" stroke-width=".05" fill="#333"/><path d="M1557.27 740.18l14.27-4.64v9.27z" stroke="#333" fill="#333"/><use xlink:href="#K" transform="matrix(1,0,0,1,1765.215890599115,714.5756756756757) translate(0.004999999999999005 14.4)"/><path d="M1556.16 800.14h454.18" stroke="#333" fill="none"/><path d="M1556.17 800.64v-1z" stroke="#333" stroke-width=".05" fill="#333"/><path d="M2025.1 800.14l-14.26 4.63v-9.27z" stroke="#333" fill="#333"/><use xlink:href="#L" transform="matrix(1,0,0,1,1743.765890599115,774.5351351351352) translate(0.005000000000002558 14.4)"/><path d="M2026.23 860.1h-5.05m-5.05 0h-10.1m-5.04 0h-10.1m-5.05 0h-10.1m-5.04 0h-10.08m-5.05 0h-10.1m-5.03 0h-10.1m-5.04 0h-10.1m-5.04 0h-10.1m-5.04 0h-10.1m-5.04 0h-10.1m-5.04 0h-10.1m-5.04 0h-10.1m-5.04 0h-10.1m-5.04 0h-10.1m-5.04 0h-10.1m-5.04 0h-10.1m-5.04 0h-10.1m-5.04 0h-10.1m-5.04 0h-10.1m-5.04 0h-10.1m-5.04 0h-10.1m-5.04 0h-10.1m-5.04 0h-10.1m-5.04 0h-10.1m-5.04 0h-10.1m-5.04 0h-10.1m-5.04 0h-10.1m-5.03 0h-10.1m-5.04 0h-10.1m-5.04 0h-5.06" stroke="#333" fill="none"/><path d="M2026.23 860.6h-.02v-1h.03z" stroke="#333" stroke-width=".05" fill="#333"/><path d="M1557.27 860.1l14.27-4.64v9.27z" stroke="#333" fill="#333"/><use xlink:href="#M" transform="matrix(1,0,0,1,1727.115890599115,834.4945945945946) translate(0.0049999999999954525 14.4)"/><use xlink:href="#N" transform="matrix(1,0,0,1,1727.115890599115,834.4945945945946) translate(86.855 14.4)"/><use xlink:href="#J" transform="matrix(1,0,0,1,1727.115890599115,834.4945945945946) translate(110.20500000000001 14.4)"/><path d="M1556.16 920.05h758.16" stroke="#333" fill="none"/><path d="M1556.17 920.55v-1z" stroke="#333" stroke-width=".05" fill="#333"/><path d="M2329.1 920.05l-14.28 4.64v-9.28z" stroke="#333" fill="#333"/><use xlink:href="#D" transform="matrix(1,0,0,1,1874.3069992870173,894.454054054054) translate(0.0049999999999954525 14.4)"/><use xlink:href="#J" transform="matrix(1,0,0,1,1874.3069992870173,894.454054054054) translate(119.805 14.4)"/><path d="M2330.2 980h-4.95m-4.95 0h-9.9m-4.97 0h-9.9m-4.96 0h-9.92m-4.95 0h-9.9m-4.97 0h-9.9m-4.96 0h-9.9m-4.97 0h-9.9m-4.96 0h-9.92m-4.95 0h-9.9m-4.97 0h-9.9m-4.96 0h-9.9m-4.97 0h-9.9m-4.97 0h-9.9m-4.96 0h-9.9m-4.97 0h-9.9m-4.96 0h-9.9m-4.96 0h-9.9m-4.97 0h-9.9m-4.96 0h-9.9m-4.96 0h-9.9m-4.96 0h-9.9m-4.97 0h-9.9m-4.96 0h-9.9m-4.96 0h-9.9m-4.97 0h-9.9m-4.95 0h-9.9m-4.97 0h-9.9m-4.97 0h-9.9m-4.95 0h-9.9m-4.97 0h-9.9m-4.96 0h-9.9m-4.97 0h-9.9m-4.97 0h-9.9m-4.96 0h-9.9m-4.97 0h-9.9m-4.96 0h-9.92m-4.96 0h-9.9m-4.97 0h-9.9m-4.96 0h-9.92m-4.96 0h-9.9m-4.96 0h-9.92m-4.95 0h-9.92m-4.96 0h-9.9m-4.96 0h-9.9m-4.97 0h-9.92m-4.95 0h-9.92m-4.94 0h-9.9m-4.97 0h-9.92m-4.95 0h-9.9m-4.97 0h-9.9m-4.96 0h-4.96" stroke="#333" fill="none"/><path d="M2330.2 980.5v-1z" stroke="#333" stroke-width=".05" fill="#333"/><path d="M1557.27 980l14.27-4.62v9.27z" stroke="#333" fill="#333"/><use xlink:href="#K" transform="matrix(1,0,0,1,1917.2069992870174,954.4135135135136) translate(0.004999999999999005 14.4)"/><path d="M1556.66 1040.47h757.16" stroke="#333" fill="none"/><path d="M1556.67 1040.97h-.5v-1h.5z" stroke="#333" stroke-width=".05" fill="#333"/><path d="M2328.6 1040.47l-14.28 4.64v-9.26z" stroke="#333" fill="#333"/><use xlink:href="#L" transform="matrix(1,0,0,1,1895.7569992870174,1014.8726351351352) translate(0.005000000000002558 14.4)"/><path d="M2330.2 1099.93h-4.95m-4.95 0h-9.9m-4.97 0h-9.9m-4.96 0h-9.92m-4.95 0h-9.9m-4.97 0h-9.9m-4.96 0h-9.9m-4.97 0h-9.9m-4.96 0h-9.92m-4.95 0h-9.9m-4.97 0h-9.9m-4.96 0h-9.9m-4.97 0h-9.9m-4.97 0h-9.9m-4.96 0h-9.9m-4.97 0h-9.9m-4.96 0h-9.9m-4.96 0h-9.9m-4.97 0h-9.9m-4.96 0h-9.9m-4.96 0h-9.9m-4.96 0h-9.9m-4.97 0h-9.9m-4.96 0h-9.9m-4.96 0h-9.9m-4.97 0h-9.9m-4.95 0h-9.9m-4.97 0h-9.9m-4.97 0h-9.9m-4.95 0h-9.9m-4.97 0h-9.9m-4.96 0h-9.9m-4.97 0h-9.9m-4.97 0h-9.9m-4.96 0h-9.9m-4.97 0h-9.9m-4.96 0h-9.92m-4.96 0h-9.9m-4.97 0h-9.9m-4.96 0h-9.92m-4.96 0h-9.9m-4.96 0h-9.92m-4.95 0h-9.92m-4.96 0h-9.9m-4.96 0h-9.9m-4.97 0h-9.92m-4.95 0h-9.92m-4.94 0h-9.9m-4.97 0h-9.92m-4.95 0h-9.9m-4.97 0h-9.9m-4.96 0h-4.96" stroke="#333" fill="none"/><path d="M2330.2 1100.43v-1z" stroke="#333" stroke-width=".05" fill="#333"/><path d="M1557.27 1099.93l14.27-4.63v9.27z" stroke="#333" fill="#333"/><use xlink:href="#O" transform="matrix(1,0,0,1,1868.9819992870173,1074.3324324324321) translate(0.0049999999999954525 14.4)"/><use xlink:href="#P" transform="matrix(1,0,0,1,1868.9819992870173,1074.3324324324321) translate(70.155 14.4)"/><use xlink:href="#J" transform="matrix(1,0,0,1,1868.9819992870173,1074.3324324324321) translate(130.455 14.4)"/><path d="M1556.16 1159.9H2618.3" stroke="#333" fill="none"/><path d="M1556.17 1160.4v-1z" stroke="#333" stroke-width=".05" fill="#333"/><path d="M2633.07 1159.9l-14.26 4.63v-9.27z" stroke="#333" fill="#333"/><use xlink:href="#D" transform="matrix(1,0,0,1,2026.2981079749197,1134.291891891892) translate(0.0049999999999954525 14.4)"/><use xlink:href="#J" transform="matrix(1,0,0,1,2026.2981079749197,1134.291891891892) translate(119.805 14.4)"/><path d="M2634.2 1219.85h-5m-4.98 0h-9.98m-4.98 0h-9.98m-4.98 0h-9.98m-4.98 0h-9.98m-4.98 0h-9.98m-4.98 0h-9.98m-4.98 0h-9.98m-4.98 0h-9.98m-4.98 0h-9.98m-4.98 0h-9.97m-4.98 0h-9.97m-5 0h-9.96m-5 0h-9.97m-5 0h-9.96m-5 0h-9.96m-4.98 0h-9.97m-5 0h-9.96m-5 0h-9.97m-5 0h-9.96m-5 0h-9.96m-4.98 0h-9.97m-5 0h-9.96m-5 0h-9.97m-5 0h-9.96m-5 0h-9.96m-4.98 0h-9.97m-5 0h-9.96m-5 0h-9.97m-5 0h-9.96m-5 0h-9.96m-4.98 0h-9.97m-5 0h-9.96m-5 0h-9.97m-5 0h-9.96m-5 0h-9.96m-4.98 0h-9.97m-5 0h-9.96m-5 0h-9.97m-5 0h-9.96m-5 0h-9.96m-4.98 0h-9.97m-5 0h-9.96m-5 0h-9.97m-5 0h-9.96m-5 0h-9.96m-4.98 0h-9.97m-5 0h-9.96m-5 0h-9.97m-5 0h-9.96m-5 0h-9.96m-4.98 0h-9.97m-5 0h-9.96m-5 0h-9.97m-5 0h-9.96m-5 0h-9.96m-4.98 0h-9.97m-5 0h-9.96m-5 0h-9.97m-5 0h-9.96m-5 0h-9.96m-4.97 0h-9.98m-4.98 0h-9.98m-5 0h-9.97m-4.98 0h-9.98m-4.98 0h-10m-4.97 0h-9.98m-4.98 0h-9.98m-5 0h-9.97m-4.98 0h-9.98m-4.98 0h-10m-4.97 0h-5" stroke="#333" fill="none"/><path d="M2634.2 1220.35h-.02v-1z" stroke="#333" stroke-width=".05" fill="#333"/><path d="M1557.27 1219.85l14.27-4.63v9.27z" stroke="#333" fill="#333"/><g><use xlink:href="#K" transform="matrix(1,0,0,1,2069.19810797492,1194.2513513513513) translate(0.004999999999999005 14.4)"/></g><path d="M1556.16 1279.8H2618.3" stroke="#333" fill="none"/><path d="M1556.17 1280.3v-1z" stroke="#333" stroke-width=".05" fill="#333"/><path d="M2633.07 1279.8l-14.26 4.65v-9.27z" stroke="#333" fill="#333"/><g><use xlink:href="#L" transform="matrix(1,0,0,1,2047.7481079749198,1254.210810810811) translate(0.005000000000002558 14.4)"/></g><path d="M2634.2 1339.77h-5m-4.98 0h-9.98m-4.98 0h-9.98m-4.98 0h-9.98m-4.98 0h-9.98m-4.98 0h-9.98m-4.98 0h-9.98m-4.98 0h-9.98m-4.98 0h-9.98m-4.98 0h-9.98m-4.98 0h-9.97m-4.98 0h-9.97m-5 0h-9.96m-5 0h-9.97m-5 0h-9.96m-5 0h-9.96m-4.98 0h-9.97m-5 0h-9.96m-5 0h-9.97m-5 0h-9.96m-5 0h-9.96m-4.98 0h-9.97m-5 0h-9.96m-5 0h-9.97m-5 0h-9.96m-5 0h-9.96m-4.98 0h-9.97m-5 0h-9.96m-5 0h-9.97m-5 0h-9.96m-5 0h-9.96m-4.98 0h-9.97m-5 0h-9.96m-5 0h-9.97m-5 0h-9.96m-5 0h-9.96m-4.98 0h-9.97m-5 0h-9.96m-5 0h-9.97m-5 0h-9.96m-5 0h-9.96m-4.98 0h-9.97m-5 0h-9.96m-5 0h-9.97m-5 0h-9.96m-5 0h-9.96m-4.98 0h-9.97m-5 0h-9.96m-5 0h-9.97m-5 0h-9.96m-5 0h-9.96m-4.98 0h-9.97m-5 0h-9.96m-5 0h-9.97m-5 0h-9.96m-5 0h-9.96m-4.98 0h-9.97m-5 0h-9.96m-5 0h-9.97m-5 0h-9.96m-5 0h-9.96m-4.97 0h-9.98m-4.98 0h-9.98m-5 0h-9.97m-4.98 0h-9.98m-4.98 0h-10m-4.97 0h-9.98m-4.98 0h-9.98m-5 0h-9.97m-4.98 0h-9.98m-4.98 0h-10m-4.97 0h-5" stroke="#333" fill="none"/><path d="M2634.2 1340.27h-.02v-1z" stroke="#333" stroke-width=".05" fill="#333"/><path d="M1557.27 1339.77l14.27-4.64v9.28z" stroke="#333" fill="#333"/><g><use xlink:href="#Q" transform="matrix(1,0,0,1,1908.3731079749198,1314.1702702702703) translate(0.0049999999999954525 14.4)"/><use xlink:href="#R" transform="matrix(1,0,0,1,1908.3731079749198,1314.1702702702703) translate(84.155 14.4)"/><use xlink:href="#S" transform="matrix(1,0,0,1,1908.3731079749198,1314.1702702702703) translate(103.105 14.4)"/><use xlink:href="#T" transform="matrix(1,0,0,1,1908.3731079749198,1314.1702702702703) translate(118.605 14.4)"/><use xlink:href="#U" transform="matrix(1,0,0,1,1908.3731079749198,1314.1702702702703) translate(232.805 14.4)"/><use xlink:href="#V" transform="matrix(1,0,0,1,1908.3731079749198,1314.1702702702703) translate(243.805 14.4)"/><use xlink:href="#W" transform="matrix(1,0,0,1,1908.3731079749198,1314.1702702702703) translate(346.65500000000003 14.4)"/><use xlink:href="#X" transform="matrix(1,0,0,1,1908.3731079749198,1314.1702702702703) translate(361.65500000000003 14.4)"/></g><path d="M1515.16 1399.73h-5m-5 0h-10m-5 0h-10m-5 0h-10m-5 0h-10.02m-5 0h-10m-5 0h-10m-5 0h-10m-5 0h-10m-5 0h-10m-5 0h-10m-5 0h-10.02m-5 0h-10m-5 0h-10m-5 0h-10m-5 0h-10m-5 0h-10m-5 0h-10m-5 0h-10m-5.02 0h-10m-5 0h-10m-5 0h-10m-5 0h-10m-5 0h-10m-5 0h-10m-5 0h-10m-5.02 0h-10m-5 0h-10m-5 0h-10m-5 0h-10m-5 0h-10m-5 0h-10m-5 0h-10m-5 0h-10.02m-5 0h-10m-5 0h-10m-5 0h-10m-5 0h-10m-5 0h-10m-5 0h-10m-5 0h-10.02m-5 0h-10m-5 0h-10m-5 0h-10m-5 0h-10m-5 0h-10m-5 0h-10m-5 0H805m-5 0h-10m-5 0h-10m-5 0h-10m-5 0h-10m-5 0h-5" stroke="#333" fill="none"/><path d="M1515.16 1400.23h-.02v-1h.02z" stroke="#333" stroke-width=".05" fill="#333"/><path d="M720.25 1399.73l14.26-4.64v9.27z" stroke="#333" fill="#333"/><g><use xlink:href="#M" transform="matrix(1,0,0,1,833.6669883825779,1374.12972972973) translate(0.0049999999999954525 14.4)"/><use xlink:href="#Y" transform="matrix(1,0,0,1,833.6669883825779,1374.12972972973) translate(86.855 14.4)"/><use xlink:href="#Z" transform="matrix(1,0,0,1,833.6669883825779,1374.12972972973) translate(98.855 14.4)"/><use xlink:href="#aa" transform="matrix(1,0,0,1,833.6669883825779,1374.12972972973) translate(156.705 14.4)"/><use xlink:href="#ab" transform="matrix(1,0,0,1,833.6669883825779,1374.12972972973) translate(205.65500000000003 14.4)"/><use xlink:href="#R" transform="matrix(1,0,0,1,833.6669883825779,1374.12972972973) translate(277.505 14.4)"/><use xlink:href="#S" transform="matrix(1,0,0,1,833.6669883825779,1374.12972972973) translate(296.455 14.4)"/><use xlink:href="#T" transform="matrix(1,0,0,1,833.6669883825779,1374.12972972973) translate(311.955 14.4)"/><use xlink:href="#U" transform="matrix(1,0,0,1,833.6669883825779,1374.12972972973) translate(426.155 14.4)"/><use xlink:href="#V" transform="matrix(1,0,0,1,833.6669883825779,1374.12972972973) translate(437.155 14.4)"/><use xlink:href="#W" transform="matrix(1,0,0,1,833.6669883825779,1374.12972972973) translate(540.005 14.4)"/><use xlink:href="#X" transform="matrix(1,0,0,1,833.6669883825779,1374.12972972973) translate(555.005 14.4)"/></g><path d="M719.13 1459.7H2922.3" stroke="#333" fill="none"/><path d="M719.14 1460.2v-1z" stroke="#333" stroke-width=".05" fill="#333"/><path d="M2937.05 1459.7l-14.26 4.62v-9.27z" stroke="#333" fill="#333"/><g><use xlink:href="#ac" transform="matrix(1,0,0,1,1513.1753659278215,1434.0891891891893) translate(0.0049999999999954525 14.4)"/><use xlink:href="#Y" transform="matrix(1,0,0,1,1513.1753659278215,1434.0891891891893) translate(150.855 14.4)"/><use xlink:href="#Z" transform="matrix(1,0,0,1,1513.1753659278215,1434.0891891891893) translate(162.855 14.4)"/><use xlink:href="#aa" transform="matrix(1,0,0,1,1513.1753659278215,1434.0891891891893) translate(220.70499999999998 14.4)"/><use xlink:href="#ab" transform="matrix(1,0,0,1,1513.1753659278215,1434.0891891891893) translate(269.655 14.4)"/><use xlink:href="#R" transform="matrix(1,0,0,1,1513.1753659278215,1434.0891891891893) translate(341.505 14.4)"/><use xlink:href="#S" transform="matrix(1,0,0,1,1513.1753659278215,1434.0891891891893) translate(360.455 14.4)"/><use xlink:href="#T" transform="matrix(1,0,0,1,1513.1753659278215,1434.0891891891893) translate(375.955 14.4)"/><use xlink:href="#U" transform="matrix(1,0,0,1,1513.1753659278215,1434.0891891891893) translate(490.155 14.4)"/><use xlink:href="#V" transform="matrix(1,0,0,1,1513.1753659278215,1434.0891891891893) translate(501.155 14.4)"/><use xlink:href="#W" transform="matrix(1,0,0,1,1513.1753659278215,1434.0891891891893) translate(604.005 14.4)"/><use xlink:href="#X" transform="matrix(1,0,0,1,1513.1753659278215,1434.0891891891893) translate(619.005 14.4)"/></g><path d="M2938.17 1519.65h-5m-5 0h-9.98m-5 0h-10m-5 0h-10m-4.98 0h-10m-5 0h-9.98m-5 0h-10m-4.98 0h-10m-5 0h-9.98m-5 0h-10m-5 0h-9.98m-5 0h-10m-4.98 0h-10m-5 0h-9.98m-5 0h-10m-4.98 0h-10m-5 0h-9.98m-5 0h-10m-5 0h-9.98m-5 0h-10m-4.98 0h-10m-5 0h-9.98m-5 0h-10m-4.98 0h-10m-5 0h-9.98m-5 0h-10m-5 0h-9.98m-5 0h-10m-4.98 0h-10m-5 0h-9.98m-5 0h-10m-4.98 0h-10m-5 0h-9.98m-5 0h-10m-5 0h-9.98m-5 0h-10m-4.98 0h-10m-5 0h-9.98m-5 0h-10m-4.98 0h-10m-5 0h-9.98m-5 0h-10m-5 0h-9.98m-5 0h-10m-4.98 0h-10m-5 0h-9.98m-5 0h-10m-4.98 0h-10m-5 0h-9.98m-5 0h-10m-5 0h-9.98m-5 0h-10m-4.98 0h-10m-5 0h-9.98m-5 0h-10m-4.98 0h-10m-5 0h-9.98m-5 0h-10m-5 0h-9.98m-5 0h-9.98m-5 0h-10m-5 0h-9.98m-5 0h-10m-4.98 0h-10m-5 0H1974m-5 0h-10m-5 0H1944m-5 0h-9.98m-5 0h-10m-5 0h-9.98m-5 0h-10m-4.98 0h-10m-5 0h-9.98m-5 0h-10m-5 0h-9.98m-5 0h-9.98m-5 0h-10m-5 0h-9.98m-5 0h-10m-4.98 0h-10m-5 0h-9.98m-5 0h-10m-5 0h-9.98m-5 0h-9.98m-5 0h-10m-5 0h-9.98m-5 0h-10m-4.98 0h-10m-5 0h-9.98m-5 0h-10m-5 0h-9.98m-5 0h-9.98m-5 0h-10m-5 0h-9.98m-5 0h-10m-4.98 0h-10m-5 0h-9.98m-5 0h-10m-5 0h-9.98m-5 0h-9.98m-5 0h-10m-5 0h-9.98m-5 0h-10m-4.98 0h-10m-5 0h-9.98m-5 0h-10m-5 0h-9.98m-5 0h-9.98m-5 0h-10m-5 0h-9.98m-5 0h-10m-4.98 0h-10m-5 0h-9.98m-5 0h-10m-5 0h-9.98m-5 0h-9.98m-5 0h-10m-5 0h-9.98m-5 0h-10m-4.98 0h-10m-5 0h-9.98m-5 0h-10m-4.98 0h-10m-5 0h-9.98m-5 0h-10m-5 0h-9.98m-5 0h-10m-4.98 0h-10m-5 0h-9.98m-5 0h-10m-4.98 0h-10m-5 0h-9.98m-5 0h-10m-5 0h-9.98m-5 0h-10m-4.98 0h-10m-5 0h-9.98m-5 0h-10m-4.98 0h-10m-5 0h-9.98m-5 0h-10m-5 0h-9.98m-5 0h-10m-4.98 0h-10m-5 0H775m-5 0h-10m-4.98 0h-10m-5 0h-5" stroke="#333" fill="none"/><path d="M2938.17 1520.15v-1z" stroke="#333" stroke-width=".05" fill="#333"/><path d="M720.25 1519.65l14.26-4.64v9.28z" stroke="#333" fill="#333"/><g><use xlink:href="#ad" transform="matrix(1,0,0,1,1795.675365927821,1494.0486486486486) translate(0.005000000000002558 14.4)"/><use xlink:href="#ae" transform="matrix(1,0,0,1,1795.675365927821,1494.0486486486486) translate(16.005000000000003 14.4)"/><use xlink:href="#W" transform="matrix(1,0,0,1,1795.675365927821,1494.0486486486486) translate(39.955000000000005 14.4)"/><use xlink:href="#af" transform="matrix(1,0,0,1,1795.675365927821,1494.0486486486486) translate(54.955000000000005 14.4)"/></g><path d="M678.13 1579.6h-247.1" stroke="#333" fill="none"/><path d="M678.13 1580.1v-1z" stroke="#333" stroke-width=".05" fill="#333"/><path d="M416.26 1579.6l14.27-4.63v9.27z" stroke="#333" fill="#333"/><g><use xlink:href="#ag" transform="matrix(1,0,0,1,451.78702895967456,1554.0081081081082) translate(0.0049999999999954525 14.4)"/><use xlink:href="#ae" transform="matrix(1,0,0,1,451.78702895967456,1554.0081081081082) translate(133.805 14.4)"/><use xlink:href="#W" transform="matrix(1,0,0,1,451.78702895967456,1554.0081081081082) translate(157.755 14.4)"/><use xlink:href="#ah" transform="matrix(1,0,0,1,451.78702895967456,1554.0081081081082) translate(172.755 14.4)"/></g><path d="M415.15 1639.57h5.14m5.14 0h10.3m5.15 0h10.28m5.15 0h10.3m5.14 0h10.3m5.15 0h10.3m5.14 0h10.3m5.14 0h10.3m5.15 0h10.3m5.14 0h10.3m5.13 0h10.3m5.15 0h10.3m5.14 0h10.3m5.15 0h10.3m5.14 0h10.3m5.15 0h10.3m5.15 0h5.14" stroke="#333" fill="none"/><path d="M415.16 1640.07v-1z" stroke="#333" stroke-width=".05" fill="#333"/><path d="M677 1639.57l-14.26 4.63v-9.27z" stroke="#333" fill="#333"/><g><use xlink:href="#ai" transform="matrix(1,0,0,1,518.6620289596746,1613.9675675675676) translate(0.004999999999999005 14.4)"/><use xlink:href="#ae" transform="matrix(1,0,0,1,518.6620289596746,1613.9675675675676) translate(11.004999999999999 14.4)"/><use xlink:href="#W" transform="matrix(1,0,0,1,518.6620289596746,1613.9675675675676) translate(34.955 14.4)"/><use xlink:href="#aj" transform="matrix(1,0,0,1,518.6620289596746,1613.9675675675676) translate(49.955 14.4)"/></g><path d="M678.13 1699.53h-4.97m-4.96 0h-9.93m-4.97 0h-9.92m-4.97 0h-9.92m-4.96 0h-9.93m-4.98 0h-9.93m-4.97 0h-9.93m-4.97 0h-9.93m-4.96 0H554m-4.95 0h-9.93m-4.97 0h-9.93m-4.96 0h-9.93m-4.97 0h-9.93m-4.96 0h-9.93m-4.96 0h-9.93m-4.97 0h-9.93m-4.96 0h-9.94m-4.97 0h-9.94m-4.96 0h-9.93m-4.96 0h-9.92m-4.97 0h-9.92m-4.96 0h-9.93m-4.98 0h-9.93m-4.97 0h-9.93m-4.96 0h-9.93m-4.96 0h-9.93m-4.95 0h-9.93m-4.97 0h-9.93m-4.96 0h-9.93m-4.97 0h-9.92m-4.97 0h-9.93m-4.96 0h-9.93m-4.97 0h-9.93m-4.96 0h-9.94m-4.97 0h-9.93m-4.97 0h-9.93m-4.96 0H137m-4.97 0h-4.95" stroke="#333" fill="none"/><path d="M678.13 1700.03v-1z" stroke="#333" stroke-width=".05" fill="#333"/><path d="M112.28 1699.53l14.27-4.64v9.26z" stroke="#333" fill="#333"/><g><use xlink:href="#ai" transform="matrix(1,0,0,1,366.6709202717722,1673.9270270270272) translate(0.004999999999999005 14.4)"/><use xlink:href="#ae" transform="matrix(1,0,0,1,366.6709202717722,1673.9270270270272) translate(11.004999999999999 14.4)"/><use xlink:href="#W" transform="matrix(1,0,0,1,366.6709202717722,1673.9270270270272) translate(34.955 14.4)"/><use xlink:href="#aj" transform="matrix(1,0,0,1,366.6709202717722,1673.9270270270272) translate(49.955 14.4)"/></g><defs><path fill="#333" d="M205 0l-28-72H64L36 0H1l101-248h38L239 0h-34zm-38-99l-47-123c-12 45-31 82-46 123h93" id="ak"/><path fill="#333" d="M85-194c31 0 48 13 60 33l-1-100h32l1 261h-30c-2-10 0-23-3-31C134-8 116 4 85 4 32 4 16-35 15-94c0-66 23-100 70-100zm9 24c-40 0-46 34-46 75 0 40 6 74 45 74 42 0 51-32 51-76 0-42-9-74-50-73" id="al"/><path fill="#333" d="M141-36C126-15 110 5 73 4 37 3 15-17 15-53c-1-64 63-63 125-63 3-35-9-54-41-54-24 1-41 7-42 31l-33-3c5-37 33-52 76-52 45 0 72 20 72 64v82c-1 20 7 32 28 27v20c-31 9-61-2-59-35zM48-53c0 20 12 33 32 33 41-3 63-29 60-74-43 2-92-5-92 41" id="am"/><path fill="#333" d="M115-194c55 1 70 41 70 98S169 2 115 4C84 4 66-9 55-30l1 105H24l-1-265h31l2 30c10-21 28-34 59-34zm-8 174c40 0 45-34 45-75s-6-73-45-74c-42 0-51 32-51 76 0 43 10 73 51 73" id="an"/><path fill="#333" d="M59-47c-2 24 18 29 38 22v24C64 9 27 4 27-40v-127H5v-23h24l9-43h21v43h35v23H59v120" id="ao"/><path fill="#333" d="M100-194c63 0 86 42 84 106H49c0 40 14 67 53 68 26 1 43-12 49-29l28 8c-11 28-37 45-77 45C44 4 14-33 15-96c1-61 26-98 85-98zm52 81c6-60-76-77-97-28-3 7-6 17-6 28h103" id="ap"/><g id="a"><use transform="matrix(0.03703703703703704,0,0,0.03703703703703704,0,0)" xlink:href="#ak"/><use transform="matrix(0.03703703703703704,0,0,0.03703703703703704,8.88888888888889,0)" xlink:href="#al"/><use transform="matrix(0.03703703703703704,0,0,0.03703703703703704,16.296296296296298,0)" xlink:href="#am"/><use transform="matrix(0.03703703703703704,0,0,0.03703703703703704,23.703703703703706,0)" xlink:href="#an"/><use transform="matrix(0.03703703703703704,0,0,0.03703703703703704,31.111111111111114,0)" xlink:href="#ao"/><use transform="matrix(0.03703703703703704,0,0,0.03703703703703704,34.81481481481482,0)" xlink:href="#ap"/><use transform="matrix(0.03703703703703704,0,0,0.03703703703703704,42.22222222222223,0)" xlink:href="#al"/></g><path fill="#333" d="M101-234c-31-9-42 10-38 44h38v23H63V0H32v-167H5v-23h27c-7-52 17-82 69-68v24" id="aq"/><path fill="#333" d="M114-163C36-179 61-72 57 0H25l-1-190h30c1 12-1 29 2 39 6-27 23-49 58-41v29" id="ar"/><path fill="#333" d="M100-194c62-1 85 37 85 99 1 63-27 99-86 99S16-35 15-95c0-66 28-99 85-99zM99-20c44 1 53-31 53-75 0-43-8-75-51-75s-53 32-53 75 10 74 51 75" id="as"/><path fill="#333" d="M210-169c-67 3-38 105-44 169h-31v-121c0-29-5-50-35-48C34-165 62-65 56 0H25l-1-190h30c1 10-1 24 2 32 10-44 99-50 107 0 11-21 27-35 58-36 85-2 47 119 55 194h-31v-121c0-29-5-49-35-48" id="at"/><g id="b"><use transform="matrix(0.03703703703703704,0,0,0.03703703703703704,0,0)" xlink:href="#aq"/><use transform="matrix(0.03703703703703704,0,0,0.03703703703703704,3.703703703703704,0)" xlink:href="#ar"/><use transform="matrix(0.03703703703703704,0,0,0.03703703703703704,8.111111111111112,0)" xlink:href="#as"/><use transform="matrix(0.03703703703703704,0,0,0.03703703703703704,15.51851851851852,0)" xlink:href="#at"/></g><path fill="#333" d="M143 4C61 4 22-44 18-125c-5-107 100-154 193-111 17 8 29 25 37 43l-32 9c-13-25-37-40-76-40-61 0-88 39-88 99 0 61 29 100 91 101 35 0 62-11 79-27v-45h-74v-28h105v86C228-13 192 4 143 4" id="au"/><path fill="#333" d="M24-231v-30h32v30H24zM24 0v-190h32V0H24" id="av"/><path fill="#333" d="M197 0v-115H63V0H30v-248h33v105h134v-105h34V0h-34" id="aw"/><path fill="#333" d="M84 4C-5 8 30-112 23-190h32v120c0 31 7 50 39 49 72-2 45-101 50-169h31l1 190h-30c-1-10 1-25-2-33-11 22-28 36-60 37" id="ax"/><path fill="#333" d="M115-194c53 0 69 39 70 98 0 66-23 100-70 100C84 3 66-7 56-30L54 0H23l1-261h32v101c10-23 28-34 59-34zm-8 174c40 0 45-34 45-75 0-40-5-75-45-74-42 0-51 32-51 76 0 43 10 73 51 73" id="ay"/><g id="c"><use transform="matrix(0.03703703703703704,0,0,0.03703703703703704,0,0)" xlink:href="#au"/><use transform="matrix(0.03703703703703704,0,0,0.03703703703703704,10.370370370370372,0)" xlink:href="#av"/><use transform="matrix(0.03703703703703704,0,0,0.03703703703703704,13.296296296296298,0)" xlink:href="#ao"/><use transform="matrix(0.03703703703703704,0,0,0.03703703703703704,17,0)" xlink:href="#aw"/><use transform="matrix(0.03703703703703704,0,0,0.03703703703703704,26.592592592592595,0)" xlink:href="#ax"/><use transform="matrix(0.03703703703703704,0,0,0.03703703703703704,34,0)" xlink:href="#ay"/></g><path fill="#333" d="M135-143c-3-34-86-38-87 0 15 53 115 12 119 90S17 21 10-45l28-5c4 36 97 45 98 0-10-56-113-15-118-90-4-57 82-63 122-42 12 7 21 19 24 35" id="az"/><g id="d"><use transform="matrix(0.03703703703703704,0,0,0.03703703703703704,0,0)" xlink:href="#ax"/><use transform="matrix(0.03703703703703704,0,0,0.03703703703703704,7.407407407407408,0)" xlink:href="#az"/><use transform="matrix(0.03703703703703704,0,0,0.03703703703703704,14.074074074074076,0)" xlink:href="#ap"/><use transform="matrix(0.03703703703703704,0,0,0.03703703703703704,21.481481481481485,0)" xlink:href="#ar"/></g><path fill="#333" d="M153-248C145-148 188 4 80 4 36 3 13-21 6-62l32-5c4 25 16 42 43 43 27 0 39-20 39-49v-147H72v-28h81" id="aA"/><path fill="#333" d="M240 0l2-218c-23 76-54 145-80 218h-23L58-218 59 0H30v-248h44l77 211c21-75 51-140 76-211h43V0h-30" id="aB"/><path fill="#333" d="M160-131c35 5 61 23 61 61C221 17 115-2 30 0v-248c76 3 177-17 177 60 0 33-19 50-47 57zm-97-11c50-1 110 9 110-42 0-47-63-36-110-37v79zm0 115c55-2 124 14 124-45 0-56-70-42-124-44v89" id="aC"/><g id="e"><use transform="matrix(0.03703703703703704,0,0,0.03703703703703704,0,0)" xlink:href="#aA"/><use transform="matrix(0.03703703703703704,0,0,0.03703703703703704,6.666666666666668,0)" xlink:href="#aB"/><use transform="matrix(0.03703703703703704,0,0,0.03703703703703704,17.740740740740744,0)" xlink:href="#aC"/><use transform="matrix(0.03703703703703704,0,0,0.03703703703703704,26.629629629629633,0)" xlink:href="#am"/><use transform="matrix(0.03703703703703704,0,0,0.03703703703703704,34.03703703703704,0)" xlink:href="#ar"/><use transform="matrix(0.03703703703703704,0,0,0.03703703703703704,38.44444444444444,0)" xlink:href="#ay"/><use transform="matrix(0.03703703703703704,0,0,0.03703703703703704,45.85185185185185,0)" xlink:href="#av"/><use transform="matrix(0.03703703703703704,0,0,0.03703703703703704,48.777777777777764,0)" xlink:href="#ap"/><use transform="matrix(0.03703703703703704,0,0,0.03703703703703704,56.185185185185176,0)" xlink:href="#ar"/><path fill="#8080ff" d="M-.67.92h61.93v.98H-.67z"/></g><path fill="#a9afb8" d="M76-208v77h127v40H76V0H24v-248h183v40H76" id="aD"/><path fill="#a9afb8" d="M25-224v-37h50v37H25zM25 0v-190h50V0H25" id="aE"/><path fill="#a9afb8" d="M135-194c87-1 58 113 63 194h-50c-7-57 23-157-34-157-59 0-34 97-39 157H25l-1-190h47c2 12-1 28 3 38 12-26 28-41 61-42" id="aF"/><path fill="#a9afb8" d="M88-194c31-1 46 15 58 34l-1-101h50l1 261h-48c-2-10 0-23-3-31C134-8 116 4 84 4 32 4 16-41 15-95c0-56 19-97 73-99zm17 164c33 0 40-30 41-66 1-37-9-64-41-64s-38 30-39 65c0 43 13 65 39 65" id="aG"/><g id="f"><use transform="matrix(0.0728395061728395,0,0,0.0728395061728395,0,0)" xlink:href="#aD"/><use transform="matrix(0.0728395061728395,0,0,0.0728395061728395,15.95185185185185,0)" xlink:href="#aE"/><use transform="matrix(0.0728395061728395,0,0,0.0728395061728395,23.235802469135802,0)" xlink:href="#aF"/><use transform="matrix(0.0728395061728395,0,0,0.0728395061728395,39.187654320987654,0)" xlink:href="#aG"/></g><path fill="#a9afb8" d="M238-95c0 69-44 99-111 99C63 4 22-25 22-93v-155h51v151c-1 38 19 59 55 60 90 1 49-130 58-211h52v153" id="aH"/><path fill="#a9afb8" d="M137-138c1-29-70-34-71-4 15 46 118 7 119 86 1 83-164 76-172 9l43-7c4 19 20 25 44 25 33 8 57-30 24-41C81-84 22-81 20-136c-2-80 154-74 161-7" id="aI"/><path fill="#a9afb8" d="M185-48c-13 30-37 53-82 52C43 2 14-33 14-96s30-98 90-98c62 0 83 45 84 108H66c0 31 8 55 39 56 18 0 30-7 34-22zm-45-69c5-46-57-63-70-21-2 6-4 13-4 21h74" id="aJ"/><path fill="#a9afb8" d="M135-150c-39-12-60 13-60 57V0H25l-1-190h47c2 13-1 29 3 40 6-28 27-53 61-41v41" id="aK"/><g id="g"><use transform="matrix(0.0728395061728395,0,0,0.0728395061728395,0,0)" xlink:href="#aH"/><use transform="matrix(0.0728395061728395,0,0,0.0728395061728395,18.86543209876543,0)" xlink:href="#aI"/><use transform="matrix(0.0728395061728395,0,0,0.0728395061728395,33.43333333333333,0)" xlink:href="#aJ"/><use transform="matrix(0.0728395061728395,0,0,0.0728395061728395,48.00123456790123,0)" xlink:href="#aK"/></g><path fill="#a9afb8" d="M135-194c52 0 70 43 70 98 0 56-19 99-73 100-30 1-46-15-58-35L72 0H24l1-261h50v104c11-23 29-37 60-37zM114-30c31 0 40-27 40-66 0-37-7-63-39-63s-41 28-41 65c0 36 8 64 40 64" id="aL"/><path fill="#a9afb8" d="M123 10C108 53 80 86 19 72V37c35 8 53-11 59-39L3-190h52l48 148c12-52 28-100 44-148h51" id="aM"/><g id="h"><use transform="matrix(0.0728395061728395,0,0,0.0728395061728395,0,0)" xlink:href="#aL"/><use transform="matrix(0.0728395061728395,0,0,0.0728395061728395,15.95185185185185,0)" xlink:href="#aM"/></g><path fill="#a9afb8" d="M24 0v-248h52V0H24" id="aN"/><path fill="#a9afb8" d="M24-248c120-7 223 5 221 122C244-46 201 0 124 0H24v-248zM76-40c74 7 117-18 117-86 0-67-45-88-117-82v168" id="aO"/><g id="i"><use transform="matrix(0.0728395061728395,0,0,0.0728395061728395,0,0)" xlink:href="#aN"/><use transform="matrix(0.0728395061728395,0,0,0.0728395061728395,7.28395061728395,0)" xlink:href="#aO"/></g><path fill="#a9afb8" d="M169-182c-1-43-94-46-97-3 18 66 151 10 154 114 3 95-165 93-204 36-6-8-10-19-12-30l50-8c3 46 112 56 116 5-17-69-150-10-154-114-4-87 153-88 188-35 5 8 8 18 10 28" id="aP"/><path fill="#a9afb8" d="M135-194c53 0 70 44 70 98 0 56-19 98-73 100-31 1-45-17-59-34 3 33 2 69 2 105H25l-1-265h48c2 10 0 23 3 31 11-24 29-35 60-35zM114-30c33 0 39-31 40-66 0-38-9-64-40-64-56 0-55 130 0 130" id="aQ"/><path fill="#a9afb8" d="M190-63c-7 42-38 67-86 67-59 0-84-38-90-98-12-110 154-137 174-36l-49 2c-2-19-15-32-35-32-30 0-35 28-38 64-6 74 65 87 74 30" id="aR"/><path fill="#a9afb8" d="M133-34C117-15 103 5 69 4 32 3 11-16 11-54c-1-60 55-63 116-61 1-26-3-47-28-47-18 1-26 9-28 27l-52-2c7-38 36-58 82-57s74 22 75 68l1 82c-1 14 12 18 25 15v27c-30 8-71 5-69-32zm-48 3c29 0 43-24 42-57-32 0-66-3-65 30 0 17 8 27 23 27" id="aS"/><path fill="#a9afb8" d="M25 0v-261h50V0H25" id="aT"/><path fill="#a9afb8" d="M12 0v-35l95-120H19v-35h142v35L67-36h103V0H12" id="aU"/><path fill="#a9afb8" d="M115-3C79 11 28 4 28-45v-112H4v-33h27l15-45h31v45h36v33H77v99c-1 23 16 31 38 25v30" id="aV"/><path fill="#a9afb8" d="M110-194c64 0 96 36 96 99 0 64-35 99-97 99-61 0-95-36-95-99 0-62 34-99 96-99zm-1 164c35 0 45-28 45-65 0-40-10-65-43-65-34 0-45 26-45 65 0 36 10 65 43 65" id="aW"/><g id="j"><use transform="matrix(0.0728395061728395,0,0,0.0728395061728395,0,0)" xlink:href="#aP"/><use transform="matrix(0.0728395061728395,0,0,0.0728395061728395,17.48148148148148,0)" xlink:href="#aQ"/><use transform="matrix(0.0728395061728395,0,0,0.0728395061728395,33.43333333333333,0)" xlink:href="#aJ"/><use transform="matrix(0.0728395061728395,0,0,0.0728395061728395,48.00123456790123,0)" xlink:href="#aR"/><use transform="matrix(0.0728395061728395,0,0,0.0728395061728395,62.56913580246913,0)" xlink:href="#aE"/><use transform="matrix(0.0728395061728395,0,0,0.0728395061728395,69.85308641975308,0)" xlink:href="#aS"/><use transform="matrix(0.0728395061728395,0,0,0.0728395061728395,84.42098765432098,0)" xlink:href="#aT"/><use transform="matrix(0.0728395061728395,0,0,0.0728395061728395,91.70493827160493,0)" xlink:href="#aE"/><use transform="matrix(0.0728395061728395,0,0,0.0728395061728395,98.9888888888889,0)" xlink:href="#aU"/><use transform="matrix(0.0728395061728395,0,0,0.0728395061728395,112.1,0)" xlink:href="#aS"/><use transform="matrix(0.0728395061728395,0,0,0.0728395061728395,126.66790123456789,0)" xlink:href="#aV"/><use transform="matrix(0.0728395061728395,0,0,0.0728395061728395,135.33580246913579,0)" xlink:href="#aE"/><use transform="matrix(0.0728395061728395,0,0,0.0728395061728395,142.61975308641973,0)" xlink:href="#aW"/><use transform="matrix(0.0728395061728395,0,0,0.0728395061728395,158.57160493827158,0)" xlink:href="#aF"/></g><path fill="#a9afb8" d="M67-93c0 74 22 123 53 168H70C40 30 18-18 18-93s22-123 52-168h50c-32 44-53 94-53 168" id="aX"/><path fill="#a9afb8" d="M24-248c93 1 206-16 204 79-1 75-69 88-152 82V0H24v-248zm52 121c47 0 100 7 100-41 0-47-54-39-100-39v80" id="aY"/><path fill="#a9afb8" d="M195-6C206 82 75 100 31 46c-4-6-6-13-8-21l49-6c3 16 16 24 34 25 40 0 42-37 40-79-11 22-30 35-61 35-53 0-70-43-70-97 0-56 18-96 73-97 30 0 46 14 59 34l2-30h47zm-90-29c32 0 41-27 41-63 0-35-9-62-40-62-32 0-39 29-40 63 0 36 9 62 39 62" id="aZ"/><path fill="#a9afb8" d="M102-93c0 74-22 123-52 168H0C30 29 54-18 53-93c0-74-22-123-53-168h50c30 45 52 94 52 168" id="ba"/><g id="k"><use transform="matrix(0.0728395061728395,0,0,0.0728395061728395,0,0)" xlink:href="#aX"/><use transform="matrix(0.0728395061728395,0,0,0.0728395061728395,8.667901234567902,0)" xlink:href="#aY"/><use transform="matrix(0.0728395061728395,0,0,0.0728395061728395,26.14938271604938,0)" xlink:href="#aW"/><use transform="matrix(0.0728395061728395,0,0,0.0728395061728395,42.10123456790124,0)" xlink:href="#aI"/><use transform="matrix(0.0728395061728395,0,0,0.0728395061728395,56.66913580246913,0)" xlink:href="#aV"/><use transform="matrix(0.0728395061728395,0,0,0.0728395061728395,65.33703703703704,0)" xlink:href="#aZ"/><use transform="matrix(0.0728395061728395,0,0,0.0728395061728395,81.28888888888889,0)" xlink:href="#aK"/><use transform="matrix(0.0728395061728395,0,0,0.0728395061728395,91.48641975308642,0)" xlink:href="#aJ"/><use transform="matrix(0.0728395061728395,0,0,0.0728395061728395,106.05432098765432,0)" xlink:href="#aI"/><use transform="matrix(0.0728395061728395,0,0,0.0728395061728395,120.62222222222222,0)" xlink:href="#ba"/></g><path fill="#a9afb8" d="M153-248C145-148 188 4 80 4 36 3 13-21 6-62l32-5c4 25 16 42 43 43 27 0 39-20 39-49v-147H72v-28h81" id="bb"/><path fill="#a9afb8" d="M141-36C126-15 110 5 73 4 37 3 15-17 15-53c-1-64 63-63 125-63 3-35-9-54-41-54-24 1-41 7-42 31l-33-3c5-37 33-52 76-52 45 0 72 20 72 64v82c-1 20 7 32 28 27v20c-31 9-61-2-59-35zM48-53c0 20 12 33 32 33 41-3 63-29 60-74-43 2-92-5-92 41" id="bc"/><path fill="#a9afb8" d="M24-231v-30h32v30H24zM24 0v-190h32V0H24" id="bd"/><path fill="#a9afb8" d="M210-169c-67 3-38 105-44 169h-31v-121c0-29-5-50-35-48C34-165 62-65 56 0H25l-1-190h30c1 10-1 24 2 32 10-44 99-50 107 0 11-21 27-35 58-36 85-2 47 119 55 194h-31v-121c0-29-5-49-35-48" id="be"/><path fill="#a9afb8" d="M100-194c63 0 86 42 84 106H49c0 40 14 67 53 68 26 1 43-12 49-29l28 8c-11 28-37 45-77 45C44 4 14-33 15-96c1-61 26-98 85-98zm52 81c6-60-76-77-97-28-3 7-6 17-6 28h103" id="bf"/><g id="l"><use transform="matrix(0.04248971193415638,0,0,0.04248971193415638,0,0)" xlink:href="#bb"/><use transform="matrix(0.04248971193415638,0,0,0.04248971193415638,7.648148148148148,0)" xlink:href="#bc"/><use transform="matrix(0.04248971193415638,0,0,0.04248971193415638,16.14609053497942,0)" xlink:href="#bd"/><use transform="matrix(0.04248971193415638,0,0,0.04248971193415638,19.502777777777776,0)" xlink:href="#be"/><use transform="matrix(0.04248971193415638,0,0,0.04248971193415638,32.20720164609053,0)" xlink:href="#bf"/></g><path fill="#a9afb8" d="M32 76v-337h29V76H32" id="bg"/><use transform="matrix(0.04248971193415638,0,0,0.04248971193415638,0,0)" xlink:href="#bg" id="m"/><path fill="#a9afb8" d="M240 0l2-218c-23 76-54 145-80 218h-23L58-218 59 0H30v-248h44l77 211c21-75 51-140 76-211h43V0h-30" id="bh"/><path fill="#a9afb8" d="M114-163C36-179 61-72 57 0H25l-1-190h30c1 12-1 29 2 39 6-27 23-49 58-41v29" id="bi"/><path fill="#a9afb8" d="M96-169c-40 0-48 33-48 73s9 75 48 75c24 0 41-14 43-38l32 2c-6 37-31 61-74 61-59 0-76-41-82-99-10-93 101-131 147-64 4 7 5 14 7 22l-32 3c-4-21-16-35-41-35" id="bj"/><path fill="#a9afb8" d="M106-169C34-169 62-67 57 0H25v-261h32l-1 103c12-21 28-36 61-36 89 0 53 116 60 194h-32v-121c2-32-8-49-39-48" id="bk"/><g id="n"><use transform="matrix(0.04248971193415638,0,0,0.04248971193415638,0,0)" xlink:href="#bh"/><use transform="matrix(0.04248971193415638,0,0,0.04248971193415638,12.704423868312757,0)" xlink:href="#bc"/><use transform="matrix(0.04248971193415638,0,0,0.04248971193415638,21.20236625514403,0)" xlink:href="#bi"/><use transform="matrix(0.04248971193415638,0,0,0.04248971193415638,26.25864197530864,0)" xlink:href="#bj"/><use transform="matrix(0.04248971193415638,0,0,0.04248971193415638,33.90679012345679,0)" xlink:href="#bk"/></g><path fill="#a9afb8" d="M27 0v-27h64v-190l-56 39v-29l58-41h29v221h61V0H27" id="bl"/><path fill="#a9afb8" d="M101-251c68 0 85 55 85 127S166 4 100 4C33 4 14-52 14-124c0-73 17-127 87-127zm-1 229c47 0 54-49 54-102s-4-102-53-102c-51 0-55 48-55 102 0 53 5 102 54 102" id="bm"/><path fill="#a9afb8" d="M68-38c1 34 0 65-14 84H32c9-13 17-26 17-46H33v-38h35" id="bn"/><g id="o"><use transform="matrix(0.04248971193415638,0,0,0.04248971193415638,0,0)" xlink:href="#bl"/><use transform="matrix(0.04248971193415638,0,0,0.04248971193415638,8.497942386831275,0)" xlink:href="#bm"/><use transform="matrix(0.04248971193415638,0,0,0.04248971193415638,16.99588477366255,0)" xlink:href="#bn"/></g><path fill="#a9afb8" d="M101-251c82-7 93 87 43 132L82-64C71-53 59-42 53-27h129V0H18c2-99 128-94 128-182 0-28-16-43-45-43s-46 15-49 41l-32-3c6-41 34-60 81-64" id="bo"/><g id="p"><use transform="matrix(0.04248971193415638,0,0,0.04248971193415638,0,0)" xlink:href="#bo"/><use transform="matrix(0.04248971193415638,0,0,0.04248971193415638,8.497942386831275,0)" xlink:href="#bm"/><use transform="matrix(0.04248971193415638,0,0,0.04248971193415638,16.99588477366255,0)" xlink:href="#bo"/><use transform="matrix(0.04248971193415638,0,0,0.04248971193415638,25.493827160493822,0)" xlink:href="#bo"/></g><path fill="#333" d="M30 0v-248h187v28H63v79h144v27H63v87h162V0H30" id="bp"/><path fill="#333" d="M117-194c89-4 53 116 60 194h-32v-121c0-31-8-49-39-48C34-167 62-67 57 0H25l-1-190h30c1 10-1 24 2 32 11-22 29-35 61-36" id="bq"/><path fill="#333" d="M177-190C167-65 218 103 67 71c-23-6-38-20-44-43l32-5c15 47 100 32 89-28v-30C133-14 115 1 83 1 29 1 15-40 15-95c0-56 16-97 71-98 29-1 48 16 59 35 1-10 0-23 2-32h30zM94-22c36 0 50-32 50-73 0-42-14-75-50-75-39 0-46 34-46 75s6 73 46 73" id="br"/><g id="q"><use transform="matrix(0.05,0,0,0.05,0,0)" xlink:href="#bp"/><use transform="matrix(0.05,0,0,0.05,12,0)" xlink:href="#bq"/><use transform="matrix(0.05,0,0,0.05,22,0)" xlink:href="#br"/><use transform="matrix(0.05,0,0,0.05,32,0)" xlink:href="#av"/><use transform="matrix(0.05,0,0,0.05,35.95,0)" xlink:href="#bq"/><use transform="matrix(0.05,0,0,0.05,45.95,0)" xlink:href="#ap"/></g><path fill="#333" d="M185-189c-5-48-123-54-124 2 14 75 158 14 163 119 3 78-121 87-175 55-17-10-28-26-33-46l33-7c5 56 141 63 141-1 0-78-155-14-162-118-5-82 145-84 179-34 5 7 8 16 11 25" id="bs"/><path fill="#333" d="M24 0v-261h32V0H24" id="bt"/><path fill="#333" d="M96-169c-40 0-48 33-48 73s9 75 48 75c24 0 41-14 43-38l32 2c-6 37-31 61-74 61-59 0-76-41-82-99-10-93 101-131 147-64 4 7 5 14 7 22l-32 3c-4-21-16-35-41-35" id="bu"/><g id="r"><use transform="matrix(0.05,0,0,0.05,0,0)" xlink:href="#bs"/><use transform="matrix(0.05,0,0,0.05,12,0)" xlink:href="#ap"/><use transform="matrix(0.05,0,0,0.05,22,0)" xlink:href="#bt"/><use transform="matrix(0.05,0,0,0.05,25.950000000000003,0)" xlink:href="#ap"/><use transform="matrix(0.05,0,0,0.05,35.95,0)" xlink:href="#bu"/><use transform="matrix(0.05,0,0,0.05,44.95,0)" xlink:href="#ao"/><use transform="matrix(0.05,0,0,0.05,49.95,0)" xlink:href="#av"/><use transform="matrix(0.05,0,0,0.05,53.900000000000006,0)" xlink:href="#as"/><use transform="matrix(0.05,0,0,0.05,63.900000000000006,0)" xlink:href="#bq"/></g><path fill="#333" d="M87 75C49 33 22-17 22-94c0-76 28-126 65-167h31c-38 41-64 92-64 168S80 34 118 75H87" id="bv"/><path fill="#333" d="M140-251c81 0 123 46 123 126C263-46 219 4 140 4 59 4 17-45 17-125s42-126 123-126zm0 227c63 0 89-41 89-101s-29-99-89-99c-61 0-89 39-89 99S79-25 140-24" id="bw"/><path fill="#333" d="M33-261c38 41 65 92 65 168S71 34 33 75H2C39 34 66-17 66-93S39-220 2-261h31" id="bx"/><g id="s"><use transform="matrix(0.05,0,0,0.05,0,0)" xlink:href="#bv"/><use transform="matrix(0.05,0,0,0.05,5.95,0)" xlink:href="#bw"/><use transform="matrix(0.05,0,0,0.05,19.95,0)" xlink:href="#an"/><use transform="matrix(0.05,0,0,0.05,29.950000000000003,0)" xlink:href="#ap"/><use transform="matrix(0.05,0,0,0.05,39.95,0)" xlink:href="#ar"/><use transform="matrix(0.05,0,0,0.05,45.900000000000006,0)" xlink:href="#am"/><use transform="matrix(0.05,0,0,0.05,55.900000000000006,0)" xlink:href="#ao"/><use transform="matrix(0.05,0,0,0.05,60.900000000000006,0)" xlink:href="#av"/><use transform="matrix(0.05,0,0,0.05,64.85000000000001,0)" xlink:href="#as"/><use transform="matrix(0.05,0,0,0.05,74.85000000000001,0)" xlink:href="#bq"/><use transform="matrix(0.05,0,0,0.05,84.85000000000001,0)" xlink:href="#bx"/></g><path fill="#333" d="M30-248c87 1 191-15 191 75 0 78-77 80-158 76V0H30v-248zm33 125c57 0 124 11 124-50 0-59-68-47-124-48v98" id="by"/><g id="t"><use transform="matrix(0.05,0,0,0.05,0,0)" xlink:href="#by"/><use transform="matrix(0.05,0,0,0.05,12,0)" xlink:href="#as"/><use transform="matrix(0.05,0,0,0.05,22,0)" xlink:href="#az"/><use transform="matrix(0.05,0,0,0.05,31,0)" xlink:href="#ao"/><use transform="matrix(0.05,0,0,0.05,36,0)" xlink:href="#br"/><use transform="matrix(0.05,0,0,0.05,46,0)" xlink:href="#ar"/><use transform="matrix(0.05,0,0,0.05,51.95,0)" xlink:href="#ap"/><use transform="matrix(0.05,0,0,0.05,61.95,0)" xlink:href="#az"/></g><path fill="#333" d="M30-248c118-7 216 8 213 122C240-48 200 0 122 0H30v-248zM63-27c89 8 146-16 146-99s-60-101-146-95v194" id="bz"/><path fill="#333" d="M108 0H70L1-190h34L89-25l56-165h34" id="bA"/><g id="u"><use transform="matrix(0.05,0,0,0.05,0,0)" xlink:href="#bv"/><use transform="matrix(0.05,0,0,0.05,5.95,0)" xlink:href="#bz"/><use transform="matrix(0.05,0,0,0.05,18.900000000000002,0)" xlink:href="#ar"/><use transform="matrix(0.05,0,0,0.05,24.85,0)" xlink:href="#av"/><use transform="matrix(0.05,0,0,0.05,28.8,0)" xlink:href="#bA"/><use transform="matrix(0.05,0,0,0.05,37.8,0)" xlink:href="#ap"/><use transform="matrix(0.05,0,0,0.05,47.8,0)" xlink:href="#ar"/><use transform="matrix(0.05,0,0,0.05,53.75,0)" xlink:href="#bx"/></g><g id="v"><use transform="matrix(0.05,0,0,0.05,0,0)" xlink:href="#bs"/><use transform="matrix(0.05,0,0,0.05,12,0)" xlink:href="#ao"/><use transform="matrix(0.05,0,0,0.05,17,0)" xlink:href="#am"/><use transform="matrix(0.05,0,0,0.05,27,0)" xlink:href="#ao"/><use transform="matrix(0.05,0,0,0.05,32,0)" xlink:href="#ap"/><use transform="matrix(0.05,0,0,0.05,42,0)" xlink:href="#at"/><use transform="matrix(0.05,0,0,0.05,56.95,0)" xlink:href="#ap"/><use transform="matrix(0.05,0,0,0.05,66.95,0)" xlink:href="#bq"/><use transform="matrix(0.05,0,0,0.05,76.95,0)" xlink:href="#ao"/><use transform="matrix(0.05,0,0,0.05,81.95,0)" xlink:href="#aC"/><use transform="matrix(0.05,0,0,0.05,93.95,0)" xlink:href="#ax"/><use transform="matrix(0.05,0,0,0.05,103.95,0)" xlink:href="#av"/><use transform="matrix(0.05,0,0,0.05,107.9,0)" xlink:href="#bt"/><use transform="matrix(0.05,0,0,0.05,111.85000000000001,0)" xlink:href="#al"/><use transform="matrix(0.05,0,0,0.05,121.85000000000001,0)" xlink:href="#ap"/><use transform="matrix(0.05,0,0,0.05,131.85000000000002,0)" xlink:href="#ar"/></g><g id="w"><use transform="matrix(0.05,0,0,0.05,0,0)" xlink:href="#bs"/><use transform="matrix(0.05,0,0,0.05,12,0)" xlink:href="#ap"/><use transform="matrix(0.05,0,0,0.05,22,0)" xlink:href="#bt"/><use transform="matrix(0.05,0,0,0.05,25.950000000000003,0)" xlink:href="#ap"/><use transform="matrix(0.05,0,0,0.05,35.95,0)" xlink:href="#bu"/><use transform="matrix(0.05,0,0,0.05,44.95,0)" xlink:href="#ao"/></g><path fill="#333" d="M212-179c-10-28-35-45-73-45-59 0-87 40-87 99 0 60 29 101 89 101 43 0 62-24 78-52l27 14C228-24 195 4 139 4 59 4 22-46 18-125c-6-104 99-153 187-111 19 9 31 26 39 46" id="bB"/><g id="x"><use transform="matrix(0.05,0,0,0.05,0,0)" xlink:href="#bv"/><use transform="matrix(0.05,0,0,0.05,5.95,0)" xlink:href="#bB"/><use transform="matrix(0.05,0,0,0.05,18.900000000000002,0)" xlink:href="#bt"/><use transform="matrix(0.05,0,0,0.05,22.85,0)" xlink:href="#am"/><use transform="matrix(0.05,0,0,0.05,32.85,0)" xlink:href="#ax"/><use transform="matrix(0.05,0,0,0.05,42.85,0)" xlink:href="#az"/><use transform="matrix(0.05,0,0,0.05,51.85,0)" xlink:href="#ap"/><use transform="matrix(0.05,0,0,0.05,61.85,0)" xlink:href="#bx"/></g><path fill="#333" d="M63-220v92h138v28H63V0H30v-248h175v28H63" id="bC"/><g id="y"><use transform="matrix(0.05,0,0,0.05,0,0)" xlink:href="#bC"/><use transform="matrix(0.05,0,0,0.05,10.950000000000001,0)" xlink:href="#ar"/><use transform="matrix(0.05,0,0,0.05,16.900000000000002,0)" xlink:href="#as"/><use transform="matrix(0.05,0,0,0.05,26.900000000000002,0)" xlink:href="#at"/></g><path fill="#333" d="M266 0h-40l-56-210L115 0H75L2-248h35L96-30l15-64 43-154h32l59 218 59-218h35" id="bD"/><path fill="#333" d="M106-169C34-169 62-67 57 0H25v-261h32l-1 103c12-21 28-36 61-36 89 0 53 116 60 194h-32v-121c2-32-8-49-39-48" id="bE"/><g id="z"><use transform="matrix(0.05,0,0,0.05,0,0)" xlink:href="#bD"/><use transform="matrix(0.05,0,0,0.05,16.95,0)" xlink:href="#bE"/><use transform="matrix(0.05,0,0,0.05,26.950000000000003,0)" xlink:href="#ap"/><use transform="matrix(0.05,0,0,0.05,36.95,0)" xlink:href="#ar"/><use transform="matrix(0.05,0,0,0.05,42.900000000000006,0)" xlink:href="#ap"/></g><g id="A"><use transform="matrix(0.05,0,0,0.05,0,0)" xlink:href="#bv"/><use transform="matrix(0.05,0,0,0.05,5.95,0)" xlink:href="#bz"/><use transform="matrix(0.05,0,0,0.05,18.900000000000002,0)" xlink:href="#aC"/><use transform="matrix(0.05,0,0,0.05,30.900000000000002,0)" xlink:href="#bx"/></g><path fill="#333" d="M33 0v-38h34V0H33" id="bF"/><g id="B"><use transform="matrix(0.05,0,0,0.05,0,0)" xlink:href="#al"/><use transform="matrix(0.05,0,0,0.05,10,0)" xlink:href="#ar"/><use transform="matrix(0.05,0,0,0.05,15.949999999999998,0)" xlink:href="#av"/><use transform="matrix(0.05,0,0,0.05,19.9,0)" xlink:href="#bA"/><use transform="matrix(0.05,0,0,0.05,28.899999999999995,0)" xlink:href="#ap"/><use transform="matrix(0.05,0,0,0.05,38.9,0)" xlink:href="#ar"/><use transform="matrix(0.05,0,0,0.05,43.85,0)" xlink:href="#bF"/><use transform="matrix(0.05,0,0,0.05,48.85,0)" xlink:href="#ar"/><use transform="matrix(0.05,0,0,0.05,54.800000000000004,0)" xlink:href="#ax"/><use transform="matrix(0.05,0,0,0.05,64.80000000000001,0)" xlink:href="#bq"/><use transform="matrix(0.05,0,0,0.05,74.80000000000001,0)" xlink:href="#bv"/><use transform="matrix(0.05,0,0,0.05,80.75000000000001,0)" xlink:href="#az"/><use transform="matrix(0.05,0,0,0.05,89.75000000000001,0)" xlink:href="#ap"/><use transform="matrix(0.05,0,0,0.05,99.75000000000001,0)" xlink:href="#bt"/><use transform="matrix(0.05,0,0,0.05,103.7,0)" xlink:href="#ap"/><use transform="matrix(0.05,0,0,0.05,113.7,0)" xlink:href="#bu"/><use transform="matrix(0.05,0,0,0.05,122.7,0)" xlink:href="#ao"/><use transform="matrix(0.05,0,0,0.05,127.7,0)" xlink:href="#av"/><use transform="matrix(0.05,0,0,0.05,131.65,0)" xlink:href="#as"/><use transform="matrix(0.05,0,0,0.05,141.65,0)" xlink:href="#bq"/><use transform="matrix(0.05,0,0,0.05,151.65,0)" xlink:href="#bx"/></g><g id="C"><use transform="matrix(0.05,0,0,0.05,0,0)" xlink:href="#az"/><use transform="matrix(0.05,0,0,0.05,9,0)" xlink:href="#ap"/><use transform="matrix(0.05,0,0,0.05,19,0)" xlink:href="#bt"/><use transform="matrix(0.05,0,0,0.05,22.95,0)" xlink:href="#aq"/><use transform="matrix(0.05,0,0,0.05,27.950000000000003,0)" xlink:href="#bF"/><use transform="matrix(0.05,0,0,0.05,32.95,0)" xlink:href="#az"/><use transform="matrix(0.05,0,0,0.05,41.95,0)" xlink:href="#ap"/><use transform="matrix(0.05,0,0,0.05,51.95,0)" xlink:href="#bt"/><use transform="matrix(0.05,0,0,0.05,55.900000000000006,0)" xlink:href="#ap"/><use transform="matrix(0.05,0,0,0.05,65.9,0)" xlink:href="#bu"/><use transform="matrix(0.05,0,0,0.05,74.9,0)" xlink:href="#ao"/><use transform="matrix(0.05,0,0,0.05,79.9,0)" xlink:href="#av"/><use transform="matrix(0.05,0,0,0.05,83.85000000000001,0)" xlink:href="#as"/><use transform="matrix(0.05,0,0,0.05,93.85000000000001,0)" xlink:href="#bq"/><use transform="matrix(0.05,0,0,0.05,103.85000000000001,0)" xlink:href="#bv"/><use transform="matrix(0.05,0,0,0.05,109.80000000000001,0)" xlink:href="#az"/><use transform="matrix(0.05,0,0,0.05,118.80000000000001,0)" xlink:href="#ap"/><use transform="matrix(0.05,0,0,0.05,128.8,0)" xlink:href="#bt"/><use transform="matrix(0.05,0,0,0.05,132.75,0)" xlink:href="#ap"/><use transform="matrix(0.05,0,0,0.05,142.75,0)" xlink:href="#bu"/><use transform="matrix(0.05,0,0,0.05,151.75,0)" xlink:href="#ao"/><use transform="matrix(0.05,0,0,0.05,156.75,0)" xlink:href="#av"/><use transform="matrix(0.05,0,0,0.05,160.7,0)" xlink:href="#as"/><use transform="matrix(0.05,0,0,0.05,170.7,0)" xlink:href="#bq"/><use transform="matrix(0.05,0,0,0.05,180.7,0)" xlink:href="#bx"/></g><path fill="#333" d="M206 0h-36l-40-164L89 0H53L-1-190h32L70-26l43-164h34l41 164 42-164h31" id="bG"/><path fill="#333" d="M68-38c1 34 0 65-14 84H32c9-13 17-26 17-46H33v-38h35" id="bH"/><g id="D"><use transform="matrix(0.05,0,0,0.05,0,0)" xlink:href="#bq"/><use transform="matrix(0.05,0,0,0.05,10,0)" xlink:href="#ap"/><use transform="matrix(0.05,0,0,0.05,20,0)" xlink:href="#bG"/><use transform="matrix(0.05,0,0,0.05,32.95,0)" xlink:href="#bv"/><use transform="matrix(0.05,0,0,0.05,38.900000000000006,0)" xlink:href="#az"/><use transform="matrix(0.05,0,0,0.05,47.900000000000006,0)" xlink:href="#ap"/><use transform="matrix(0.05,0,0,0.05,57.900000000000006,0)" xlink:href="#bt"/><use transform="matrix(0.05,0,0,0.05,61.85,0)" xlink:href="#ap"/><use transform="matrix(0.05,0,0,0.05,71.85000000000001,0)" xlink:href="#bu"/><use transform="matrix(0.05,0,0,0.05,80.85000000000001,0)" xlink:href="#ao"/><use transform="matrix(0.05,0,0,0.05,85.85000000000001,0)" xlink:href="#av"/><use transform="matrix(0.05,0,0,0.05,89.80000000000001,0)" xlink:href="#as"/><use transform="matrix(0.05,0,0,0.05,99.80000000000001,0)" xlink:href="#bq"/><use transform="matrix(0.05,0,0,0.05,109.80000000000001,0)" xlink:href="#bH"/></g><path fill="#333" d="M26 75v-336h71v23H56V52h41v23H26" id="bI"/><g id="E"><use transform="matrix(0.05,0,0,0.05,0,0)" xlink:href="#bI"/><use transform="matrix(0.05,0,0,0.05,5,0)" xlink:href="#bs"/><use transform="matrix(0.05,0,0,0.05,17,0)" xlink:href="#ap"/><use transform="matrix(0.05,0,0,0.05,27,0)" xlink:href="#bt"/><use transform="matrix(0.05,0,0,0.05,30.950000000000003,0)" xlink:href="#ap"/><use transform="matrix(0.05,0,0,0.05,40.95,0)" xlink:href="#bu"/><use transform="matrix(0.05,0,0,0.05,49.95,0)" xlink:href="#ao"/><use transform="matrix(0.05,0,0,0.05,54.95,0)" xlink:href="#bH"/></g><g id="F"><use transform="matrix(0.05,0,0,0.05,0,0)" xlink:href="#bC"/><use transform="matrix(0.05,0,0,0.05,10.950000000000001,0)" xlink:href="#ar"/><use transform="matrix(0.05,0,0,0.05,16.900000000000002,0)" xlink:href="#as"/><use transform="matrix(0.05,0,0,0.05,26.900000000000002,0)" xlink:href="#at"/><use transform="matrix(0.05,0,0,0.05,41.85,0)" xlink:href="#bH"/></g><path fill="#333" d="M3 75V52h41v-290H3v-23h71V75H3" id="bJ"/><g id="G"><use transform="matrix(0.05,0,0,0.05,0,0)" xlink:href="#bD"/><use transform="matrix(0.05,0,0,0.05,16.95,0)" xlink:href="#bE"/><use transform="matrix(0.05,0,0,0.05,26.950000000000003,0)" xlink:href="#ap"/><use transform="matrix(0.05,0,0,0.05,36.95,0)" xlink:href="#ar"/><use transform="matrix(0.05,0,0,0.05,42.900000000000006,0)" xlink:href="#ap"/><use transform="matrix(0.05,0,0,0.05,52.900000000000006,0)" xlink:href="#bJ"/><use transform="matrix(0.05,0,0,0.05,57.900000000000006,0)" xlink:href="#bx"/></g><g id="H"><use transform="matrix(0.05,0,0,0.05,0,0)" xlink:href="#ay"/><use transform="matrix(0.05,0,0,0.05,10,0)" xlink:href="#ax"/><use transform="matrix(0.05,0,0,0.05,20,0)" xlink:href="#av"/><use transform="matrix(0.05,0,0,0.05,23.95,0)" xlink:href="#bt"/><use transform="matrix(0.05,0,0,0.05,27.899999999999995,0)" xlink:href="#al"/><use transform="matrix(0.05,0,0,0.05,37.9,0)" xlink:href="#ap"/><use transform="matrix(0.05,0,0,0.05,47.9,0)" xlink:href="#ar"/></g><g id="I"><use transform="matrix(0.05,0,0,0.05,0,0)" xlink:href="#ay"/><use transform="matrix(0.05,0,0,0.05,10,0)" xlink:href="#ax"/><use transform="matrix(0.05,0,0,0.05,20,0)" xlink:href="#av"/><use transform="matrix(0.05,0,0,0.05,23.95,0)" xlink:href="#bt"/><use transform="matrix(0.05,0,0,0.05,27.899999999999995,0)" xlink:href="#al"/><use transform="matrix(0.05,0,0,0.05,37.9,0)" xlink:href="#ap"/><use transform="matrix(0.05,0,0,0.05,47.9,0)" xlink:href="#ar"/><use transform="matrix(0.05,0,0,0.05,52.85,0)" xlink:href="#bF"/><use transform="matrix(0.05,0,0,0.05,57.85,0)" xlink:href="#ay"/><use transform="matrix(0.05,0,0,0.05,67.85,0)" xlink:href="#ax"/><use transform="matrix(0.05,0,0,0.05,77.85,0)" xlink:href="#av"/><use transform="matrix(0.05,0,0,0.05,81.8,0)" xlink:href="#bt"/><use transform="matrix(0.05,0,0,0.05,85.75,0)" xlink:href="#al"/></g><path fill="#333" d="M39-94c74 12-11 154 75 146v23c-44 4-70-10-70-52C44-23 55-84 6-82v-22c81 4-7-162 84-157h24v23c-82-15-2 131-75 144" id="bK"/><path fill="#333" d="M76-40C78 24 84 88 6 75V52C86 64 9-79 80-94c-40-6-34-59-34-106 1-29-11-41-40-38v-23c44-4 70 10 70 52 0 47-12 108 38 105v22c-26 1-39 14-38 42" id="bL"/><g id="J"><use transform="matrix(0.05,0,0,0.05,0,0)" xlink:href="#bK"/><use transform="matrix(0.05,0,0,0.05,6,0)" xlink:href="#bL"/><use transform="matrix(0.05,0,0,0.05,12,0)" xlink:href="#bx"/></g><g id="K"><use transform="matrix(0.05,0,0,0.05,0,0)" xlink:href="#bu"/><use transform="matrix(0.05,0,0,0.05,9,0)" xlink:href="#bt"/><use transform="matrix(0.05,0,0,0.05,12.949999999999998,0)" xlink:href="#am"/><use transform="matrix(0.05,0,0,0.05,22.95,0)" xlink:href="#ax"/><use transform="matrix(0.05,0,0,0.05,32.95,0)" xlink:href="#az"/><use transform="matrix(0.05,0,0,0.05,41.95,0)" xlink:href="#ap"/></g><g id="L"><use transform="matrix(0.05,0,0,0.05,0,0)" xlink:href="#bu"/><use transform="matrix(0.05,0,0,0.05,9,0)" xlink:href="#bt"/><use transform="matrix(0.05,0,0,0.05,12.949999999999998,0)" xlink:href="#am"/><use transform="matrix(0.05,0,0,0.05,22.95,0)" xlink:href="#ax"/><use transform="matrix(0.05,0,0,0.05,32.95,0)" xlink:href="#az"/><use transform="matrix(0.05,0,0,0.05,41.95,0)" xlink:href="#ap"/><use transform="matrix(0.05,0,0,0.05,51.95,0)" xlink:href="#bF"/><use transform="matrix(0.05,0,0,0.05,56.95,0)" xlink:href="#ay"/><use transform="matrix(0.05,0,0,0.05,66.95,0)" xlink:href="#ax"/><use transform="matrix(0.05,0,0,0.05,76.95,0)" xlink:href="#av"/><use transform="matrix(0.05,0,0,0.05,80.9,0)" xlink:href="#bt"/><use transform="matrix(0.05,0,0,0.05,84.85000000000001,0)" xlink:href="#al"/></g><path fill="#333" d="M109-170H84l-4-78h32zm-65 0H19l-4-78h33" id="bM"/><path fill="#333" d="M30 0v-248h33v221h125V0H30" id="bN"/><path fill="#333" d="M127-220V0H93v-220H8v-28h204v28h-85" id="bO"/><g id="M"><use transform="matrix(0.05,0,0,0.05,0,0)" xlink:href="#bv"/><use transform="matrix(0.05,0,0,0.05,5.95,0)" xlink:href="#bM"/><use transform="matrix(0.05,0,0,0.05,12.3,0)" xlink:href="#bs"/><use transform="matrix(0.05,0,0,0.05,24.3,0)" xlink:href="#bp"/><use transform="matrix(0.05,0,0,0.05,36.3,0)" xlink:href="#bN"/><use transform="matrix(0.05,0,0,0.05,46.3,0)" xlink:href="#bp"/><use transform="matrix(0.05,0,0,0.05,58.29999999999999,0)" xlink:href="#bB"/><use transform="matrix(0.05,0,0,0.05,71.25,0)" xlink:href="#bO"/></g><path fill="#333" d="M80-196l47-18 7 23-49 13 32 44-20 13-27-46-27 45-21-12 33-44-49-13 8-23 47 19-2-53h23" id="bP"/><g id="N"><use transform="matrix(0.05,0,0,0.05,0,0)" xlink:href="#bP"/><use transform="matrix(0.05,0,0,0.05,7,0)" xlink:href="#bM"/><use transform="matrix(0.05,0,0,0.05,13.350000000000001,0)" xlink:href="#bH"/></g><path fill="#333" d="M233-177c-1 41-23 64-60 70L243 0h-38l-65-103H63V0H30v-248c88 3 205-21 203 71zM63-129c60-2 137 13 137-47 0-61-80-42-137-45v92" id="bQ"/><g id="O"><use transform="matrix(0.05,0,0,0.05,0,0)" xlink:href="#bv"/><use transform="matrix(0.05,0,0,0.05,5.95,0)" xlink:href="#bM"/><use transform="matrix(0.05,0,0,0.05,12.3,0)" xlink:href="#bC"/><use transform="matrix(0.05,0,0,0.05,23.25,0)" xlink:href="#bQ"/><use transform="matrix(0.05,0,0,0.05,36.2,0)" xlink:href="#bw"/><use transform="matrix(0.05,0,0,0.05,50.2,0)" xlink:href="#aB"/></g><g id="P"><use transform="matrix(0.05,0,0,0.05,0,0)" xlink:href="#ax"/><use transform="matrix(0.05,0,0,0.05,10,0)" xlink:href="#az"/><use transform="matrix(0.05,0,0,0.05,19,0)" xlink:href="#ap"/><use transform="matrix(0.05,0,0,0.05,29,0)" xlink:href="#ar"/><use transform="matrix(0.05,0,0,0.05,34.95,0)" xlink:href="#az"/><use transform="matrix(0.05,0,0,0.05,43.95,0)" xlink:href="#bM"/><use transform="matrix(0.05,0,0,0.05,50.300000000000004,0)" xlink:href="#bH"/></g><g id="Q"><use transform="matrix(0.05,0,0,0.05,0,0)" xlink:href="#bv"/><use transform="matrix(0.05,0,0,0.05,5.95,0)" xlink:href="#bM"/><use transform="matrix(0.05,0,0,0.05,12.3,0)" xlink:href="#bD"/><use transform="matrix(0.05,0,0,0.05,29.25,0)" xlink:href="#aw"/><use transform="matrix(0.05,0,0,0.05,42.2,0)" xlink:href="#bp"/><use transform="matrix(0.05,0,0,0.05,54.2,0)" xlink:href="#bQ"/><use transform="matrix(0.05,0,0,0.05,67.15,0)" xlink:href="#bp"/></g><g id="R"><use transform="matrix(0.05,0,0,0.05,0,0)" xlink:href="#av"/><use transform="matrix(0.05,0,0,0.05,3.95,0)" xlink:href="#al"/></g><path fill="#333" d="M18-150v-26h174v26H18zm0 90v-26h174v26H18" id="bR"/><use transform="matrix(0.05,0,0,0.05,0,0)" xlink:href="#bR" id="S"/><path fill="#333" d="M33-154v-36h34v36H33zM33 0v-36h34V0H33" id="bS"/><path fill="#333" d="M-5 72V49h209v23H-5" id="bT"/><g id="T"><use transform="matrix(0.05,0,0,0.05,0,0)" xlink:href="#bS"/><use transform="matrix(0.05,0,0,0.05,5,0)" xlink:href="#bG"/><use transform="matrix(0.05,0,0,0.05,17.950000000000003,0)" xlink:href="#bE"/><use transform="matrix(0.05,0,0,0.05,27.950000000000003,0)" xlink:href="#ap"/><use transform="matrix(0.05,0,0,0.05,37.95,0)" xlink:href="#ar"/><use transform="matrix(0.05,0,0,0.05,43.900000000000006,0)" xlink:href="#ap"/><use transform="matrix(0.05,0,0,0.05,53.900000000000006,0)" xlink:href="#bT"/><use transform="matrix(0.05,0,0,0.05,63.900000000000006,0)" xlink:href="#am"/><use transform="matrix(0.05,0,0,0.05,73.9,0)" xlink:href="#bT"/><use transform="matrix(0.05,0,0,0.05,83.9,0)" xlink:href="#av"/><use transform="matrix(0.05,0,0,0.05,87.85000000000001,0)" xlink:href="#al"/><use transform="matrix(0.05,0,0,0.05,97.85000000000001,0)" xlink:href="#bM"/><use transform="matrix(0.05,0,0,0.05,104.2,0)" xlink:href="#bH"/></g><use transform="matrix(0.05,0,0,0.05,0,0)" xlink:href="#bK" id="U"/><g id="V"><use transform="matrix(0.05,0,0,0.05,0,0)" xlink:href="#bG"/><use transform="matrix(0.05,0,0,0.05,12.950000000000001,0)" xlink:href="#bE"/><use transform="matrix(0.05,0,0,0.05,22.950000000000003,0)" xlink:href="#ap"/><use transform="matrix(0.05,0,0,0.05,32.95,0)" xlink:href="#ar"/><use transform="matrix(0.05,0,0,0.05,38.900000000000006,0)" xlink:href="#ap"/><use transform="matrix(0.05,0,0,0.05,48.900000000000006,0)" xlink:href="#bT"/><use transform="matrix(0.05,0,0,0.05,58.900000000000006,0)" xlink:href="#am"/><use transform="matrix(0.05,0,0,0.05,68.9,0)" xlink:href="#bT"/><use transform="matrix(0.05,0,0,0.05,78.9,0)" xlink:href="#av"/><use transform="matrix(0.05,0,0,0.05,82.85000000000001,0)" xlink:href="#al"/><use transform="matrix(0.05,0,0,0.05,92.85000000000001,0)" xlink:href="#bS"/></g><path fill="#333" d="M27 0v-27h64v-190l-56 39v-29l58-41h29v221h61V0H27" id="bU"/><use transform="matrix(0.05,0,0,0.05,0,0)" xlink:href="#bU" id="W"/><g id="X"><use transform="matrix(0.05,0,0,0.05,0,0)" xlink:href="#bL"/><use transform="matrix(0.05,0,0,0.05,6,0)" xlink:href="#bx"/></g><use transform="matrix(0.05,0,0,0.05,0,0)" xlink:href="#bP" id="Y"/><g id="Z"><use transform="matrix(0.05,0,0,0.05,0,0)" xlink:href="#bC"/><use transform="matrix(0.05,0,0,0.05,10.950000000000001,0)" xlink:href="#bQ"/><use transform="matrix(0.05,0,0,0.05,23.900000000000002,0)" xlink:href="#bw"/><use transform="matrix(0.05,0,0,0.05,37.900000000000006,0)" xlink:href="#aB"/></g><g id="aa"><use transform="matrix(0.05,0,0,0.05,0,0)" xlink:href="#ax"/><use transform="matrix(0.05,0,0,0.05,10,0)" xlink:href="#az"/><use transform="matrix(0.05,0,0,0.05,19,0)" xlink:href="#ap"/><use transform="matrix(0.05,0,0,0.05,29,0)" xlink:href="#ar"/><use transform="matrix(0.05,0,0,0.05,34.95,0)" xlink:href="#az"/></g><g id="ab"><use transform="matrix(0.05,0,0,0.05,0,0)" xlink:href="#bD"/><use transform="matrix(0.05,0,0,0.05,16.95,0)" xlink:href="#aw"/><use transform="matrix(0.05,0,0,0.05,29.899999999999995,0)" xlink:href="#bp"/><use transform="matrix(0.05,0,0,0.05,41.9,0)" xlink:href="#bQ"/><use transform="matrix(0.05,0,0,0.05,54.85,0)" xlink:href="#bp"/></g><g id="ac"><use transform="matrix(0.05,0,0,0.05,0,0)" xlink:href="#al"/><use transform="matrix(0.05,0,0,0.05,10,0)" xlink:href="#ay"/><use transform="matrix(0.05,0,0,0.05,20,0)" xlink:href="#bF"/><use transform="matrix(0.05,0,0,0.05,25,0)" xlink:href="#aq"/><use transform="matrix(0.05,0,0,0.05,30,0)" xlink:href="#ap"/><use transform="matrix(0.05,0,0,0.05,40,0)" xlink:href="#ao"/><use transform="matrix(0.05,0,0,0.05,45,0)" xlink:href="#bu"/><use transform="matrix(0.05,0,0,0.05,54,0)" xlink:href="#bE"/><use transform="matrix(0.05,0,0,0.05,64,0)" xlink:href="#bv"/><use transform="matrix(0.05,0,0,0.05,69.95,0)" xlink:href="#bM"/><use transform="matrix(0.05,0,0,0.05,76.3,0)" xlink:href="#bs"/><use transform="matrix(0.05,0,0,0.05,88.3,0)" xlink:href="#bp"/><use transform="matrix(0.05,0,0,0.05,100.3,0)" xlink:href="#bN"/><use transform="matrix(0.05,0,0,0.05,110.30000000000001,0)" xlink:href="#bp"/><use transform="matrix(0.05,0,0,0.05,122.30000000000001,0)" xlink:href="#bB"/><use transform="matrix(0.05,0,0,0.05,135.25,0)" xlink:href="#bO"/></g><g id="ad"><use transform="matrix(0.05,0,0,0.05,0,0)" xlink:href="#bI"/><use transform="matrix(0.05,0,0,0.05,5,0)" xlink:href="#bK"/></g><g id="ae"><use transform="matrix(0.05,0,0,0.05,0,0)" xlink:href="#av"/><use transform="matrix(0.05,0,0,0.05,3.95,0)" xlink:href="#al"/><use transform="matrix(0.05,0,0,0.05,13.949999999999998,0)" xlink:href="#bS"/></g><g id="af"><use transform="matrix(0.05,0,0,0.05,0,0)" xlink:href="#bL"/><use transform="matrix(0.05,0,0,0.05,6,0)" xlink:href="#bJ"/></g><g id="ag"><use transform="matrix(0.05,0,0,0.05,0,0)" xlink:href="#az"/><use transform="matrix(0.05,0,0,0.05,9,0)" xlink:href="#ap"/><use transform="matrix(0.05,0,0,0.05,19,0)" xlink:href="#bt"/><use transform="matrix(0.05,0,0,0.05,22.95,0)" xlink:href="#ap"/><use transform="matrix(0.05,0,0,0.05,32.95,0)" xlink:href="#bu"/><use transform="matrix(0.05,0,0,0.05,41.95,0)" xlink:href="#ao"/><use transform="matrix(0.05,0,0,0.05,46.95,0)" xlink:href="#av"/><use transform="matrix(0.05,0,0,0.05,50.900000000000006,0)" xlink:href="#as"/><use transform="matrix(0.05,0,0,0.05,60.900000000000006,0)" xlink:href="#bq"/><use transform="matrix(0.05,0,0,0.05,70.9,0)" xlink:href="#bF"/><use transform="matrix(0.05,0,0,0.05,75.9,0)" xlink:href="#am"/><use transform="matrix(0.05,0,0,0.05,85.9,0)" xlink:href="#aq"/><use transform="matrix(0.05,0,0,0.05,90.9,0)" xlink:href="#ao"/><use transform="matrix(0.05,0,0,0.05,95.9,0)" xlink:href="#ap"/><use transform="matrix(0.05,0,0,0.05,105.9,0)" xlink:href="#ar"/><use transform="matrix(0.05,0,0,0.05,111.85000000000001,0)" xlink:href="#bv"/><use transform="matrix(0.05,0,0,0.05,117.80000000000001,0)" xlink:href="#bI"/><use transform="matrix(0.05,0,0,0.05,122.80000000000001,0)" xlink:href="#bK"/></g><g id="ah"><use transform="matrix(0.05,0,0,0.05,0,0)" xlink:href="#bL"/><use transform="matrix(0.05,0,0,0.05,6,0)" xlink:href="#bJ"/><use transform="matrix(0.05,0,0,0.05,11,0)" xlink:href="#bx"/></g><use transform="matrix(0.05,0,0,0.05,0,0)" xlink:href="#bK" id="ai"/><use transform="matrix(0.05,0,0,0.05,0,0)" xlink:href="#bL" id="aj"/></defs></g></svg>